<svg xmlns="http://www.w3.org/2000/svg" width="26.286" height="26.286" viewBox="0 0 26.286 26.286">
  <g id="Group_1428" data-name="Group 1428" transform="translate(0)">
    <rect id="Rectangle_1478" data-name="Rectangle 1478" width="26.286" height="26.286" transform="translate(0)" fill="none"/>
    <path id="facebook-square" d="M20.1,34.154V49.948A2.154,2.154,0,0,1,17.948,52.1H14.121V44.151H16.84l.39-3.033h-3.11V39.179c0-.879.242-1.476,1.5-1.476H17.23v-2.71a21.6,21.6,0,0,0-2.342-.121,3.657,3.657,0,0,0-3.9,4.011v2.239H8.256v3.033h2.733V52.1H2.154A2.154,2.154,0,0,1,0,49.948V34.154A2.154,2.154,0,0,1,2.154,32H17.948A2.154,2.154,0,0,1,20.1,34.154Z" transform="translate(3.245 -28.432)" fill="#3a5998"/>
  </g>
</svg>
