<svg id="Group_1429" data-name="Group 1429" xmlns="http://www.w3.org/2000/svg" width="26.286" height="26.286" viewBox="0 0 26.286 26.286">
  <rect id="Rectangle_1478" data-name="Rectangle 1478" width="26.286" height="26.286" transform="translate(0)" fill="none"/>
  <g id="logo_googleg_48dp" transform="translate(3.286 3.286)">
    <path id="Shape" d="M9.463,2.016A11.326,11.326,0,0,0,9.284,0H0V3.813H5.3A4.535,4.535,0,0,1,3.338,6.788V9.261H6.524A9.613,9.613,0,0,0,9.463,2.016Z" transform="translate(9.857 8.065)" fill="#4285f4"/>
    <path id="Shape-2" data-name="Shape" d="M8.809,7.984A9.411,9.411,0,0,0,15.332,5.6L12.147,3.123a5.925,5.925,0,0,1-3.338.941A5.874,5.874,0,0,1,3.293,0H0V2.554a9.853,9.853,0,0,0,8.809,5.43Z" transform="translate(1.048 11.73)" fill="#34a853"/>
    <path id="Shape-3" data-name="Shape" d="M4.342,6.3a5.827,5.827,0,0,1,0-3.746V0H1.048a9.87,9.87,0,0,0,0,8.854L4.342,6.3Z" transform="translate(0 5.43)" fill="#fbbc05"/>
    <path id="Shape-4" data-name="Shape" d="M8.809,3.92a5.325,5.325,0,0,1,3.768,1.474L15.4,2.567A9.473,9.473,0,0,0,8.809,0,9.853,9.853,0,0,0,0,5.43L3.293,7.984A5.874,5.874,0,0,1,8.809,3.92Z" transform="translate(1.048)" fill="#ea4335"/>
    <path id="Shape-5" data-name="Shape" d="M0,0H19.714V19.714H0Z" fill="none"/>
  </g>
</svg>
