<svg xmlns="http://www.w3.org/2000/svg" xmlns:xlink="http://www.w3.org/1999/xlink" width="256.917" height="260" viewBox="0 0 256.917 260">
  <defs>
    <clipPath id="clip-path">
      <path id="Path_210" data-name="Path 210" d="M525.8,591.427l1.81-59.359,57.675-3.368-1.81,59.359Z" transform="translate(-525.8 -528.7)"/>
    </clipPath>
  </defs>
  <g id="Scan_and_Pay_1_" data-name="Scan and Pay (1)" transform="translate(-336.685 -295.972)">
    <g id="Group_92" data-name="Group 92" transform="translate(336.685 295.972)" opacity="0.5">
      <path id="Path_145" data-name="Path 145" d="M593.45,373.819c-1.516-17.555-11.451-26.9-29.343-30.353-11.24-2.147-22.649-3.242-33.974-5.262-19.407-3.452-35.321-12.84-50.687-24.291-21.26-15.871-44.119-20.965-68.747-7.872a135.159,135.159,0,0,0-30.058,21.975c-13.514,12.966-23.575,28.669-33.805,44.161-6.862,10.4-10.188,22.186-10.1,36.541a40.592,40.592,0,0,0,2.736,16.334c5.01,12.63,15.071,20.8,25.975,27.532,14.482,8.967,24.8,20.755,29.932,37.089,4.126,13.093,13.64,19.913,26.817,20.628,14.4.758,26.269-4.673,33.131-18.229a125.714,125.714,0,0,1,11.788-19.7c6.062-8,13.345-14.145,24-15.2,7.409-.758,14.777-1.979,22.1-3.073,30.732-4.631,55.191-18.818,70.768-46.477C589.956,397.142,594.5,385.9,593.45,373.819Z" transform="translate(-336.685 -297.483)" fill="#d9cef7"/>
      <path id="Path_146" data-name="Path 146" d="M759.569,324.779c8.041.042,14.9-4.42,16.418-10.651,1.516-6.441-2.1-13.387-8.841-16.25-7.746-3.284-15.408-2.021-22.607,1.473-5.473,2.652-6.778,7.283-4.5,13.093C742.856,319.9,750.518,324.737,759.569,324.779Z" transform="translate(-569.615 -295.972)" fill="#d9cef7"/>
      <path id="Path_147" data-name="Path 147" d="M761.1,700.427c-4.5-1.852-10.609.463-14.566,5.473a15.065,15.065,0,0,0-1.221,1.937c-1.852,2.947-3.663,5.978-1.431,9.514,2.147,3.41,5.431,4.631,10.188,4.252a6.712,6.712,0,0,0,1.431,0c5.557-.884,11.956-6.273,12.167-10.735C767.876,706.026,765.687,702.322,761.1,700.427Z" transform="translate(-571.86 -529.79)" fill="#d9cef7"/>
      <path id="Path_148" data-name="Path 148" d="M822.815,691.34c-4.631-.084-8.125,1.516-8.546,6.062-.295,3.2,2.357,5.094,5.473,5.431,3.284.337,8.672-4.378,8.42-7.325C827.867,692.224,825.636,691.045,822.815,691.34Z" transform="translate(-613.201 -524.871)" fill="#d9cef7"/>
    </g>
    <g id="Group_93" data-name="Group 93" transform="translate(400.384 331.36)">
      <path id="Path_149" data-name="Path 149" d="M584.208,396.9c-.253-1.81-.674-3.578-1.052-5.389a15.237,15.237,0,0,0-9.851-11.451,176.973,176.973,0,0,0-24.543,1.389c-9.767,1.137-19.492,2.442-29.258,3.115a71.6,71.6,0,0,0-13.766,1.726c-5.22,1.389-9.22,4.252-11.24,9.641-1.937,5.178-2.063,10.567-2.273,15.871-.379,9.093-1.137,18.229-.716,27.364.084,1.684-1.01,3.41,0,5.094,2.189-.8,3.957-2.779,6.609-2.315a15.925,15.925,0,0,0,.547-3.494c.295-9.135.716-18.229,1.01-27.364.042-1.726.716-2.4,2.442-2.526,17.218-1.052,34.394-2.189,51.571-3.284,7.536-.505,15.113-.968,22.649-1.516,3.031-.21,3.62.168,3.494,3.2-.463,10.4-1.01,20.755-1.473,31.153-.463,10.567-.926,21.133-1.263,31.742-.084,2.231-1.01,4.5.084,6.736,2.526-1.726,5.852-2.736,6.02-6.609.632-18.439,1.305-36.878,1.894-55.275A114.215,114.215,0,0,0,584.208,396.9Z" transform="translate(-489.778 -380.032)" fill="#fcd327"/>
      <path id="Path_150" data-name="Path 150" d="M573.276,722.073c-.168,1.642-.421,3.242-.505,4.883-.295,6.946-.505,13.85-.758,20.8-.126,3.284-.295,6.567-.505,9.809-.126,1.894-.505,3.368-3.115,3.494-11.2.421-22.4.842-33.595,1.684-5.346.421-10.735.463-16.082.8-4.5.295-9.051,1.179-13.6.463-4.8,3.41-9.6,6.778-14.4,10.188-.253,1.137-1.768,1.726-1.473,3.115-.211,1.516,1.347,2.526,1.052,4.041,2.821,5.052,7.325,7.283,12.882,7.115,18.565-.547,37.089.21,55.654.126A34.829,34.829,0,0,0,570.2,787.03c4.757-1.684,6.736-4.336,6.946-9.346l2.147-50.392C579.591,720.894,579.591,720.894,573.276,722.073Z" transform="translate(-488.698 -577.73)" fill="#fcd327"/>
      <path id="Path_151" data-name="Path 151" d="M499.815,636.568c-2.147,1.095-1.852,2.189-.126,3.41.295.211.547.463.842.674.842-1.6.421-3.368.505-5.052A5.376,5.376,0,0,1,499.815,636.568Z" transform="translate(-493.96 -528.01)" fill="#fcd327"/>
      <path id="Path_152" data-name="Path 152" d="M493.09,841.4s-8.5,5.978.842,14.187c0,0-10.146-7.62-3.915-12Z" transform="translate(-487.993 -647.171)" fill="#fcd327"/>
    </g>
    <path id="Path_153" data-name="Path 153" d="M513.029,597.889c5.725-4.715,10.314-10.272,12.756-17.387,3.368-9.683,2.231-19.071-1.852-28.248-4.252-9.6-10.693-17.555-17.934-25.006-.968-.968-1.894-1.979-2.821-2.947a6.233,6.233,0,0,1,.505-5.052c8.967-11.282,10.819-23.954,7.157-37.594a12.232,12.232,0,0,0-6.02-8.083c-.8-2.947-.463-6.02-.168-8.967a129.258,129.258,0,0,0,.379-13.387,80.866,80.866,0,0,1,.631-8.462c.168-2.063,1.263-3.031,3.284-3.368a95.368,95.368,0,0,1,12-.968c13.219-.547,26.4-1.6,39.615-2.4,7.451-.463,14.945-.716,22.4-1.389,3.242-.295,4.42.674,4.462,3.957.042,6.1-.379,12.209-.716,18.313-.295,5.178-.547,10.4-.8,15.576-.463,11.409-1.179,22.775-1.6,34.184a2.533,2.533,0,0,1-.379,1.558c-4.547,4.5-10.019,7.83-15.113,11.619-3.157,2.315-6.441,4.462-9.683,6.694a15.235,15.235,0,0,0-3.915,3.789c-1.937,2.694-1.642,4.926,1.179,6.694,1.3.8,1.179,1.221.253,2.189-1.852,1.894-3.873,4.041-2.61,6.946,1.305,3.031,4.294,3.157,7.073,2.989,2.694-.168,4.631.126,6.188,2.9,1.389,2.61,4.547,3.2,7.409,3.536,2.147.295,4.378.337,6.525.505a2.984,2.984,0,0,1,.589,2.063c-.379,10.946-.968,21.891-1.516,32.795-.211,3.831-1.389,4.715-5.389,4.968-11.83.631-23.659,1.347-35.489,2.021-7.746.463-15.492.589-23.238,1.221C515.049,599.068,513.744,599.152,513.029,597.889Z" transform="translate(-96.224 -80.257)" fill="#fefefe"/>
    <g id="Group_101" data-name="Group 101" transform="translate(416.3 393.947)">
      <g id="Group_100" data-name="Group 100" transform="translate(0 0)">
        <g id="Group_99" data-name="Group 99">
          <g id="Group_98" data-name="Group 98">
            <g id="Group_97" data-name="Group 97" clip-path="url(#clip-path)">
              <g id="Group_96" data-name="Group 96" transform="translate(0.084 0.589)">
                <g id="Group_95" data-name="Group 95">
                  <g id="Group_94" data-name="Group 94">
                    <path id="Path_154" data-name="Path 154" d="M610.042,561.593v-.21c.042-.463.042-.968.042-1.431.042-1.179.126-2.4.126-3.578a1.341,1.341,0,0,1,.253-.926,1.254,1.254,0,0,1,.758-.295h.084c3.578-.126,7.157-.295,9.851-.463a1.166,1.166,0,0,1,.884.211,1.074,1.074,0,0,1,.211.8c-.168,3.452-.295,6.862-.421,10.314a.982.982,0,0,1-.253.758c-.126.168-.337.211-.674.253h-.042c-3.2.126-6.483.295-10.1.463a1,1,0,0,1-.758-.211.83.83,0,0,1-.168-.758c.084-1.263.126-2.526.168-3.747a10.263,10.263,0,0,0,.042-1.179h0m-.505-7.662h0c-.253,0-.379.042-.421.126-.084.084-.084.211-.126.463-.168,4.673-.379,9.388-.589,14.019,0,.211,0,.379.084.421.084.084.211.084.421.084,4.673-.253,9.262-.463,13.6-.631h.042a.559.559,0,0,0,.421-.126.608.608,0,0,0,.126-.463c.168-4.631.379-9.346.589-14.019,0-.211,0-.379-.084-.421a.858.858,0,0,0-.463-.084h0l-4.925.253-3.747.168c-1.6.084-3.284.168-4.926.211" transform="translate(-573.711 -543.533)" fill="#fcd327"/>
                    <path id="Path_155" data-name="Path 155" d="M620.366,566.087h0c-3.242.126-6.525.295-10.146.463-.253,0-.421,0-.463-.084-.084-.084-.084-.211-.084-.463.084-1.263.126-2.526.168-3.747,0-.505.042-.968.042-1.431v-.21c0-.421.042-.8.042-1.221.042-1.179.126-2.4.126-3.62,0-.337.042-.505.126-.589a.677.677,0,0,1,.463-.126h.084c3.578-.126,7.157-.295,9.851-.463.337,0,.505,0,.589.084s.126.253.084.547c-.168,3.452-.295,6.862-.421,10.314,0,.253-.042.421-.126.463,0,.042-.126.084-.337.084m-9.683-11.493a1.044,1.044,0,0,0-.758.295,1.222,1.222,0,0,0-.253.926c-.042,1.179-.084,2.4-.126,3.578,0,.463-.042.968-.042,1.431v.211h0c0,.421-.042.842-.042,1.263-.042,1.221-.084,2.526-.168,3.747a.923.923,0,0,0,.168.758,1,1,0,0,0,.758.211c3.62-.211,6.946-.337,10.1-.463h.042a.889.889,0,0,0,.674-.253,1.26,1.26,0,0,0,.253-.758c.126-3.494.253-6.862.421-10.314.042-.421-.042-.674-.21-.8a1.166,1.166,0,0,0-.884-.21c-2.694.168-6.231.337-9.851.463-.042-.084-.042-.084-.084-.084m11.324,13.219h0c-4.378.21-8.967.421-13.64.631-.253,0-.379,0-.421-.084-.084-.084-.084-.21-.084-.421.211-4.631.421-9.346.589-14.019a.608.608,0,0,1,.126-.463.922.922,0,0,1,.379-.126H609c1.642-.042,3.326-.126,4.926-.211l3.747-.168c1.6-.084,3.284-.168,4.925-.253h0c.253,0,.379,0,.463.084a.906.906,0,0,1,.084.421c-.211,4.673-.421,9.388-.589,14.019a.608.608,0,0,1-.126.463,1.71,1.71,0,0,1-.421.126m-13.093-14.9a.853.853,0,0,0-.674.253,1.038,1.038,0,0,0-.253.758c-.168,4.673-.379,9.388-.589,14.019a1.053,1.053,0,0,0,.168.716.845.845,0,0,0,.716.168c4.673-.253,9.262-.463,13.6-.631h.042a.853.853,0,0,0,.674-.253,1.038,1.038,0,0,0,.253-.758c.168-4.631.379-9.346.589-14.019a1.053,1.053,0,0,0-.168-.716.845.845,0,0,0-.716-.168h-.042l-4.925.253-3.747.168c-1.6.084-3.284.168-4.925.211h0" transform="translate(-573.132 -542.933)" fill="#fcd327"/>
                    <path id="Path_156" data-name="Path 156" d="M552.758,570.271a.77.77,0,0,1-.968-.968c.168-3.368.337-6.862.421-10.314a1.072,1.072,0,0,1,.253-.8,1.038,1.038,0,0,1,.758-.253h.042c3.284-.126,6.652-.295,9.935-.463h0c.295,0,.631,0,.8.211.168.168.211.379.211.8-.168,3.663-.337,7.031-.421,10.314a1.072,1.072,0,0,1-.253.8.99.99,0,0,1-.716.253h-.126c-1.179.042-2.4.084-3.578.168-.463.042-.926.042-1.389.084-.463,0-.926.042-1.347.042-.926.042-1.894.084-2.863.126a4.553,4.553,0,0,1-.758,0h0m-1.221-13.64c-.211,0-.379.042-.421.126a.608.608,0,0,0-.126.463c-.042,1.684-.126,3.368-.211,5.01-.042.631-.042,1.263-.084,1.894h0c-.042.631-.042,1.305-.084,1.937-.084,1.684-.126,3.368-.211,5.094,0,.253,0,.421.084.505s.211.084.463.084c4.757-.253,9.135-.463,13.429-.631h.042c.253,0,.421-.042.463-.126a.79.79,0,0,0,.126-.547c.168-4.5.337-9.135.589-13.85,0-.295,0-.421-.084-.505s-.253-.084-.505-.084c-4.21.211-8.588.421-13.471.632h0" transform="translate(-540.128 -545.096)" fill="#fcd327"/>
                    <path id="Path_157" data-name="Path 157" d="M552.336,569.213c-.253,0-.421,0-.505-.084a.58.58,0,0,1-.084-.505c.168-3.368.337-6.862.421-10.314a.732.732,0,0,1,.126-.505c.084-.084.211-.126.505-.126h.042c3.284-.126,6.652-.295,9.935-.463.295,0,.463,0,.547.084s.084.253.084.505c-.168,3.663-.337,7.03-.421,10.314a.731.731,0,0,1-.126.505.559.559,0,0,1-.421.126h-.126c-1.179.042-2.4.084-3.578.168-.463.042-.926.042-1.389.084-.463,0-.926.042-1.347.042l-2.778.126c-.295,0-.547.042-.884.042h0m.463-11.956a1.1,1.1,0,0,0-.758.253,1.072,1.072,0,0,0-.253.8c-.126,3.494-.253,6.946-.421,10.314a.92.92,0,0,0,.21.8.9.9,0,0,0,.758.168h.042c.253,0,.505-.042.758-.042.968-.042,1.937-.084,2.863-.126.463-.042.926-.042,1.347-.042.463-.042.926-.042,1.389-.084,1.179-.042,2.4-.126,3.578-.168h.126a1.144,1.144,0,0,0,.716-.253,1.072,1.072,0,0,0,.253-.8c.084-3.284.253-6.651.421-10.314a1.074,1.074,0,0,0-.21-.8,1.055,1.055,0,0,0-.8-.211h0c-3.284.168-6.651.337-9.935.463-.042.042-.042.042-.084.042m-2.526,6.273c.042-.631.042-1.263.084-1.894.084-1.642.168-3.368.21-5.01,0-.253.042-.421.126-.463a.558.558,0,0,1,.421-.126h.042c4.841-.21,9.262-.421,13.429-.631.295,0,.421,0,.505.084s.084.253.084.505c-.211,4.673-.421,9.346-.589,13.85a.79.79,0,0,1-.126.547.677.677,0,0,1-.463.126h-.042c-4.294.168-8.672.379-13.429.631-.253,0-.421,0-.463-.084-.084-.084-.084-.211-.084-.505.084-1.684.168-3.41.211-5.094.042-.631.042-1.305.084-1.937h0m.842-7.915a.89.89,0,0,0-.716.253,1.029,1.029,0,0,0-.253.758c-.042,1.684-.126,3.368-.168,5.01-.042.547-.042,1.137-.084,1.684v.211c-.042.631-.042,1.305-.084,1.937-.084,1.642-.126,3.368-.211,5.052a1.132,1.132,0,0,0,.168.758,1,1,0,0,0,.758.21c4.715-.253,9.135-.463,13.429-.631H564a1.152,1.152,0,0,0,.758-.253,1.182,1.182,0,0,0,.253-.842c.168-4.5.337-9.135.589-13.85,0-.421-.042-.631-.211-.8a1.055,1.055,0,0,0-.8-.211c-4.168.211-8.588.421-13.429.631,0,.042,0,.042-.042.084" transform="translate(-539.665 -544.46)" fill="#fcd327"/>
                    <path id="Path_158" data-name="Path 158" d="M560.419,629.55c-3.7.168-6.988.295-10.1.463a1.016,1.016,0,0,1-.716-.168.867.867,0,0,1-.168-.716c.168-3.873.337-7.325.421-10.525a.926.926,0,0,1,.253-.716,1.086,1.086,0,0,1,.674-.253h.084c1.221-.042,2.442-.084,3.62-.168l1.431-.084c.547-.042,1.137-.042,1.684-.084,1.095-.042,2.231-.084,3.368-.168h.042a.907.907,0,0,1,.674.168.867.867,0,0,1,.168.716c-.168,3.494-.337,7.03-.421,10.525a.867.867,0,0,1-.253.716,1.086,1.086,0,0,1-.674.253l-.084.042m-11.282-13.219h0c-.253,0-.379.042-.421.126-.084.084-.084.211-.126.463-.211,5.01-.379,9.6-.589,14.019,0,.253,0,.379.084.421a.781.781,0,0,0,.421.084c5.3-.295,9.6-.463,13.514-.631h.042a.559.559,0,0,0,.421-.126.868.868,0,0,0,.126-.547c.042-1.642.126-3.326.211-4.926.042-.547.042-1.137.084-1.684h0v-.211c.042-.631.042-1.263.084-1.937.084-1.684.126-3.41.211-5.094,0-.253,0-.421-.084-.505s-.211-.084-.463-.084c-4.8.253-9.22.463-13.514.632" transform="translate(-538.738 -579.664)" fill="#fcd327"/>
                    <path id="Path_159" data-name="Path 159" d="M559.982,628.493H559.9c-3.7.168-7.03.295-10.1.463-.253,0-.379,0-.463-.084a.782.782,0,0,1-.084-.421c.168-3.873.337-7.325.421-10.525a.559.559,0,0,1,.126-.421c.042-.084.168-.084.379-.126h.084c1.221-.042,2.442-.084,3.663-.168l1.431-.084c.547-.042,1.137-.042,1.684-.084.968-.042,2.021-.084,3.031-.126a.822.822,0,0,0,.337-.042c.253,0,.379,0,.463.084a.781.781,0,0,1,.084.421c-.168,3.494-.337,7.03-.421,10.525,0,.21-.042.379-.126.421a.443.443,0,0,1-.421.168M550.215,617a.889.889,0,0,0-.674.253,1.115,1.115,0,0,0-.253.716c-.084,3.2-.253,6.609-.421,10.525a1.053,1.053,0,0,0,.168.716.845.845,0,0,0,.716.168c3.115-.168,6.4-.337,10.1-.463h.084a.889.889,0,0,0,.674-.253,1.116,1.116,0,0,0,.253-.716c.126-3.494.253-7.03.421-10.525a1.053,1.053,0,0,0-.168-.716.907.907,0,0,0-.674-.168H560.4c-1.137.084-2.273.126-3.368.168-.547.042-1.137.042-1.684.084l-1.431.084c-1.179.042-2.442.126-3.62.168-.042-.042-.042-.042-.084-.042m11.367,13.177h0c-3.957.168-8.251.379-13.556.631-.253,0-.379,0-.421-.084a.781.781,0,0,1-.084-.421c.21-4.42.379-9.009.589-14.019a.608.608,0,0,1,.126-.463.559.559,0,0,1,.421-.126h.042c4.294-.168,8.714-.379,13.514-.632.253,0,.421,0,.463.084.084.084.084.211.084.505-.084,1.684-.168,3.41-.211,5.094-.042.631-.042,1.263-.084,1.937v.21h0c-.042.547-.042,1.137-.084,1.684-.084,1.6-.126,3.284-.211,4.926a.868.868,0,0,1-.126.547.756.756,0,0,1-.463.126m-12.924-14.9a.89.89,0,0,0-.716.253,1.261,1.261,0,0,0-.253.758c-.168,5.01-.379,9.6-.589,14.019,0,.379.042.589.168.716a.845.845,0,0,0,.716.168c5.3-.253,9.6-.463,13.514-.631h.042a1.028,1.028,0,0,0,.716-.253,1.23,1.23,0,0,0,.253-.884c.042-1.642.126-3.326.211-4.925.042-.631.042-1.263.084-1.894v-.21c.042-.589.042-1.137.084-1.726.084-1.684.126-3.41.211-5.094a1.132,1.132,0,0,0-.168-.758c-.168-.211-.463-.211-.758-.211-4.8.295-9.22.505-13.514.674" transform="translate(-538.217 -579.027)" fill="#fcd327"/>
                    <path id="Path_160" data-name="Path 160" d="M532.205,536.509a.712.712,0,0,0-.505.168,1,1,0,0,0-.126.631c-.042,1.684-.126,3.41-.211,5.052-.042.674-.042,1.305-.084,1.979s-.042,1.389-.084,2.063c-.042,1.6-.126,3.242-.211,4.841-.042.631,0,.842.674.842h.042a.712.712,0,0,0,.505-.168c.126-.126.126-.379.126-.674v-.126c.042-1.473.126-2.947.168-4.42.084-2.484.211-5.094.295-7.62a1.277,1.277,0,0,1,.295-.968,1.313,1.313,0,0,1,.842-.295h.042l5.978-.253,5.978-.253h.042c.505-.042.547-.168.589-.716v-.084c.042-.295,0-.463-.084-.547a.58.58,0,0,0-.505-.084c-4.968.253-9.472.463-13.766.631h0" transform="translate(-528.879 -533.436)" fill="#fcd327"/>
                    <path id="Path_161" data-name="Path 161" d="M531.223,551.6h0c-.716,0-.758-.168-.716-.842.084-1.6.168-3.242.211-4.841.042-.674.042-1.389.084-2.063s.042-1.305.084-1.979c.084-1.642.126-3.368.211-5.052a1.087,1.087,0,0,1,.126-.631.99.99,0,0,1,.505-.168h.042c4.252-.168,8.756-.379,13.808-.631.295,0,.421,0,.505.084s.084.253.084.547v.084c-.042.547-.042.674-.589.716h-.042c-1.979.084-4.041.168-5.978.253l-5.978.253h-.042a1.313,1.313,0,0,0-.842.295,1.277,1.277,0,0,0-.295.968c-.084,2.526-.168,5.136-.295,7.62-.042,1.473-.126,2.947-.168,4.42v.126c0,.295,0,.547-.126.674a.89.89,0,0,1-.589.168m.505-15.913a1.28,1.28,0,0,0-.8.295,1.222,1.222,0,0,0-.253.926c-.042,1.684-.126,3.41-.211,5.052-.042.674-.042,1.305-.084,1.979s-.042,1.389-.084,2.063c-.042,1.6-.126,3.242-.211,4.841-.042.716,0,1.263,1.052,1.221h.084a1.044,1.044,0,0,0,.758-.295,1.258,1.258,0,0,0,.253-.968v-.126c.042-1.473.126-2.947.168-4.378.084-2.526.211-5.094.295-7.62,0-.379.042-.547.168-.674a.756.756,0,0,1,.547-.168h.084l5.978-.253c1.979-.084,4-.211,5.978-.253h.042c.884-.042.968-.589,1.01-1.137v-.084a.891.891,0,0,0-.168-.8c-.168-.168-.379-.21-.8-.21-5.01.21-9.514.421-13.808.589h0" transform="translate(-528.36 -532.995)" fill="#fcd327"/>
                    <path id="Path_162" data-name="Path 162" d="M630.774,531.893c-.463.042-.632.126-.674.758,0,.295,0,.463.084.547.084.126.337.084.589.084h.168c1.516-.084,3.031-.126,4.5-.211,2.358-.126,4.8-.211,7.157-.379a1.329,1.329,0,0,1,.926.21,1.125,1.125,0,0,1,.211.926c-.126,2.063-.211,4.126-.253,6.146-.084,2.021-.168,4.126-.295,6.146-.042.589.126.589.674.589h.211q.316,0,.379-.126a.79.79,0,0,0,.126-.547c.168-4.336.337-8.967.589-14.229,0-.295,0-.463-.084-.547a.431.431,0,0,0-.421-.084h-.084c-.21,0-.379.042-.589.042-1.473.084-2.989.168-4.42.211-.631.042-1.263.042-1.894.084-.589.042-1.221.042-1.81.084-1.6.084-3.284.168-4.883.211-.042.042-.126.042-.211.084" transform="translate(-586.276 -530.714)" fill="#fcd327"/>
                    <path id="Path_163" data-name="Path 163" d="M630.338,532.668c-.253,0-.505.042-.589-.084a.683.683,0,0,1-.084-.547c.042-.631.21-.758.674-.758h.211c1.642-.042,3.284-.126,4.883-.211.589-.042,1.221-.042,1.81-.084.631-.042,1.263-.042,1.894-.084,1.431-.084,2.947-.126,4.42-.211.21,0,.379-.042.589-.042h.084a.905.905,0,0,1,.421.084c.084.084.126.253.084.547-.253,5.262-.421,9.893-.589,14.229a.79.79,0,0,1-.126.547.514.514,0,0,1-.379.126h-.211c-.547,0-.716,0-.674-.589.126-2.063.211-4.126.295-6.146s.168-4.126.253-6.146a1.126,1.126,0,0,0-.211-.926,1.275,1.275,0,0,0-.926-.21c-2.4.126-4.8.253-7.157.379-1.516.084-3.031.126-4.5.211h-.126c0-.084,0-.084-.042-.084m.084-1.81c-.631.042-1.095.168-1.137,1.179a.972.972,0,0,0,.21.842,1.1,1.1,0,0,0,.926.168h.084c1.516-.084,3.031-.126,4.5-.21,2.357-.126,4.8-.211,7.157-.379.337,0,.547,0,.631.126a1,1,0,0,1,.126.631c-.126,2.063-.21,4.126-.295,6.146s-.168,4.084-.253,6.146c-.042,1.01.505.968,1.01.968h.21a.956.956,0,0,0,.674-.253,1.117,1.117,0,0,0,.253-.842c.168-4.336.337-8.967.589-14.229a1.159,1.159,0,0,0-.211-.842c-.168-.168-.379-.211-.8-.211-.211,0-.379.042-.589.042-1.473.084-2.947.168-4.42.21-.631.042-1.263.042-1.894.084-.589.042-1.221.042-1.81.084-1.6.084-3.242.168-4.883.21,0,.126-.042.126-.084.126" transform="translate(-585.798 -530.1)" fill="#fcd327"/>
                    <path id="Path_164" data-name="Path 164" d="M639.656,632h0c-.674.042-.8.126-.8.758-.042,2.021-.168,4.126-.253,6.1-.084,2.021-.168,4.083-.253,6.1a1.113,1.113,0,0,1-.295.926,1.147,1.147,0,0,1-.842.295h-.084c-2.021.084-4.126.168-6.146.253-1.937.084-3.873.168-5.852.253h-.042a.677.677,0,0,0-.463.126c-.084.084-.126.253-.126.589v.126c0,.463,0,.631.505.589,4.252-.211,8.8-.463,13.893-.674h.084c.211,0,.379-.042.421-.126a.79.79,0,0,0,.126-.547c.042-1.726.126-3.536.211-5.22l.084-1.894h0c.042-.674.042-1.347.084-1.979.042-1.642.126-3.326.211-5.01,0-.337,0-.547-.084-.631a1.007,1.007,0,0,0-.379-.042" transform="translate(-583.033 -589.102)" fill="#fcd327"/>
                    <path id="Path_165" data-name="Path 165" d="M636.677,645.693a1.147,1.147,0,0,0,.842-.295,1.346,1.346,0,0,0,.295-.926c.042-2.021.168-4.126.253-6.1.084-2.021.168-4.084.253-6.1,0-.631.168-.716.8-.758h.042c.253,0,.379,0,.463.084s.126.253.084.631c-.084,1.684-.168,3.368-.211,5.01-.042.674-.042,1.347-.084,1.979h0l-.084,1.894c-.084,1.726-.168,3.494-.211,5.22a.79.79,0,0,1-.126.547.559.559,0,0,1-.421.126h-.084c-5.094.211-9.641.421-13.892.674-.505.042-.505-.126-.505-.589v-.126c0-.337.042-.505.126-.589a.608.608,0,0,1,.463-.126h.042c1.937-.084,3.873-.168,5.852-.253,2.021-.084,4.084-.21,6.146-.253-.126-.042-.084-.042-.042-.042m2.4-14.608h0c-.8.042-1.179.253-1.221,1.179-.042,2.021-.168,4.126-.253,6.1-.084,2.021-.168,4.084-.253,6.1,0,.337-.042.547-.168.632a1.027,1.027,0,0,1-.547.168h-.126c-2.063.084-4.126.168-6.146.253-1.937.084-3.873.168-5.852.253h-.042a.879.879,0,0,0-.716.295,1.172,1.172,0,0,0-.253.884v.126c0,.463,0,1.01.884.968,4.252-.211,8.8-.463,13.892-.674h.042a.975.975,0,0,0,.758-.295,1.183,1.183,0,0,0,.253-.842c.042-1.726.126-3.494.21-5.22l.084-1.894c.042-.674.042-1.347.084-1.979.042-1.642.126-3.326.21-5.01,0-.421,0-.716-.21-.926,0-.084-.253-.168-.632-.126" transform="translate(-582.454 -588.565)" fill="#fcd327"/>
                    <path id="Path_166" data-name="Path 166" d="M528.147,638.176h0c-.589.042-.716.084-.758.631-.168,4.378-.337,9.051-.589,14.313,0,.253,0,.421.084.505s.211.084.463.084h.21l4.841-.253c.632-.042,1.305-.042,1.937-.084.758-.042,1.516-.084,2.231-.126,1.473-.084,2.989-.126,4.462-.211h.084a.761.761,0,0,0,.589-.168,1.225,1.225,0,0,0,.168-.589c0-.632-.084-.716-.716-.674-1.937.084-3.831.21-5.768.295-2.021.084-4.084.21-6.1.295a1.269,1.269,0,0,1-.884-.21,1.216,1.216,0,0,1-.211-.884c.084-2.021.168-4.041.253-6.02.084-2.063.168-4.21.295-6.315,0-.295,0-.463-.084-.547a.735.735,0,0,0-.505-.042" transform="translate(-526.463 -592.668)" fill="#fcd327"/>
                    <path id="Path_167" data-name="Path 167" d="M526.968,653.155h-.084c-.253,0-.421,0-.463-.084-.084-.084-.084-.253-.084-.505.253-5.262.421-9.935.589-14.313,0-.547.168-.589.716-.631h.042c.295,0,.463,0,.547.084s.126.253.084.547c-.126,2.1-.211,4.252-.295,6.315-.084,1.979-.168,4-.253,6.02a.867.867,0,0,0,1.094,1.095c2.021-.126,4.084-.211,6.1-.295,1.937-.084,3.831-.168,5.768-.295.631-.042.716.084.716.674a.761.761,0,0,1-.168.589c-.084.126-.295.126-.589.168h-.084c-1.473.042-2.989.126-4.462.211-.758.042-1.516.084-2.231.126-.631.042-1.305.042-1.937.084-1.6.084-3.242.126-4.841.253-.042-.084-.126-.042-.168-.042m.8-15.955h-.084c-.589.042-1.095.126-1.095,1.052-.168,4.378-.337,9.051-.589,14.313,0,.253,0,.589.211.758a1,1,0,0,0,.758.21c1.684-.084,3.41-.168,5.052-.253.631-.042,1.305-.042,1.937-.084.758-.042,1.516-.084,2.231-.126,1.473-.084,2.989-.126,4.462-.211h.126a1.111,1.111,0,0,0,.8-.295,1.451,1.451,0,0,0,.295-.884c.042-.842-.253-1.137-1.095-1.095-1.937.084-3.831.211-5.767.295-2.021.084-4.084.21-6.1.295-.337,0-.505,0-.589-.084a.751.751,0,0,1-.084-.589c.084-2.021.168-4.042.253-6.02.084-2.063.168-4.21.295-6.315a1.128,1.128,0,0,0-.21-.842,1.526,1.526,0,0,0-.8-.126" transform="translate(-526 -592.113)" fill="#fcd327"/>
                    <path id="Path_168" data-name="Path 168" d="M635.163,611.8a.711.711,0,0,0-.421.126.982.982,0,0,0-.253.758,1.072,1.072,0,0,1-.253.8.842.842,0,0,1-.716.253h-.168a3.619,3.619,0,0,0-.674.042,8.86,8.86,0,0,0-1.052.084c-.168,0-.379.042-.547.042a2.59,2.59,0,0,0-.042,1.137c.126.126.547.126,1.263.084h.674a.716.716,0,0,0,.295-.042c.084,0,.168-.042.253-.042a.823.823,0,0,1,.589.168.984.984,0,0,1,.211.884,1.279,1.279,0,0,1-.337.884,1.26,1.26,0,0,1-.421.168h-.295c-.126,0-.21-.042-.295,0a.478.478,0,0,0-.337.126.946.946,0,0,0-.126.758,3.893,3.893,0,0,1-.042.968c-.042.547-.084.968.126,1.179a.629.629,0,0,0,.589.126.534.534,0,0,0,.253-.042h.126a.629.629,0,0,1,.421.126c.168.168.126.505.084.758a1.046,1.046,0,0,0-.042.337.865.865,0,0,1-.168.758.952.952,0,0,1-.547.253h-.505a1.165,1.165,0,0,0-.379.042h-.168v.253l-.042-.042a4.76,4.76,0,0,0,0,1.095h.505a.823.823,0,0,1,.295-.042.941.941,0,0,1,.631.168,1.251,1.251,0,0,1,.21,1.01,8.8,8.8,0,0,0-.042,1.052,7.143,7.143,0,0,1-.042.926c0,.168,0,.295.042.337s.126.042.253.042h.758a.322.322,0,0,0,.211-.084.544.544,0,0,0,.084-.337c.126-3.41.253-6.82.421-10.272l.168-4.5c0-.211,0-.295-.168-.337-.084.042-.253,0-.379,0" transform="translate(-586.791 -577.406)" fill="#fcd327"/>
                    <path id="Path_169" data-name="Path 169" d="M631.689,621.148l-.126.168v.337h.042l.084-.505m-1.347-8.462-.084.084v.168h.042l.042-.253m3.957-1.81a.857.857,0,0,0-.631.253,1.273,1.273,0,0,0-.421,1.094.732.732,0,0,1-.126.505.559.559,0,0,1-.421.126h-.126a3.62,3.62,0,0,0-.674.042c-.379.042-.716.042-1.095.084-.126,0-.295.042-.421.042h.211l-.716.716v-.295h-.337l-.042.042.379-.042c-.126.8-.168,1.179.042,1.431s.674.253,1.516.211h.674a.926.926,0,0,0,.337-.042,1.82,1.82,0,0,0,.211-.042c.168,0,.253,0,.337.084a.751.751,0,0,1,.084.589c-.042.253-.042.505-.168.589-.042.042-.084.042-.168.042h-.21a1.167,1.167,0,0,0-.379-.042.912.912,0,0,0-.589.211,1.608,1.608,0,0,0-.295,1.137,6.841,6.841,0,0,1-.042.884,1.825,1.825,0,0,0,.211,1.516,1.233,1.233,0,0,0,.884.253.716.716,0,0,0,.295-.042h.084c.084,0,.126,0,.168.042s0,.295,0,.421a1.889,1.889,0,0,0-.042.463.491.491,0,0,1-.042.379.321.321,0,0,1-.21.084h-.758l-.253.295v.126h.168c.126,0,.253-.042.379-.042h.505a.679.679,0,0,0,.547-.253.866.866,0,0,0,.168-.758,1.047,1.047,0,0,1,.042-.337.946.946,0,0,0-.084-.758.629.629,0,0,0-.421-.126h-.126c-.084,0-.168.042-.253.042a.931.931,0,0,1-.589-.126c-.211-.21-.168-.631-.126-1.179a8.481,8.481,0,0,0,.042-.968.946.946,0,0,1,.126-.758c.084-.084.168-.084.337-.126h.295c.084,0,.21.042.295,0a.54.54,0,0,0,.421-.168,1.358,1.358,0,0,0,.337-.884.957.957,0,0,0-.211-.884.823.823,0,0,0-.589-.168.533.533,0,0,0-.253.042c-.084,0-.211.042-.295.042h-.674c-.716.042-1.137.042-1.263-.084s-.042-.505.042-1.137c.168,0,.379-.042.547-.042.337-.042.716-.042,1.052-.084.211,0,.463-.042.674-.042h.168a1.144,1.144,0,0,0,.716-.253,1.072,1.072,0,0,0,.253-.8.982.982,0,0,1,.253-.758.711.711,0,0,1,.421-.126,2.415,2.415,0,0,1,.505.042c.168.042.168.084.168.337l-.168,4.5c-.126,3.41-.295,6.82-.421,10.272a.544.544,0,0,1-.084.337c-.042.042-.126.042-.211.084H633.5c-.126,0-.211,0-.253-.042s-.042-.168-.042-.337a6.828,6.828,0,0,0,.042-.926,8.8,8.8,0,0,1,.042-1.052,1.089,1.089,0,0,0-.21-1.01,1.193,1.193,0,0,0-.926-.126h-.505a4.764,4.764,0,0,1,0-1.095l-.253-.21h-.126a6.343,6.343,0,0,0-.042,1.263h-.295l.042.042h.253V623l.589.758h-.253v.253l.126.126-.042-.379h.337a.253.253,0,0,0,.168-.042c.084,0,.168-.042.253-.042.168,0,.295,0,.337.084.126.084.126.337.084.716a9.9,9.9,0,0,0-.042,1.095,6.215,6.215,0,0,1-.042.884.616.616,0,0,0,.168.631c.126.168.337.168.547.168h.716a.667.667,0,0,0,.505-.211.914.914,0,0,0,.211-.674c.126-3.41.253-6.82.421-10.23l.168-4.462v-.042c0-.211.042-.589-.421-.716a2.507,2.507,0,0,0-.758-.042" transform="translate(-585.928 -576.86)" fill="#fcd327"/>
                    <path id="Path_170" data-name="Path 170" d="M608.405,600.255q-.316,0-.379.126a1.019,1.019,0,0,0-.126.589v.126c0,.253,0,.463.084.547a.712.712,0,0,0,.379.084h.042c.337-.042.674-.042,1.052-.084l2.442-.126c.421,0,.8-.042,1.221-.042v-.042h.211c.463,0,.926-.042,1.389-.084,1.179-.042,2.4-.126,3.578-.126h.042a.514.514,0,0,0,.379-.126.931.931,0,0,0,.126-.589v-.126c0-.463,0-.632-.505-.589-3.115.168-6.357.337-9.935.463h0" transform="translate(-573.421 -570.449)" fill="#fcd327"/>
                    <path id="Path_171" data-name="Path 171" d="M612.663,601.12h0m-4.925.042c-.168,0-.295,0-.379-.084s-.084-.295-.084-.547V600.4c0-.253,0-.463.126-.589a.515.515,0,0,1,.379-.126h.042c3.578-.126,6.778-.295,9.851-.463.505-.042.505.126.505.589v.126a1.018,1.018,0,0,1-.126.589c-.084.084-.168.084-.379.126h-.042l-3.578.126c-.463.042-.926.042-1.389.084h-.211v.042c-.421,0-.8.042-1.221.042-.8.042-1.6.084-2.442.126a9.616,9.616,0,0,0-1.052.084h0m.084-1.852a.889.889,0,0,0-.674.253,1.357,1.357,0,0,0-.253.884v.126c0,.295-.042.631.168.842a.769.769,0,0,0,.674.168h.042c.337-.042.674-.042,1.01-.084l2.4-.126c.463,0,.968-.042,1.431-.042h.042c.463-.042.926-.042,1.347-.084,1.179-.042,2.357-.126,3.536-.126h.084a.739.739,0,0,0,.631-.253,1.23,1.23,0,0,0,.253-.884v-.126c0-.463.042-1.052-.884-.968h0c-3.031.168-6.273.337-9.851.463.084-.042.042-.042.042-.042" transform="translate(-572.838 -569.925)" fill="#fcd327"/>
                    <path id="Path_172" data-name="Path 172" d="M559.307,602.505a.544.544,0,0,0-.337.084c-.084.084-.084.253-.084.463v.21c0,.253-.042.463.042.547a.454.454,0,0,0,.337.084h.042c.337-.042.674-.042,1.01-.084l2.484-.126c.463,0,.926-.042,1.389-.042l1.221-.084c1.263-.084,2.568-.126,3.873-.168h.042a.652.652,0,0,0,.337-.084c.084-.084.084-.253.084-.463v-.211c0-.253.042-.463-.042-.547a.711.711,0,0,0-.379-.084c-3.284.168-6.651.337-9.935.463a.13.13,0,0,1-.084.042" transform="translate(-545.035 -571.731)" fill="#fcd327"/>
                    <path id="Path_173" data-name="Path 173" d="M558.753,603.4c-.126,0-.295,0-.337-.084-.084-.084-.084-.295-.042-.547v-.211c0-.21,0-.379.084-.463a.544.544,0,0,1,.337-.084h.042c3.284-.126,6.652-.295,9.935-.463.211,0,.337,0,.379.084.084.084.084.295.042.547v.211c0,.21,0,.379-.084.463a.544.544,0,0,1-.337.084h-.042c-1.3.042-2.61.084-3.873.168l-1.221.084c-.463,0-.926.042-1.389.042-.8.042-1.642.084-2.484.126a8.174,8.174,0,0,0-1.01.084c.042-.042,0-.042,0-.042m.084-1.852a.739.739,0,0,0-.631.253,1,1,0,0,0-.211.758v.211c0,.295-.042.631.168.842a.718.718,0,0,0,.631.168h.042c.337-.042.674-.042,1.01-.084.842-.042,1.642-.084,2.442-.126.463,0,.926-.042,1.389-.042l1.221-.084c1.263-.084,2.568-.126,3.831-.168h.084a.833.833,0,0,0,.589-.211,1,1,0,0,0,.211-.758V602.1c0-.295.042-.631-.168-.842a.813.813,0,0,0-.674-.168c-3.284.168-6.652.337-9.935.463h0" transform="translate(-544.524 -571.195)" fill="#fcd327"/>
                    <path id="Path_174" data-name="Path 174" d="M596.226,564.542a.559.559,0,0,0-.421.126.608.608,0,0,0-.126.463c-.042,1.221-.084,2.442-.126,3.62-.042.463-.042.926-.042,1.389,0,.421-.042.842-.042,1.263-.042,1.263-.084,2.568-.168,3.831,0,.211,0,.379.084.463s.21.084.505.084h.084c.505-.042.674-.042.674-.589.126-3.578.253-6.9.421-10.146.042-.547-.126-.547-.632-.547h-.084a.155.155,0,0,1-.126.042" transform="translate(-566.126 -550.018)" fill="#fcd327"/>
                    <path id="Path_175" data-name="Path 175" d="M595.3,575.2c-.295,0-.421,0-.505-.084s-.084-.211-.084-.463c.084-1.305.126-2.61.168-3.831,0-.421.042-.842.042-1.263,0-.463.042-.926.042-1.389.042-1.179.126-2.4.126-3.62a.677.677,0,0,1,.126-.463.559.559,0,0,1,.421-.126h.211c.505,0,.674,0,.631.547-.168,3.242-.295,6.567-.421,10.146,0,.547-.168.547-.674.589l-.084-.042m.337-11.661a1.143,1.143,0,0,0-.716.253,1.029,1.029,0,0,0-.253.758c-.042,1.221-.084,2.442-.126,3.62-.042.463-.042.926-.042,1.389,0,.421-.042.842-.042,1.263-.042,1.263-.084,2.568-.168,3.831a1.023,1.023,0,0,0,.168.758.9.9,0,0,0,.758.168h.126c.463-.042,1.052-.084,1.095-1.01.126-3.578.253-6.9.421-10.146.042-.968-.547-.926-1.01-.926h-.084a.155.155,0,0,1-.126.042" transform="translate(-565.532 -549.439)" fill="#fcd327"/>
                    <path id="Path_176" data-name="Path 176" d="M594.01,615.1a.629.629,0,0,0-.421.126c-.084.084-.084.211-.126.421,0,1.221-.084,2.442-.126,3.62-.042.505-.042,1.01-.084,1.516-.042.547-.042,1.052-.084,1.6-.042,1.137-.084,2.273-.168,3.41,0,.253,0,.421.084.505a.544.544,0,0,0,.337.084h.337c.421-.042.547-.042.589-.547.084-3.242.253-6.567.421-10.23,0-.21,0-.337-.084-.379-.084-.084-.295-.084-.505-.084h-.084c.042-.042-.042-.042-.084-.042" transform="translate(-564.794 -579.316)" fill="#fcd327"/>
                    <path id="Path_177" data-name="Path 177" d="M592.969,625.761c-.168,0-.295,0-.337-.084-.084-.084-.084-.253-.084-.505.084-1.137.126-2.315.168-3.41,0-.547.042-1.052.084-1.6.042-.505.042-1.01.084-1.516.042-1.179.126-2.4.126-3.62a.559.559,0,0,1,.126-.421.628.628,0,0,1,.421-.126h.211c.253,0,.421,0,.505.084a.711.711,0,0,1,.084.379c-.168,3.663-.337,6.988-.421,10.23,0,.505-.168.505-.589.547h-.211a.319.319,0,0,1-.168.042m.505-11.661a.8.8,0,0,0-.674.253,1.115,1.115,0,0,0-.253.716c0,1.179-.084,2.4-.126,3.62-.042.505-.042,1.01-.084,1.516-.042.547-.042,1.052-.084,1.6-.042,1.137-.084,2.273-.168,3.41a.92.92,0,0,0,.21.8.853.853,0,0,0,.631.168h.337c.379-.042.926-.084.968-.968.084-3.242.253-6.567.421-10.23a.928.928,0,0,0-.168-.674.891.891,0,0,0-.8-.168H593.6c0-.042-.042-.042-.126-.042" transform="translate(-564.258 -578.737)" fill="#fcd327"/>
                    <path id="Path_178" data-name="Path 178" d="M620.242,630.324a1.031,1.031,0,0,1,.042.631.834.834,0,0,0,.042.674.677.677,0,0,0,.463.126.823.823,0,0,0,.295-.042c.168-.042.337-.042.505-.084h0a2.4,2.4,0,0,1,.042-.547.758.758,0,0,0-.084-.674c-.084-.084-.211-.084-.379-.084a.534.534,0,0,0-.253.042.716.716,0,0,1-.295.042.454.454,0,0,1-.379-.084m-.042-1.81a.809.809,0,0,1-.505.168h-.084c-.337.042-.631.084-.968.126l-.042,1.305h.463a.821.821,0,0,0,.295-.042h.168a.911.911,0,0,1,.505.084,1.067,1.067,0,0,1-.084-.716,1.736,1.736,0,0,1,.253-.926m-1.389-3.284-.042,1.3h.042c.168,0,.295.042.463.042a1.214,1.214,0,0,1,1.095.421,1.423,1.423,0,0,1,.042,1.263l-.126.253.042-.042a.671.671,0,0,1,.505-.168h.547a.478.478,0,0,0,.337-.126.789.789,0,0,0,.084-.632,1.224,1.224,0,0,1,.211-.926.706.706,0,0,1,.589-.253h.547a.321.321,0,0,0,.21-.084c.126-.084.168-.337.168-.674.042-.295,0-.463-.084-.547s-.21-.126-.463-.084h-.084c-.379.042-.758.042-1.095.084-.631.042-1.263.084-1.894.084-.379.042-.716.042-1.095.084" transform="translate(-579.617 -585.026)" fill="#fcd327"/>
                    <path id="Path_179" data-name="Path 179" d="M621.5,630.973l-.379.042v.042h.295l.084-.084m-3.831-1.052v.253h0v-.253h0m-.379-.421-.253.042h0l.253-.042h0m-.21-1.305-.084.084.337-.042v-.042h-.253m.716-.716h0l-.042.295h.042v-.295m-.758-1.642.126.084a.717.717,0,0,0,.295-.042v-.042h-.421m.463-1.221h0m2.4,6.525a.608.608,0,0,1-.463-.126c-.126-.126-.126-.337-.042-.674a1.031,1.031,0,0,0-.042-.631.692.692,0,0,0,.421.084.821.821,0,0,0,.295-.042c.084,0,.168-.042.253-.042a.84.84,0,0,1,.379.084.864.864,0,0,1,.084.674,2.588,2.588,0,0,0-.042.547h0a2.111,2.111,0,0,0-.505.084,1.187,1.187,0,0,1-.337.042m-1.726-1.684h-.463l.042-1.305c.337-.042.631-.084.968-.126h.084a.9.9,0,0,0,.505-.168,1.693,1.693,0,0,0-.253.884,1.97,1.97,0,0,0,.084.716.911.911,0,0,0-.505-.084h-.168a.4.4,0,0,1-.295.084m1.179-1.642a.686.686,0,0,0,.126-.253,1.423,1.423,0,0,0-.042-1.263,1.214,1.214,0,0,0-1.095-.421,1.726,1.726,0,0,1-.463-.042h-.042l.042-1.305c.379,0,.716-.042,1.095-.042.631-.042,1.263-.042,1.894-.084.379-.042.758-.042,1.095-.084h.084c.253,0,.421,0,.463.084.084.084.126.253.084.547a1.494,1.494,0,0,1-.168.674.321.321,0,0,1-.21.084h-.547a.707.707,0,0,0-.589.253,1.069,1.069,0,0,0-.21.926.789.789,0,0,1-.084.631.478.478,0,0,1-.337.126H619.9a.776.776,0,0,0-.547.168h0m-1.263-3.62-.589.884-.042.631.674.589-.337.042v.211h.042V626.3c.168,0,.337.042.463.042.421,0,.674.084.8.253a1.036,1.036,0,0,1,0,.884c-.042.168-.084.168-.295.168h-.084c-.295.042-.589.084-.926.126h.253l-.716.716-.042.8.337.295.337.337h.21a1.047,1.047,0,0,0,.337-.042h.168c.168,0,.253,0,.295.084.084.084.042.253.042.379a1.39,1.39,0,0,0,.126,1.052.871.871,0,0,0,.758.21,1.047,1.047,0,0,0,.337-.042c.084,0,.168-.042.253-.042h-.126l.716-.674a.717.717,0,0,1,.042-.295,1.1,1.1,0,0,0-.168-1.01.724.724,0,0,0-.631-.211.717.717,0,0,0-.295.042c-.084,0-.126.042-.211.042-.126,0-.21,0-.253-.042-.084-.084-.126-.253-.084-.589a1.068,1.068,0,0,1,.168-.674.356.356,0,0,1,.253-.084h.253c.126,0,.253.042.337,0a.707.707,0,0,0,.589-.253,1.166,1.166,0,0,0,.253-.968.624.624,0,0,1,.084-.547c.084-.084.211-.084.295-.126h.547a.9.9,0,0,0,.505-.168,1.536,1.536,0,0,0,.337-1.01,1.147,1.147,0,0,0-.168-.842c-.168-.211-.463-.211-.758-.211h-.084c-.379.042-.758.042-1.094.084-.632.042-1.263.084-1.894.084-.421.084-.716.084-1.01.126m-.168-.211v.211h0v-.211" transform="translate(-578.69 -584.412)" fill="#fcd327"/>
                    <path id="Path_180" data-name="Path 180" d="M610.433,638.426a9.156,9.156,0,0,0-.084,3.2,2.384,2.384,0,0,1,.758-.126h1.052a.926.926,0,0,0,.337-.042.533.533,0,0,0,.253-.042.916.916,0,0,1,.716.211,1.232,1.232,0,0,1,.168.926v.084c-.042.126-.084.463,0,.463a2.9,2.9,0,0,0,.758.084.559.559,0,0,0,.421-.126c.253-.168.21-.463.168-.884,0-.126-.042-.21-.042-.295,0-.042,0-.126-.042-.126s-.084-.042-.126-.042c-.084,0-.168.042-.253.042-.042,0-.126.042-.168.042h-.168a.777.777,0,0,1-.674-.21.947.947,0,0,1-.168-.884c.042-.589.084-1.221.084-1.81V638.3l-2.989.126" transform="translate(-574.775 -592.75)" fill="#fcd327"/>
                    <path id="Path_181" data-name="Path 181" d="M609.631,640.6a10.3,10.3,0,0,1,.084-3.2l2.9-.126v.589a13.035,13.035,0,0,1-.084,1.81,1.081,1.081,0,0,0,.168.884.99.99,0,0,0,.674.211h.168c.042,0,.126-.042.168-.042.084,0,.168-.042.253-.042.042,0,.126,0,.126.042a.155.155,0,0,1,.042.126.717.717,0,0,0,.042.295c.042.421.042.758-.168.884a1.711,1.711,0,0,1-.421.126,2.9,2.9,0,0,1-.758-.084c-.084,0-.042-.337,0-.463v-.084a.951.951,0,0,0-.168-.926.916.916,0,0,0-.716-.211.534.534,0,0,0-.253.042c-.126,0-.211.042-.337.042h-1.052a6,6,0,0,0-.674.126m3.031-4v.253h-.253l-2.442.126-.589.758-.042-.379h-.295L609,637.4h.337a11.788,11.788,0,0,0-.126,3.2.253.253,0,0,1,.168.042l.084-.084.211.211v.379l-.126-.042v.042l.295.253-.084-.421a3.8,3.8,0,0,1,.674-.126h1.052a1.167,1.167,0,0,0,.379-.042.379.379,0,0,0,.21-.042.906.906,0,0,1,.421.084.635.635,0,0,1,.042.589v.084c-.042.295-.168.8.295.926a3.459,3.459,0,0,0,.884.084,1.394,1.394,0,0,0,.631-.168c.505-.295.421-.884.379-1.3,0-.084-.042-.211-.042-.295a.643.643,0,0,0-.168-.421.626.626,0,0,0-.379-.084c-.126,0-.211.042-.295.042a.155.155,0,0,0-.126.042h-.168c-.211,0-.337,0-.421-.084a.752.752,0,0,1-.084-.589c.042-.631.084-1.263.084-1.852v-.547h.337l-.337-.337-.463-.337h0m-2.863.126-.084.084v.168h.042l.042-.253" transform="translate(-574.058 -591.765)" fill="#fcd327"/>
                    <path id="Path_182" data-name="Path 182" d="M608.735,616.868c.168.21.168.505.084.968-.042.21-.042.379.042.463a.566.566,0,0,0,.379.084h.084l1.516-.126h.295a1.434,1.434,0,0,0,.421-.042h.21l.042-1.263h-.547c-.379,0-.8.042-1.221.042-.21,0-.379.042-.589.042h-.126a1.052,1.052,0,0,1-.589-.168m-.8-3.368a.805.805,0,0,0-.589.168.518.518,0,0,0-.084.463,10.093,10.093,0,0,1-.084,1.937.752.752,0,0,0,.084.589.236.236,0,0,0,.253.042.458.458,0,0,0,.21-.042,1.047,1.047,0,0,1,.337-.042.891.891,0,0,1,.589.168,1.034,1.034,0,0,1-.126-.758,6.224,6.224,0,0,0,.042-.884,8.121,8.121,0,0,1,.042-1.01.846.846,0,0,0-.042-.505.946.946,0,0,0-.631-.126" transform="translate(-572.993 -578.39)" fill="#fcd327"/>
                    <path id="Path_183" data-name="Path 183" d="M611.686,616.289h.211c-.042-.042-.126,0-.211,0m-.379-.758v.337h.042a.821.821,0,0,1-.042-.337h0m-2.652,2.231c-.168,0-.337,0-.379-.084-.084-.084-.084-.21-.042-.463a1.2,1.2,0,0,0-.084-.968,1.148,1.148,0,0,0,.674.168h.126c.211,0,.379-.042.589-.042a11.843,11.843,0,0,1,1.221-.042h.547l-.042,1.263h-.211a1.434,1.434,0,0,0-.421.042h-.295c-.505.042-1.01.042-1.516.126h-.168m-1.726-1.642c-.126,0-.211,0-.253-.042a.752.752,0,0,1-.084-.589,15.225,15.225,0,0,0,.084-1.937.982.982,0,0,1,.084-.463c.084-.084.253-.126.589-.168.253,0,.547,0,.631.084s.084.253.042.505a8.109,8.109,0,0,0-.042,1.01,6.215,6.215,0,0,1-.042.884,1.034,1.034,0,0,0,.126.758.823.823,0,0,0-.589-.168c-.126,0-.211.042-.337.042a.272.272,0,0,1-.211.084m.421-3.62a1.484,1.484,0,0,0-.884.295,1.074,1.074,0,0,0-.211.8,9.244,9.244,0,0,1-.084,1.852.956.956,0,0,0,.211.884.714.714,0,0,0,.547.168.534.534,0,0,0,.253-.042c.084,0,.211-.042.295-.042.126,0,.295,0,.337.084.126.126.084.421.042.631a.811.811,0,0,0,.126.8.746.746,0,0,0,.716.21h.126l1.516-.126h.884v.463l.589-.884v-.042H611.6v-.211l.042-.8-.631-.631h-.253c-.421,0-.8.042-1.221.042-.211,0-.421.042-.589.042h-.084c-.211,0-.379,0-.463-.084s-.084-.253-.084-.505a7.134,7.134,0,0,0,.042-.926,6.517,6.517,0,0,1,.042-.926,1.105,1.105,0,0,0-.126-.8,1.159,1.159,0,0,0-.926-.253" transform="translate(-572.408 -577.811)" fill="#fcd327"/>
                    <path id="Path_184" data-name="Path 184" d="M619.805,612.826a.491.491,0,0,0-.295.084.606.606,0,0,0-.084.379c0,.674-.042,1.347-.084,2.021,0,.211-.042.463-.042.716h.758a.674.674,0,0,0,.463-.168.946.946,0,0,0,.126-.758.725.725,0,0,1,.168-.674.739.739,0,0,1,.631-.253h.126c.589,0,1.221-.042,1.81-.042h.505v-.084a3.625,3.625,0,0,1,.042-.674c.042-.295.042-.463-.042-.547a.732.732,0,0,0-.505-.126h-.126c-.337.042-.674.042-1.01.084-.8.042-1.642.084-2.4.084,0-.042,0-.042-.042-.042" transform="translate(-580.022 -577.927)" fill="#fcd327"/>
                    <path id="Path_185" data-name="Path 185" d="M618.416,615.289c0-.253.042-.463.042-.716.042-.674.084-1.347.084-2.021a.841.841,0,0,1,.084-.379.4.4,0,0,1,.295-.084h.084c.758,0,1.6-.042,2.4-.084a8.172,8.172,0,0,0,1.01-.084h.126c.295,0,.463,0,.505.126.084.084.084.295.042.547a3.62,3.62,0,0,0-.042.674v.084h-.505c-.589.042-1.179.042-1.81.042H620.6a.739.739,0,0,0-.632.253.859.859,0,0,0-.168.674,1.034,1.034,0,0,1-.126.758.673.673,0,0,1-.463.168H618.5l-.084.042m.505-3.578a.85.85,0,0,0-.589.211.861.861,0,0,0-.21.674c0,.674-.042,1.347-.084,1.979v.674H617.7l.042.042.631.632h0v-.295h.8a1.044,1.044,0,0,0,.758-.295,1.425,1.425,0,0,0,.253-1.095.82.82,0,0,1,.042-.337c.042-.084.168-.084.379-.126h.084c.589,0,1.221-.042,1.81-.042h.547v.295l.716-.716h-.295v-.168a2.051,2.051,0,0,1,.042-.505.957.957,0,0,0-.126-.884,1.183,1.183,0,0,0-.842-.253h-.126c-.337.042-.716.042-1.052.084-.8.042-1.558.084-2.315.084a.326.326,0,0,1-.126.042" transform="translate(-579.096 -577.232)" fill="#fcd327"/>
                    <path id="Path_186" data-name="Path 186" d="M608.793,629.711c-.211,0-.379.042-.421.126-.084.084-.084.253-.084.505a1.125,1.125,0,0,1-.21.968.857.857,0,0,1-.631.253h-.589a.322.322,0,0,0-.211.084,1.026,1.026,0,0,0-.168.547c-.042.379,0,.589.084.674a.652.652,0,0,0,.337.084.533.533,0,0,0,.253-.042.927.927,0,0,1,.337-.042h.337c-.042-.8-.042-1.179.211-1.473.211-.253.547-.295,1.137-.337a1.887,1.887,0,0,0,.463-.042c.463,0,.926-.042,1.389-.042h.211l.042-1.473c-.211,0-.379.042-.589.042-.295.042-.589.042-.842.084a6.8,6.8,0,0,1-.926,0c0,.084-.084.084-.126.084" transform="translate(-572.588 -587.654)" fill="#fcd327"/>
                    <path id="Path_187" data-name="Path 187" d="M606.934,630.794a.739.739,0,0,0,.631-.253,1.036,1.036,0,0,0,.21-.968.579.579,0,0,1,.084-.505.559.559,0,0,1,.421-.126h1.095a5.181,5.181,0,0,0,.842-.084c.168,0,.379-.042.589-.042l-.042,1.474h-.21c-.463,0-.926,0-1.389.042a1.728,1.728,0,0,0-.463.042c-.589.042-.926.084-1.137.337-.253.253-.253.674-.21,1.474h-.337a.928.928,0,0,0-.337.042c-.084,0-.168.042-.253.042-.168,0-.295,0-.337-.084a.948.948,0,0,1-.084-.674,1.027,1.027,0,0,1,.168-.547c.042-.042.126-.042.211-.084h.211a.566.566,0,0,1,.337-.084m3.957-2.694v.253a10264.473,10264.473,0,0,0-.589.084c-.295.042-.547.042-.842.084a6.2,6.2,0,0,1-.884,0h-.211a.923.923,0,0,0-.716.295.978.978,0,0,0-.168.884.817.817,0,0,1-.084.631.414.414,0,0,1-.337.126h-.589a.766.766,0,0,0-.463.168,1.252,1.252,0,0,0-.337.842,1.219,1.219,0,0,0,.211,1.01,1.095,1.095,0,0,0,.884.126c.084,0,.211-.042.295-.042h.379l.042.379.589-.758.042-.042h-.21v-.168c-.042-.547-.042-.884.084-1.01.084-.126.421-.168.842-.168a1.886,1.886,0,0,0,.463-.042c.463,0,.884-.042,1.347-.042h.253v.337l.042-.042.716-.716h-.337v-.253l.042-1.01v-.211l.337-.042-.8-.674h0" transform="translate(-572.119 -586.844)" fill="#fcd327"/>
                    <path id="Path_188" data-name="Path 188" d="M626.684,641.842h0c-.042.379-.042.674-.084,1.01,0,.168,0,.253.042.295s.084.042.168.042h.084c.084,0,.211-.042.295-.042a.87.87,0,0,1,.674.21,1.156,1.156,0,0,1,.168,1.052c-.042.21-.042.337.042.421.084.126.379.126.632.126h.084a.608.608,0,0,0,.463-.126.731.731,0,0,0,.126-.505c0-.674.042-1.305.042-1.979a2.4,2.4,0,0,1,.042-.547l-2.778.042" transform="translate(-584.249 -594.776)" fill="#fcd327"/>
                    <path id="Path_189" data-name="Path 189" d="M625.9,641.931c-.084,0-.126,0-.168-.042s-.042-.168-.042-.295c.042-.337.042-.631.084-.968v-.042l2.736-.126a2.4,2.4,0,0,1-.042.547,15.364,15.364,0,0,0-.042,1.979.731.731,0,0,1-.126.505.608.608,0,0,1-.463.126h-.084c-.253,0-.547,0-.631-.126a.612.612,0,0,1-.042-.421,1.156,1.156,0,0,0-.168-1.052.869.869,0,0,0-.674-.211.822.822,0,0,0-.295.042c0,.084,0,.084-.042.084m2.652-2.231v.379H628.3l-2.147.084h-.295v-.253l-.042.042-.716.674h.379v.042c-.042.337-.042.631-.084.968a.616.616,0,0,0,.168.631.629.629,0,0,0,.421.126h.126c.084,0,.168-.042.253-.042a.84.84,0,0,1,.379.084c.126.126.126.337.042.674a.878.878,0,0,0,.084.758,1.159,1.159,0,0,0,.926.253h.126a.923.923,0,0,0,.716-.295,1.117,1.117,0,0,0,.253-.842c0-.631.042-1.305.042-1.937V640.5h.253l-.631-.8" transform="translate(-583.38 -593.56)" fill="#fcd327"/>
                    <path id="Path_190" data-name="Path 190" d="M640.333,599.3h-.126c-.295.042-.589.084-.674.211-.084.084-.042.295,0,.421v.084c-.042.295-.084.589.042.674.042.084.168.084.379.084h.253c.547-.042.716-.084.716-.674-.042-.631-.084-.8-.589-.8" transform="translate(-591.709 -570.168)" fill="#fcd327"/>
                    <path id="Path_191" data-name="Path 191" d="M639.395,600.241c-.168,0-.295,0-.379-.084a1.1,1.1,0,0,1-.042-.674V599.4a.713.713,0,0,1,0-.421c.084-.126.379-.168.674-.211h.126c.505-.042.547.168.547.758s-.168.631-.716.674h-.126a.13.13,0,0,1-.084.042m.379-1.852h-.126c-.421.042-.758.084-.968.379a1.034,1.034,0,0,0-.126.758c-.042.379-.084.758.126.968a.915.915,0,0,0,.674.211h.253c.505-.042,1.095-.126,1.095-1.137,0-.716-.084-1.263-.926-1.179" transform="translate(-591.15 -569.635)" fill="#fcd327"/>
                    <path id="Path_192" data-name="Path 192" d="M595.5,601.477h0c-.379.042-.589.042-.674.168a.731.731,0,0,0-.126.505c0,.337,0,.589.126.674.084.084.211.084.421.084h.084c.253-.042.547-.084.631-.211.084-.084.084-.253.042-.463v-.084a.838.838,0,0,0-.042-.589c-.042-.084-.211-.126-.463-.084" transform="translate(-565.778 -571.419)" fill="#fcd327"/>
                    <path id="Path_193" data-name="Path 193" d="M594.769,602.338c-.211,0-.337,0-.421-.084-.126-.126-.126-.337-.126-.674a.731.731,0,0,1,.126-.505c.084-.126.295-.126.631-.168h.042a.731.731,0,0,1,.505.126c.084.084.084.295.042.589v.084c.042.253.042.379-.042.463-.084.126-.379.168-.631.21-.084-.042-.084-.042-.126-.042m.295-1.852h0a1.558,1.558,0,0,0-.968.295.92.92,0,0,0-.211.8c0,.421,0,.758.253.968a.915.915,0,0,0,.716.168h.084a1.363,1.363,0,0,0,.968-.379,1.034,1.034,0,0,0,.126-.758,1.109,1.109,0,0,0-.126-.884,1.062,1.062,0,0,0-.842-.211" transform="translate(-565.3 -570.848)" fill="#fcd327"/>
                    <path id="Path_194" data-name="Path 194" d="M550.726,603.5h-.211a1.447,1.447,0,0,0-.631.168.613.613,0,0,0-.042.421v.084c-.042.295-.084.589.042.674.042.084.168.084.337.084h.126a.38.38,0,0,0,.211-.042c.253-.042.421-.042.505-.168.084-.084.084-.253.084-.463v-.211c0-.253,0-.463-.126-.547,0,.042-.126,0-.295,0" transform="translate(-539.781 -572.6)" fill="#fcd327"/>
                    <path id="Path_195" data-name="Path 195" d="M549.753,604.437c-.168,0-.295,0-.337-.084-.126-.126-.084-.421-.042-.674v-.084c-.042-.211-.042-.337.042-.421.084-.126.337-.168.631-.168h.211c.168,0,.295,0,.337.084.084.084.084.295.126.547v.21a1.126,1.126,0,0,1-.084.463,1.172,1.172,0,0,1-.505.168.379.379,0,0,0-.211.042c-.084-.084-.126-.084-.168-.084m.505-1.852h-.253a1.175,1.175,0,0,0-.926.379.964.964,0,0,0-.126.716c-.042.379-.084.758.126.968a.871.871,0,0,0,.631.211h.168a.38.38,0,0,0,.211-.042,1.111,1.111,0,0,0,.8-.295,1.022,1.022,0,0,0,.211-.758v-.211a.976.976,0,0,0-.253-.842.825.825,0,0,0-.589-.126" transform="translate(-539.27 -572.063)" fill="#fcd327"/>
                    <path id="Path_196" data-name="Path 196" d="M606.19,647.116h0c-.168,0-.21.042-.253.211-.126.505-.168.8-.042.926.126.168.379.211.884.168h.042q.316,0,.379-.126a.606.606,0,0,0,.084-.379v-.126a1.454,1.454,0,0,1,.084-.716,2.028,2.028,0,0,0-.505,0h-.421a.741.741,0,0,1-.253.042" transform="translate(-572.216 -597.819)" fill="#fcd327"/>
                    <path id="Path_197" data-name="Path 197" d="M606.167,647.868h0c-.547.042-.8-.042-.926-.168-.126-.168-.084-.463.042-.926.042-.126.084-.21.21-.21h1.179a2.208,2.208,0,0,0-.084.716v.126c0,.168,0,.295-.084.379,0,.042-.126.084-.337.084m-.631-1.726a.6.6,0,0,0-.631.505,1.519,1.519,0,0,0,0,1.3c.168.295.547.379,1.179.337h0a.89.89,0,0,0,.716-.253.859.859,0,0,0,.168-.674v-.168c0-.168-.042-.379.042-.505v-.042l.126.042v-.379l-.21-.211-.084.084c-.042,0-.126-.042-.168-.042a1.2,1.2,0,0,0-.547,0h-.589" transform="translate(-571.604 -597.266)" fill="#fcd327"/>
                    <path id="Path_198" data-name="Path 198" d="M596.914,555.342c-.084,0-.126.042-.168.042-.126.084-.168.421-.168.758a.579.579,0,0,0,.084.505c.084.084.253.084.547.084.295-.042.547-.042.631-.168a.58.58,0,0,0,.084-.505c0-.295,0-.631-.126-.716a.253.253,0,0,0-.168-.042c-.084,0-.211.042-.295.042h-.421" transform="translate(-566.856 -544.691)" fill="#fcd327"/>
                    <path id="Path_199" data-name="Path 199" d="M596.653,556.188c-.295,0-.463,0-.547-.084s-.084-.253-.084-.505c.042-.337.042-.631.168-.758.042-.042.084-.042.168-.042a.823.823,0,0,1,.295.042h.084a.717.717,0,0,1,.295-.042c.084,0,.126,0,.168.042.126.084.126.421.126.716a1.209,1.209,0,0,1-.084.505c-.042.084-.253.084-.589.126m-.21-1.81a.711.711,0,0,0-.421.126,1.239,1.239,0,0,0-.337,1.052,1.084,1.084,0,0,0,.168.8,1.055,1.055,0,0,0,.8.211h.042c.337-.042.716-.042.926-.295a1.074,1.074,0,0,0,.211-.8c0-.421,0-.842-.295-1.01a.49.49,0,0,0-.421-.084c-.084,0-.211.042-.337.042a1.049,1.049,0,0,0-.337-.042" transform="translate(-566.342 -544.147)" fill="#fcd327"/>
                    <path id="Path_200" data-name="Path 200" d="M593.684,647.7h-.253c-.253.042-.463.042-.547.168-.084.084-.084.295-.084.463v.295c0,.21,0,.379.084.463.042.042.084.042.168.042a.534.534,0,0,0,.253-.042h.084c.126,0,.253.042.337.042a.608.608,0,0,0,.295-.084.887.887,0,0,0,.168-.589c0-.295,0-.547-.126-.631-.084-.126-.211-.126-.379-.126" transform="translate(-564.678 -598.192)" fill="#fcd327"/>
                    <path id="Path_201" data-name="Path 201" d="M592.516,648.552c-.084,0-.126,0-.168-.042-.084-.042-.084-.253-.084-.463v-.295a.833.833,0,0,1,.084-.463,1.19,1.19,0,0,1,.547-.168h.253c.168,0,.295,0,.337.084.126.084.126.337.126.631s-.042.505-.168.589a.49.49,0,0,1-.295.084,1.046,1.046,0,0,1-.337-.042h-.084a.711.711,0,0,1-.21.084m.631-1.852H592.9a1.175,1.175,0,0,0-.842.337,1.023,1.023,0,0,0-.168.758v.253c0,.295,0,.589.21.758a.378.378,0,0,0,.379.084c.084,0,.211-.042.295-.042.126,0,.253.042.379.042a.886.886,0,0,0,.547-.211,1.168,1.168,0,0,0,.295-.926,1.222,1.222,0,0,0-.253-.926.932.932,0,0,0-.589-.126" transform="translate(-564.142 -597.613)" fill="#fcd327"/>
                    <path id="Path_202" data-name="Path 202" d="M619.174,563.986h0c-.211,0-.295.042-.337.084a.606.606,0,0,0-.084.379c-.042,1.937-.126,3.873-.253,5.767,0,.211,0,.337.084.379a.544.544,0,0,0,.337.084c2.1-.126,3.957-.211,5.725-.253h.042a.652.652,0,0,0,.337-.084.606.606,0,0,0,.084-.379c0-.674.042-1.389.084-2.063,0-.253.042-.547.042-.8l.042-.631c.042-.758.042-1.516.126-2.273,0-.211,0-.337-.042-.379a.383.383,0,0,0-.337-.042h-.042c-1.979.042-3.915.126-5.81.21" transform="translate(-579.559 -549.589)" fill="#fcd327"/>
                    <path id="Path_203" data-name="Path 203" d="M624.125,569.873h0c-1.768.042-3.62.168-5.725.253-.168,0-.295,0-.337-.084a.606.606,0,0,1-.084-.379c.084-1.894.168-3.831.253-5.767a.606.606,0,0,1,.084-.379.544.544,0,0,1,.337-.084h.042l5.683-.253h.042c.168,0,.295,0,.337.042a.451.451,0,0,1,.042.379c-.042.758-.084,1.558-.126,2.273l-.042.631c0,.253-.042.547-.042.8-.042.674-.084,1.347-.084,2.063a.606.606,0,0,1-.084.379c-.042.084-.126.126-.295.126m-5.431-6.862a.82.82,0,0,0-.631.253,1.06,1.06,0,0,0-.21.674c-.042,1.937-.126,3.873-.253,5.767a.958.958,0,0,0,.168.674.718.718,0,0,0,.631.168c2.1-.126,3.957-.211,5.725-.253h.042a.739.739,0,0,0,.589-.253,1.06,1.06,0,0,0,.211-.674c0-.674.042-1.389.084-2.021,0-.253.042-.547.042-.8l.042-.631c.042-.758.042-1.516.126-2.273a.907.907,0,0,0-.168-.674.874.874,0,0,0-.631-.168h0c-.295,0-.589.042-.884.042-1.684.042-3.284.126-4.883.168" transform="translate(-579.038 -549.034)" fill="#fcd327"/>
                    <path id="Path_204" data-name="Path 204" d="M561.089,566.595a.356.356,0,0,0-.253.084.4.4,0,0,0-.084.295c-.084,2.063-.168,4.084-.253,5.978,0,.168,0,.295.042.337s.126.042.295.042h.042c.211,0,.421-.042.589-.042.463-.042.926-.042,1.389-.084.295,0,.589-.042.884-.042h.21c.295,0,.547-.042.842-.042.631-.042,1.221-.042,1.852-.084h.042a.356.356,0,0,0,.253-.084.544.544,0,0,0,.084-.337c.042-1.726.126-3.663.253-5.978,0-.126,0-.253-.042-.295s-.126-.042-.295-.042c-1.684.084-3.536.168-5.852.295h0" transform="translate(-545.976 -551.06)" fill="#fcd327"/>
                    <path id="Path_205" data-name="Path 205" d="M560.258,572.867c-.126,0-.253,0-.295-.042a.383.383,0,0,1-.042-.337c.084-1.894.168-3.915.253-5.978a.491.491,0,0,1,.084-.295.356.356,0,0,1,.253-.084h.042c2.273-.084,4.126-.168,5.81-.253.126,0,.253,0,.295.042s.042.126.042.295c-.126,2.315-.168,4.252-.253,5.978a.652.652,0,0,1-.084.337.356.356,0,0,1-.253.084h-.042c-.589,0-1.221.042-1.852.084-.295,0-.547.042-.842.042h-.21c-.295,0-.589.042-.884.042-.463,0-.926.042-1.389.084a1.581,1.581,0,0,0-.631,0h0m.253-7.115a.754.754,0,0,0-.547.211.849.849,0,0,0-.211.589c-.084,2.063-.168,4.084-.253,5.978a.853.853,0,0,0,.168.631.8.8,0,0,0,.589.168c.211,0,.379-.042.589-.042.463-.042.926-.042,1.389-.084.295,0,.589-.042.884-.042.337,0,.674-.042,1.01-.042.589-.042,1.221-.042,1.81-.084h.042a.7.7,0,0,0,.547-.211.871.871,0,0,0,.21-.631c.042-1.726.126-3.663.253-5.978a.663.663,0,0,0-.168-.547.707.707,0,0,0-.547-.168c-1.6.042-3.452.126-5.768.253h0" transform="translate(-545.397 -550.597)" fill="#fcd327"/>
                    <path id="Path_206" data-name="Path 206" d="M558.731,626.453a.4.4,0,0,0-.295.084.606.606,0,0,0-.084.379c-.084,2.147-.168,4.041-.253,5.81,0,.21,0,.337.084.379a.451.451,0,0,0,.379.042h.042c.211,0,.463-.042.674-.042.421-.042.842-.042,1.221-.042a4.573,4.573,0,0,0,.758-.042c.295,0,.547-.042.842-.042.674-.042,1.347-.084,2.021-.084h.084a.491.491,0,0,0,.295-.084.782.782,0,0,0,.084-.421q.063-2.779.253-5.683c0-.211,0-.379-.084-.421a.606.606,0,0,0-.379-.084h0c-.295,0-.547.042-.842.042-1.6.084-3.2.168-4.8.21h0" transform="translate(-544.586 -585.743)" fill="#fcd327"/>
                    <path id="Path_207" data-name="Path 207" d="M557.942,632.552a.831.831,0,0,1-.379-.042.607.607,0,0,1-.084-.379c.084-1.726.168-3.62.253-5.81a.606.606,0,0,1,.084-.379.49.49,0,0,1,.295-.084h.042c1.558-.042,3.157-.126,4.8-.21.253,0,.547-.042.842-.042h0c.168,0,.295,0,.379.084a.78.78,0,0,1,.084.421q-.126,2.9-.253,5.683a.781.781,0,0,1-.084.421.491.491,0,0,1-.295.084h-.084c-.674,0-1.347.042-2.021.084-.295,0-.547.042-.842.042-.253,0-.505.042-.758.042-.421,0-.8.042-1.221.042-.253,0-.463.042-.758.042h0m.211-7.115a.849.849,0,0,0-.589.211.99.99,0,0,0-.211.674c-.084,2.147-.168,4.041-.253,5.767a.928.928,0,0,0,.168.674.853.853,0,0,0,.631.168h.042c.211,0,.421-.042.674-.042.421-.042.842-.042,1.221-.042a4.573,4.573,0,0,0,.758-.042c.295,0,.547-.042.842-.042.674-.042,1.347-.084,2.021-.084h.126a.849.849,0,0,0,.589-.211,1,1,0,0,0,.253-.716c.042-1.852.126-3.747.211-5.683a1.016,1.016,0,0,0-.168-.716.718.718,0,0,0-.631-.168h0c-.295,0-.547.042-.842.042-1.642.084-3.242.168-4.841.211h0" transform="translate(-544.007 -585.149)" fill="#fcd327"/>
                    <path id="Path_208" data-name="Path 208" d="M631.142,633.276a3.79,3.79,0,0,0-.674.126c-.084.042-.126.042-.126.295v.337c-.042.21-.084.463.042.589.084.084.21.084.379.084a.534.534,0,0,0,.253-.042c.21-.042.379-.042.589-.084h.084v-.253a1.728,1.728,0,0,1,.042-.463c.042-.295.084-.463-.042-.547a1.166,1.166,0,0,0-.547-.042" transform="translate(-586.391 -589.83)" fill="#fcd327"/>
                    <path id="Path_209" data-name="Path 209" d="M630.242,634.152c-.168,0-.295,0-.379-.084-.126-.126-.084-.379-.042-.589a.906.906,0,0,0,0-.337c0-.295,0-.295.126-.295a3.788,3.788,0,0,1,.674-.126.832.832,0,0,1,.463.084c.126.084.084.253.042.547a1.727,1.727,0,0,0-.042.463v.253H631a3.3,3.3,0,0,0-.589.084h-.168m.421-1.852a4.063,4.063,0,0,0-.758.126.672.672,0,0,0-.463.758v.21a1.05,1.05,0,0,0,.126.926,1.142,1.142,0,0,0,.968.168,1.165,1.165,0,0,1,.379-.042h.337l.253.211.042.042v-.379l.253-.295.042-.042-.211.042h-.042v-.337a.718.718,0,0,1,.042-.295c.042-.337.126-.716-.168-.926a1.449,1.449,0,0,0-.8-.168" transform="translate(-585.87 -589.275)" fill="#fcd327"/>
                  </g>
                </g>
              </g>
            </g>
          </g>
        </g>
      </g>
    </g>
    <path id="Path_211" data-name="Path 211" d="M614.1,400.648c-2.315-3.368-5.725-3.915-10.1-1.516-4.715,2.61-8.841,6.1-13.219,9.22-.631.463-1.221,1.389-2.1.968,2.1-24.922-9.725-29.09-15.913-29.6h0a5.344,5.344,0,0,0-2.821,0c-.505.042-.758.084-.758.084a2.049,2.049,0,0,1,.505.042c-.042.042-.084.042-.168.084a1.871,1.871,0,0,0,1.263,1.642c4.547,1.894,6.273,5.894,7.409,10.23a65.474,65.474,0,0,1,1.937,21.176c-.589,9.135-.211,18.229-.758,27.364-.421,7.367-.926,14.734-.758,22.144.042,2.357-.547,4.715-.505,7.073a4.207,4.207,0,0,1-1.642,3.326c-1.137.926-2.273,1.852-3.452,2.736C565.855,481.477,558.4,486.865,550.7,492a26.714,26.714,0,0,0-6.567,5.346c-1.684,2.1-2.357,5.389-.8,6.82,2.063,1.81,1.263,2.947.084,4.715-2.947,4.336-.758,8.462,4.5,8.8a28.493,28.493,0,0,0,3.284.042,3.957,3.957,0,0,1,3.915,1.979,9.5,9.5,0,0,0,6.441,4.252,32.508,32.508,0,0,0,9.262.884,5.163,5.163,0,0,1,.8-.084c3.831-.589,3.831-.589,3.747,3.2-.21,8.125-.716,16.208-1.01,24.333-.337,9.388-.884,18.776-1.221,28.164a7.783,7.783,0,0,1-5.389,7.494,26.968,26.968,0,0,1-9.641,1.768c-18.692-.042-37.426-.126-56.117.042-5.178.042-9.472-1.305-12.84-4.883a13.043,13.043,0,0,1-.926-8.378l-.8.589a4.979,4.979,0,0,1,1.558-1.726h-1.937L484.1,579.4s.631,9.346,6.231,15.113a11.876,11.876,0,0,0,5.641,3.368c3.073.926,6.188.631,9.22.253,5.178-.674,10.314-1.137,15.534-1.431,14.229-.884,28.5-.463,42.73-.674,10.019-.126,17.008-6.273,17.639-16.166.084-1.01.126-2.021.168-3.031h0l.042-.505c.253-4.252.421-8.5.589-12.714l1.431-30.269a105.664,105.664,0,0,1,2.021-15.534c2.61-3.157,4.378-6.609,1.81-10.693-.463-.758-.084-1.347.253-2.021,2.989-5.641,5.22-11.451,3.62-18.018a2.322,2.322,0,0,1,.211-1.305C593.724,480,592.5,474.488,589.3,469.6a19.118,19.118,0,0,1-2.273-4.673l1.052-19.744v-.042a7.788,7.788,0,0,1,.968-1.431c3.831-4.841,7.746-9.641,11.409-14.65,5.01-6.82,9.977-13.682,13.345-21.554C614.9,405.152,615.7,402.963,614.1,400.648ZM585.852,511.2c-.295,3.41-2.652,5.431-5.178,7.325-.716.547-1.726.758-2.147,1.6-.211.084-.379.168-.547.253-1.01-.421-1.979.126-2.947.295a29.907,29.907,0,0,1-13.514-.463c-1.179-.337-2.442-.716-2.9-1.979a1.255,1.255,0,0,1,1.052-.589c8.672-.842,17.218-2.021,24.459-7.578C585.347,509.178,585.978,509.809,585.852,511.2Zm26.227-105.962a23.63,23.63,0,0,1-2.442,5.473c-5.01,8.925-11.24,17.008-17.345,25.175-1.137,1.516-2.947,2.526-3.7,4.378v-.716l.421-14.187c.084-2.147.168-4.336.211-6.483l.168-5.262c.421-1.179,3.578-3.789,6.273-5.81,3.663-2.526,6.988-5.557,11.24-7.157,1.431-.547,2.863-.716,4.126.337A3.86,3.86,0,0,1,612.079,405.236Z" transform="translate(-85.355 -48.378)" fill="#090f31"/>
    <path id="Path_212" data-name="Path 212" d="M450.741,615.693c-.884-3.873-1.516-7.7.463-11.493C450.193,608.031,450.741,611.862,450.741,615.693Z" transform="translate(-65.552 -178.469)" fill="#090f31"/>
    <path id="Path_213" data-name="Path 213" d="M673.323,640.9c-.505,14.819-6.9,20.923-20.081,23.912-6.694,1.516-13.6,1.516-20.418,1.726-1.684.042-3.747.042-4.462-1.894-.674-1.852.758-3.242,1.894-4.547,1.642-1.852,3.62-2.568,6.188-2.947,13.387-1.937,25.806-6.273,35.91-15.829A8.8,8.8,0,0,1,673.323,640.9Z" transform="translate(-168.785 -199.719)" fill="#fbfbfa"/>
    <path id="Path_214" data-name="Path 214" d="M678.812,697.683a36.7,36.7,0,0,1-14.356.968,10.3,10.3,0,0,1-5.768-2.231c-.589-.547-1.431-1.095-1.095-2.021.337-.884,1.263-.421,1.937-.463a54.644,54.644,0,0,0,18.144-3.663,24.2,24.2,0,0,0,6.82-4c.505-.463,1.01-1.347,1.81-.926.758.379.884,1.347.842,2.189-.084,3.368-1.81,5.852-4.378,7.83-1.221.884-2.652,1.516-3.957,2.315Z" transform="translate(-185.766 -225.391)" fill="#f9f9fa"/>
    <path id="Path_215" data-name="Path 215" d="M578.672,847.929a7.067,7.067,0,0,1-7.073-6.82c-.042-3.536,3.452-7.409,6.652-7.409,4.673,0,7.494,2.947,7.494,7.788C585.787,845.024,582.545,847.929,578.672,847.929Z" transform="translate(-136.019 -311.353)" fill="#fceea0"/>
    <path id="Path_216" data-name="Path 216" d="M586.238,842.152a5.823,5.823,0,0,1-6.062,6.188c-3.073,0-5.894-2.947-5.978-6.188-.084-2.736,3.115-5.852,5.936-5.852A5.775,5.775,0,0,1,586.238,842.152Z" transform="translate(-137.522 -312.858)" fill="#fbfdf9"/>
    <path id="Path_217" data-name="Path 217" d="M465.561,600.384c-4.883-8.883-11.409-16.5-18.608-23.575-2.315-2.189-2.315-2.189-.042-4.21.253-.253.547-.463.758-.716,9.051-11.535,10.777-24.459,6.736-38.225-.968-3.284-2.526-6.567-6.315-7.788-2.821-.674-4.926.8-6.988,2.315a1.889,1.889,0,0,0-.547,1.6c-.042,0-.084.042-.168.042-2.652,4.041-5.473,7.957-7.872,12.124-2.989,5.22-6.862,9.935-8.967,15.661h0c-1.937,4.462-1.305,9.093-.505,13.6,2.147,11.619,5.347,23.028,7.325,34.731a67.281,67.281,0,0,1-3.41,35.994c-2.863,7.494-7.325,14.019-12.082,20.334-3.452,2.778-6.062,6.483-9.767,9.009a.861.861,0,0,0-.253,1.389c.505.674,1.052.589,1.6.084,2.9-2.779,6.4-5.052,8.462-8.672h0c11.535-12.377,17.471-27.069,18.271-43.909.379-7.914-1.095-15.618-2.779-23.28q-2.968-13.324-6.02-26.606c-.505-3.831-.968-7.7.463-11.451h0a1.965,1.965,0,0,0,.21-.421,34.867,34.867,0,0,1,2.063-4.168c4.883-7.788,9.3-15.913,14.777-23.323h0c5.01-3.915,7.157-3.368,9.683,2.568.379.926.674,1.894.968,2.863a35.63,35.63,0,0,1,.716,16.039c-1.473,8.756-3.831,17.176-12.756,21.6.337,1.01,1.179,1.473,1.81,2.063,8.883,8.5,17.176,17.429,22.438,28.711,4.926,10.525,5.852,21.176.589,31.911-3.368,6.9-8.967,11.619-15.071,15.913-4,2.821-8.293,4.926-11.872,8.588a32.156,32.156,0,0,0-3.284,3.747c-4.757,6.483-6.778,14.019-8.293,21.765-.168.842-.884,2.021.421,2.273,1.221.253,1.137-1.137,1.431-1.937a4.587,4.587,0,0,0,.126-1.095c1.558-7.914,3.831-15.576,9.177-21.891.842-.042,1.221.084,1.684-1.01h0a26.968,26.968,0,0,1,2.442-1.894c4.631-3.7,10.1-6.273,14.482-10.314A35.8,35.8,0,0,0,471.455,622.4C471.876,614.529,469.35,607.2,465.561,600.384Z" transform="translate(-39.326 -133.017)" fill="#090f31"/>
    <path id="Path_218" data-name="Path 218" d="M655.238,620.663c-6.567,2.568-13.177,4.926-20.333,5.262-2.189.084-4.926.379-5.725-2.063-.8-2.4,1.558-3.957,3.326-5.136,8.462-5.894,16.966-11.745,25.091-18.1a101.442,101.442,0,0,0,11.367-9.851c1.137-1.179,1.642-.884,2.442.337,5.6,8.335,4.21,16.8-3.747,22.859a83.518,83.518,0,0,1-7.409,4.589C658.48,619.1,656.922,620.073,655.238,620.663Z" transform="translate(-169.265 -170.262)" fill="#fdfdfd"/>
  </g>
</svg>
