<svg xmlns="http://www.w3.org/2000/svg" width="260" height="261.56" viewBox="0 0 260 261.56">
  <g id="Book_On_Call_1_" data-name="Book On Call (1)" transform="translate(-336.685 -295.972)">
    <g id="Group_86" data-name="Group 86" transform="translate(336.685 295.972)" opacity="0.5">
      <path id="Path_94" data-name="Path 94" d="M596.532,374.168c-1.534-17.636-11.588-27.026-29.695-30.494-11.375-2.157-22.921-3.257-34.381-5.287-19.64-3.468-35.745-12.9-51.295-24.4-21.515-15.945-44.649-21.062-69.572-7.909a136.74,136.74,0,0,0-30.419,22.077c-13.676,13.026-23.858,28.8-34.211,44.366-6.944,10.447-10.31,22.289-10.225,36.711a40.511,40.511,0,0,0,2.769,16.41c5.07,12.688,15.252,20.893,26.286,27.66,14.656,9.009,25.094,20.851,30.291,37.261,4.175,13.153,13.8,20,27.139,20.724,14.57.761,26.585-4.695,33.529-18.313a126.115,126.115,0,0,1,11.929-19.793c6.135-8.036,13.505-14.211,24.284-15.268,7.5-.761,14.954-1.988,22.367-3.087,31.1-4.652,55.853-18.905,71.617-46.692C593,397.6,597.6,386.306,596.532,374.168Z" transform="translate(-336.685 -297.469)" fill="#d9cef7"/>
      <path id="Path_95" data-name="Path 95" d="M759.816,325.125c8.137.043,15.082-4.473,16.615-10.779,1.534-6.518-2.13-13.548-8.947-16.445-7.839-3.323-15.593-2.045-22.878,1.491-5.538,2.684-6.859,7.37-4.559,13.25C742.9,320.183,750.656,325.082,759.816,325.125Z" transform="translate(-567.582 -295.972)" fill="#d9cef7"/>
      <path id="Path_96" data-name="Path 96" d="M761.318,700.435c-4.559-1.875-10.736.469-14.741,5.539a15.254,15.254,0,0,0-1.235,1.96c-1.875,2.982-3.707,6.05-1.449,9.628,2.173,3.451,5.5,4.686,10.31,4.3a6.789,6.789,0,0,0,1.448,0c5.624-.895,12.1-6.348,12.313-10.864C768.177,706.1,765.961,702.352,761.318,700.435Z" transform="translate(-569.808 -529.31)" fill="#d9cef7"/>
      <path id="Path_97" data-name="Path 97" d="M822.918,691.341c-4.686-.085-8.222,1.534-8.649,6.135-.3,3.238,2.386,5.155,5.538,5.5,3.323.341,8.776-4.431,8.521-7.413C828.03,692.235,825.772,691.042,822.918,691.341Z" transform="translate(-610.788 -524.163)" fill="#d9cef7"/>
    </g>
    <g id="Group_87" data-name="Group 87" transform="translate(401.148 331.785)">
      <path id="Path_98" data-name="Path 98" d="M585.326,397.1c-.256-1.832-.682-3.621-1.065-5.453a15.42,15.42,0,0,0-9.969-11.588,179.1,179.1,0,0,0-24.838,1.406c-9.884,1.15-19.726,2.471-29.609,3.153a72.466,72.466,0,0,0-13.931,1.747c-5.283,1.406-9.33,4.3-11.375,9.756-1.96,5.24-2.088,10.694-2.3,16.062-.383,9.2-1.15,18.447-.724,27.692.085,1.7-1.022,3.451,0,5.155,2.215-.809,4-2.812,6.689-2.343a16.117,16.117,0,0,0,.554-3.536c.3-9.245.724-18.447,1.022-27.692.043-1.747.724-2.428,2.471-2.556,17.425-1.065,34.807-2.215,52.19-3.323,7.626-.511,15.295-.98,22.921-1.534,3.067-.213,3.664.17,3.536,3.238-.469,10.523-1.022,21-1.491,31.527-.469,10.694-.937,21.387-1.278,32.123-.085,2.258-1.022,4.559.085,6.817,2.556-1.747,5.922-2.769,6.092-6.689.639-18.66,1.321-37.321,1.917-55.939A115.571,115.571,0,0,0,585.326,397.1Z" transform="translate(-489.763 -380.032)" fill="#fcd327"/>
      <path id="Path_99" data-name="Path 99" d="M574.285,722.08c-.171,1.662-.426,3.28-.511,4.942-.3,7.03-.511,14.017-.767,21.046-.128,3.323-.3,6.646-.511,9.927-.128,1.917-.511,3.408-3.153,3.536-11.333.426-22.665.852-34,1.7-5.411.426-10.864.469-16.275.81-4.559.3-9.16,1.193-13.761.469-4.857,3.451-9.714,6.859-14.57,10.31-.256,1.15-1.789,1.747-1.491,3.153-.213,1.534,1.363,2.556,1.065,4.09,2.854,5.112,7.413,7.37,13.037,7.2,18.788-.554,37.534.213,56.322.128a35.247,35.247,0,0,0,11.5-1.576c4.814-1.7,6.817-4.388,7.03-9.458l2.173-51C580.676,720.887,580.676,720.887,574.285,722.08Z" transform="translate(-488.692 -577.565)" fill="#fcd327"/>
      <path id="Path_100" data-name="Path 100" d="M499.833,636.58c-2.173,1.108-1.875,2.215-.128,3.451.3.213.554.469.852.682.852-1.619.426-3.408.511-5.112A5.445,5.445,0,0,1,499.833,636.58Z" transform="translate(-493.908 -527.534)" fill="#fcd327"/>
      <path id="Path_101" data-name="Path 101" d="M493.151,841.4s-8.606,6.05.852,14.357c0,0-10.267-7.711-3.962-12.142Z" transform="translate(-487.993 -646.4)" fill="#fcd327"/>
    </g>
    <path id="Path_102" data-name="Path 102" d="M513.15,599.849c5.794-4.772,10.438-10.4,12.909-17.6,3.408-9.8,2.258-19.3-1.875-28.587-4.3-9.714-10.821-17.766-18.149-25.307-.98-.98-1.917-2-2.854-2.982a6.308,6.308,0,0,1,.511-5.112c9.075-11.418,10.949-24.241,7.243-38.045a12.379,12.379,0,0,0-6.092-8.18c-.81-2.982-.469-6.092-.17-9.075a130.8,130.8,0,0,0,.383-13.548,81.819,81.819,0,0,1,.639-8.563c.17-2.088,1.278-3.068,3.323-3.408a96.509,96.509,0,0,1,12.142-.98c13.378-.554,26.713-1.619,40.09-2.428,7.541-.469,15.124-.724,22.665-1.406,3.281-.3,4.473.682,4.516,4,.043,6.178-.383,12.355-.724,18.533-.3,5.24-.554,10.523-.81,15.763-.469,11.546-1.193,23.049-1.619,34.594a2.563,2.563,0,0,1-.383,1.576c-4.6,4.559-10.14,7.924-15.295,11.759-3.2,2.343-6.518,4.516-9.8,6.774a15.416,15.416,0,0,0-3.962,3.834c-1.96,2.727-1.662,4.985,1.193,6.774,1.321.809,1.193,1.235.256,2.215-1.875,1.917-3.92,4.09-2.641,7.03,1.321,3.067,4.346,3.2,7.157,3.025,2.727-.17,4.686.128,6.263,2.94,1.406,2.641,4.6,3.238,7.5,3.579,2.173.3,4.431.341,6.6.511a3.019,3.019,0,0,1,.6,2.088c-.383,11.077-.98,22.154-1.534,33.188-.213,3.877-1.406,4.772-5.453,5.027-11.972.639-23.943,1.363-35.915,2.045-7.839.469-15.678.6-23.517,1.236C515.2,601.042,513.875,601.127,513.15,599.849Z" transform="translate(-95.384 -81.117)" fill="#fefefe"/>
    <g id="Group_88" data-name="Group 88" transform="translate(417.937 401.201)">
      <path id="Path_103" data-name="Path 103" d="M560.844,629.773a16.1,16.1,0,0,1-7.115-1.789c-11.844-5.794-20.535-14.613-25.477-26.926a12.519,12.519,0,0,1-.852-4.346,5.107,5.107,0,0,1,1.491-3.749c.724-.682,1.449-1.406,2.13-2.13.383-.383.554-.341.937,0,2.94,2.982,5.879,5.922,8.862,8.862.426.426.3.639-.043,1.023-.682.682-1.321,1.448-1.96,2.173a1.612,1.612,0,0,0-.213,2.088,37.483,37.483,0,0,0,7.285,8.9,29.315,29.315,0,0,0,6.433,4.772,1.483,1.483,0,0,0,1.875-.17c.809-.724,1.619-1.406,2.386-2.13.3-.3.511-.341.852,0,2.982,2.982,5.922,5.964,8.9,8.947.383.383.383.554,0,.937-.682.639-1.363,1.321-2,2A4.582,4.582,0,0,1,560.844,629.773Z" transform="translate(-527.4 -571.094)" fill="#fcd327"/>
      <path id="Path_104" data-name="Path 104" d="M624.6,572.616c-.511.128-.469-.341-.554-.767-2.471-10.779-9.075-18.021-19.129-22.239a20.233,20.233,0,0,0-4.772-1.278c-.511-.085-.682-.17-.469-.724a4.381,4.381,0,0,0,.3-2.088c-.085-.682.213-.724.767-.6a30.962,30.962,0,0,1,14.911,6.987,33.589,33.589,0,0,1,11.418,17.467c.17.639.17,1.278.383,1.875.3.81-.085,1.023-.767,1.065C626.051,572.4,625.412,572.53,624.6,572.616Z" transform="translate(-568.834 -544.866)" fill="#ffe1a4"/>
      <path id="Path_105" data-name="Path 105" d="M591.789,566.76a22.092,22.092,0,0,1,6.817,2.215c7.37,3.877,12.355,9.756,14.443,17.894.469,1.789.426,1.832-1.406,1.917-.554.043-1.236.554-1.662.043-.341-.383-.256-1.108-.426-1.662A23.951,23.951,0,0,0,597.8,572.426a18.079,18.079,0,0,0-6.05-2.173c-.554-.085-.852-.213-.639-.937a7.815,7.815,0,0,0,.256-2C591.405,566.93,591.49,566.632,591.789,566.76Z" transform="translate(-563.926 -557.415)" fill="#ffdd4d"/>
      <path id="Path_106" data-name="Path 106" d="M595.883,605.454c-.852.3-.724-.426-.809-.852-1.619-6.22-5.624-10.225-11.546-12.44-.043-.043-.128-.043-.17-.085-.639-.213-1.747-.085-1.832-.554a6.977,6.977,0,0,1,.341-2.94c.128-.554.724-.213,1.108-.128a18.634,18.634,0,0,1,7.03,3.11,20.866,20.866,0,0,1,8.436,11.929c0,.043.043.043.043.085.383,1.534.383,1.534-1.15,1.7A6.065,6.065,0,0,1,595.883,605.454Z" transform="translate(-558.434 -569.78)" fill="#fcd327"/>
      <path id="Path_107" data-name="Path 107" d="M541.633,583.875a1.21,1.21,0,0,1,1.108.469c2.471,2.514,4.985,4.985,7.456,7.5a1.518,1.518,0,0,1,0,2.3c-1.406,1.576-1.406,1.576-2.9.085-2.6-2.6-5.155-5.2-7.754-7.711-.6-.554-.511-.895.043-1.321C540.227,584.684,540.568,583.832,541.633,583.875Z" transform="translate(-534.135 -567.245)" fill="#fcd327"/>
      <path id="Path_108" data-name="Path 108" d="M601.4,643.695a1.585,1.585,0,0,1,1.193.554L610,651.661A1.434,1.434,0,0,1,610,654c-1.406,1.534-1.406,1.534-2.854.085-2.641-2.641-5.24-5.283-7.924-7.882-.426-.426-.511-.639,0-1.022C599.95,644.717,600.333,643.737,601.4,643.695Z" transform="translate(-568.423 -601.588)" fill="#fcd327"/>
    </g>
    <path id="Path_109" data-name="Path 109" d="M615.66,400.751c-2.343-3.384-5.794-3.934-10.225-1.523-4.772,2.623-8.947,6.134-13.378,9.265-.639.465-1.235,1.4-2.13.973,2.13-25.044-9.841-29.232-16.1-29.74h0a5.444,5.444,0,0,0-2.854,0c-.511.042-.767.085-.767.085a2.089,2.089,0,0,1,.511.042c-.043.042-.085.042-.17.085a1.882,1.882,0,0,0,1.278,1.65c4.6,1.9,6.348,5.922,7.5,10.28a65.344,65.344,0,0,1,1.96,21.279c-.6,9.18-.213,18.318-.767,27.5-.426,7.4-.937,14.806-.767,22.252.043,2.369-.554,4.738-.511,7.107a4.217,4.217,0,0,1-1.661,3.342c-1.15.931-2.3,1.861-3.494,2.75-7.243,5.88-14.784,11.3-22.58,16.456a27,27,0,0,0-6.646,5.373c-1.7,2.115-2.386,5.415-.809,6.853,2.088,1.819,1.278,2.961.085,4.738-2.982,4.357-.767,8.5,4.559,8.842a29.053,29.053,0,0,0,3.323.042,4.012,4.012,0,0,1,3.962,1.988,9.622,9.622,0,0,0,6.518,4.273,33.126,33.126,0,0,0,9.373.888,5.256,5.256,0,0,1,.809-.085c3.877-.592,3.877-.592,3.792,3.215-.213,8.165-.724,16.287-1.023,24.452-.341,9.434-.895,18.867-1.236,28.3a7.826,7.826,0,0,1-5.453,7.53A27.465,27.465,0,0,1,559,590.737c-18.916-.042-37.875-.127-56.791.042-5.24.042-9.586-1.311-12.994-4.907a13.021,13.021,0,0,1-.937-8.418l-.809.592a5.016,5.016,0,0,1,1.576-1.734h-1.96l-2.982,4.061s.639,9.391,6.305,15.187a12.034,12.034,0,0,0,5.709,3.384c3.11.931,6.263.635,9.33.254,5.24-.677,10.438-1.142,15.721-1.438,14.4-.888,28.843-.465,43.243-.677,10.14-.127,17.212-6.3,17.851-16.245.085-1.015.128-2.031.17-3.046h0l.043-.508c.256-4.273.426-8.545.6-12.776l1.448-30.416a105.481,105.481,0,0,1,2.045-15.61c2.641-3.173,4.431-6.642,1.832-10.745-.469-.761-.085-1.354.256-2.031,3.025-5.669,5.283-11.507,3.664-18.106a2.32,2.32,0,0,1,.213-1.311c2.514-5.8,1.278-11.337-1.96-16.245a19.152,19.152,0,0,1-2.3-4.7l1.065-19.84v-.042a7.823,7.823,0,0,1,.98-1.438c3.877-4.865,7.839-9.688,11.546-14.722,5.07-6.853,10.1-13.749,13.505-21.66C616.47,405.277,617.279,403.077,615.66,400.751ZM587.073,511.84c-.3,3.427-2.684,5.457-5.24,7.361-.724.55-1.747.761-2.173,1.607-.213.085-.383.169-.554.254-1.022-.423-2,.127-2.982.3a30.474,30.474,0,0,1-13.676-.465c-1.193-.338-2.471-.719-2.94-1.988a1.273,1.273,0,0,1,1.065-.592c8.776-.846,17.425-2.031,24.753-7.615C586.562,509.81,587.2,510.444,587.073,511.84Zm26.542-106.479a23.661,23.661,0,0,1-2.471,5.5c-5.07,8.968-11.375,17.091-17.553,25.3-1.15,1.523-2.982,2.538-3.749,4.4v-.719l.426-14.256c.085-2.158.17-4.357.213-6.515l.17-5.288c.426-1.184,3.621-3.807,6.348-5.838,3.706-2.538,7.072-5.584,11.375-7.192,1.449-.55,2.9-.719,4.175.338A3.86,3.86,0,0,1,613.615,405.362Z" transform="translate(-84.61 -47.956)" fill="#090f31"/>
    <path id="Path_110" data-name="Path 110" d="M450.751,615.831c-.895-3.919-1.534-7.8.469-11.631C450.2,608.077,450.751,611.954,450.751,615.831Z" transform="translate(-64.98 -177.726)" fill="#090f31"/>
    <path id="Path_111" data-name="Path 111" d="M673.865,640.9c-.511,15-6.987,21.174-20.322,24.2-6.774,1.534-13.761,1.534-20.663,1.747-1.7.043-3.792.043-4.516-1.917-.682-1.875.767-3.281,1.917-4.6,1.662-1.875,3.664-2.6,6.263-2.982,13.548-1.96,26.116-6.348,36.341-16.019A8.9,8.9,0,0,1,673.865,640.9Z" transform="translate(-167.312 -198.943)" fill="#fbfbfa"/>
    <path id="Path_112" data-name="Path 112" d="M679.067,697.832a37.14,37.14,0,0,1-14.528.98,10.427,10.427,0,0,1-5.837-2.258c-.6-.554-1.448-1.108-1.108-2.045.341-.895,1.278-.426,1.96-.469a55.3,55.3,0,0,0,18.362-3.707,24.494,24.494,0,0,0,6.9-4.047c.511-.469,1.022-1.363,1.832-.937.767.383.895,1.363.852,2.215-.085,3.408-1.832,5.922-4.431,7.924-1.235.895-2.684,1.534-4,2.343Z" transform="translate(-184.145 -224.462)" fill="#f9f9fa"/>
    <path id="Path_113" data-name="Path 113" d="M578.757,848.1a7.152,7.152,0,0,1-7.157-6.9c-.043-3.579,3.493-7.5,6.731-7.5,4.729,0,7.583,2.982,7.583,7.882C585.957,845.16,582.676,848.1,578.757,848.1Z" transform="translate(-134.832 -310.196)" fill="#fceea0"/>
    <path id="Path_114" data-name="Path 114" d="M586.382,842.222a5.893,5.893,0,0,1-6.135,6.263c-3.11,0-5.965-2.982-6.05-6.263-.085-2.769,3.153-5.922,6.007-5.922A5.844,5.844,0,0,1,586.382,842.222Z" transform="translate(-136.322 -311.688)" fill="#fbfdf9"/>
    <path id="Path_115" data-name="Path 115" d="M466.293,601.28c-4.942-8.989-11.546-16.7-18.831-23.858-2.343-2.215-2.343-2.215-.043-4.26.256-.256.554-.469.767-.724,9.16-11.673,10.907-24.753,6.817-38.684-.98-3.323-2.556-6.646-6.391-7.882-2.854-.682-4.985.809-7.072,2.343a1.912,1.912,0,0,0-.554,1.619c-.043,0-.085.043-.17.043-2.684,4.09-5.538,8.052-7.967,12.27-3.025,5.283-6.944,10.054-9.075,15.849h0c-1.96,4.516-1.321,9.2-.511,13.761,2.173,11.759,5.411,23.3,7.413,35.148a68.089,68.089,0,0,1-3.451,36.426c-2.9,7.583-7.413,14.187-12.227,20.578-3.493,2.812-6.135,6.561-9.884,9.117a.871.871,0,0,0-.256,1.406c.511.682,1.065.6,1.619.085,2.94-2.812,6.476-5.112,8.563-8.776h0c11.673-12.525,17.681-27.394,18.49-44.436.383-8.009-1.108-15.806-2.812-23.56q-3-13.484-6.092-26.926c-.511-3.877-.98-7.8.469-11.588h0a1.989,1.989,0,0,0,.213-.426,35.3,35.3,0,0,1,2.088-4.218c4.942-7.882,9.415-16.1,14.954-23.6h0c5.07-3.962,7.243-3.408,9.8,2.6.383.937.682,1.917.98,2.9a36.057,36.057,0,0,1,.724,16.232c-1.491,8.862-3.877,17.382-12.909,21.856.341,1.023,1.193,1.491,1.832,2.088,8.989,8.606,17.382,17.638,22.708,29.056,4.985,10.651,5.922,21.43.6,32.294-3.408,6.987-9.075,11.759-15.252,16.1-4.047,2.854-8.393,4.985-12.014,8.691a32.546,32.546,0,0,0-3.323,3.792c-4.814,6.561-6.859,14.187-8.393,22.026-.17.852-.895,2.045.426,2.3,1.235.256,1.15-1.15,1.449-1.96a4.643,4.643,0,0,0,.128-1.108c1.576-8.009,3.877-15.763,9.288-22.154.852-.043,1.236.085,1.7-1.022h0a27.285,27.285,0,0,1,2.471-1.917c4.686-3.749,10.225-6.348,14.656-10.438a36.231,36.231,0,0,0,15.039-28.758C472.683,615.595,470.127,608.182,466.293,601.28Z" transform="translate(-38.983 -133.417)" fill="#090f31"/>
    <path id="Path_116" data-name="Path 116" d="M655.553,621.03c-6.646,2.6-13.335,4.985-20.578,5.326-2.216.085-4.985.383-5.794-2.088-.81-2.428,1.576-4,3.366-5.2,8.563-5.965,17.169-11.886,25.392-18.32a102.647,102.647,0,0,0,11.5-9.969c1.15-1.193,1.662-.895,2.471.341,5.666,8.436,4.26,17-3.792,23.134a84.531,84.531,0,0,1-7.5,4.644C658.833,619.454,657.257,620.434,655.553,621.03Z" transform="translate(-167.788 -169.638)" fill="#fdfdfd"/>
  </g>
</svg>
