<svg xmlns="http://www.w3.org/2000/svg" xmlns:xlink="http://www.w3.org/1999/xlink" width="259.699" height="262.816" viewBox="0 0 259.699 262.816">
  <defs>
    <clipPath id="clip-path">
      <path id="Path_63" data-name="Path 63" d="M518.4,599.44l1.787-51.278,67.661-5.362-1.83,51.278Z" transform="translate(-518.4 -542.8)"/>
    </clipPath>
  </defs>
  <g id="Group_9643" data-name="Group 9643" transform="translate(-84 -216.392)">
    <g id="Group_67" data-name="Group 67" transform="translate(84 216.392)" opacity="0.5">
      <path id="Path_53" data-name="Path 53" d="M596.231,374.634c-1.532-17.745-11.575-27.192-29.66-30.682-11.362-2.17-22.894-3.277-34.341-5.319-19.618-3.489-35.7-12.979-51.236-24.554-21.49-16.043-44.6-21.192-69.491-7.958a136.622,136.622,0,0,0-30.384,22.213c-13.66,13.107-23.83,28.98-34.171,44.64-6.936,10.511-10.3,22.426-10.213,36.937a41.031,41.031,0,0,0,2.766,16.511c5.064,12.766,15.234,21.022,26.256,27.831,14.639,9.064,25.065,20.979,30.256,37.49,4.17,13.234,13.788,20.128,27.107,20.852,14.554.766,26.554-4.724,33.49-18.426a127.072,127.072,0,0,1,11.915-19.915c6.128-8.085,13.49-14.3,24.256-15.362,7.49-.766,14.937-2,22.341-3.106,31.065-4.681,55.789-19.022,71.534-46.98C592.7,398.209,597.295,386.847,596.231,374.634Z" transform="translate(-336.685 -297.471)" fill="#d9cef7"/>
      <path id="Path_54" data-name="Path 54" d="M759.792,325.091c8.128.043,15.064-4.468,16.6-10.766,1.532-6.511-2.128-13.532-8.936-16.426-7.83-3.319-15.575-2.043-22.852,1.489-5.532,2.681-6.851,7.362-4.553,13.234C742.9,320.155,750.643,325.048,759.792,325.091Z" transform="translate(-567.781 -295.972)" fill="#d9cef7"/>
      <path id="Path_55" data-name="Path 55" d="M761.3,700.434c-4.553-1.872-10.724.468-14.724,5.532a15.2,15.2,0,0,0-1.234,1.957c-1.872,2.979-3.7,6.043-1.447,9.617,2.17,3.447,5.49,4.681,10.3,4.3a6.784,6.784,0,0,0,1.447,0c5.617-.894,12.085-6.341,12.3-10.852C768.147,706.094,765.935,702.349,761.3,700.434Z" transform="translate(-570.008 -527.949)" fill="#d9cef7"/>
      <path id="Path_56" data-name="Path 56" d="M822.908,691.341c-4.681-.085-8.213,1.532-8.638,6.128-.3,3.234,2.383,5.149,5.532,5.49,3.319.34,8.766-4.426,8.511-7.4C828.015,692.234,825.759,691.043,822.908,691.341Z" transform="translate(-611.023 -523.069)" fill="#d9cef7"/>
    </g>
    <g id="Group_68" data-name="Group 68" transform="translate(148.388 252.163)">
      <path id="Path_57" data-name="Path 57" d="M585.217,397.083c-.255-1.83-.681-3.617-1.064-5.447a15.4,15.4,0,0,0-9.958-11.575,178.9,178.9,0,0,0-24.809,1.4c-9.873,1.149-19.7,2.468-29.575,3.149a72.379,72.379,0,0,0-13.915,1.745c-5.277,1.4-9.319,4.3-11.362,9.745-1.957,5.234-2.085,10.681-2.3,16.043-.383,9.192-1.149,18.426-.723,27.66.085,1.7-1.021,3.447,0,5.149,2.213-.809,4-2.809,6.681-2.341a16.1,16.1,0,0,0,.553-3.532c.3-9.234.723-18.426,1.021-27.66.043-1.745.723-2.426,2.468-2.553,17.4-1.064,34.767-2.213,52.129-3.319,7.617-.511,15.277-.979,22.894-1.532,3.064-.213,3.66.17,3.532,3.234-.468,10.511-1.021,20.979-1.489,31.49-.468,10.681-.936,21.362-1.277,32.086-.085,2.255-1.021,4.553.085,6.809,2.553-1.745,5.915-2.766,6.085-6.681.638-18.639,1.319-37.278,1.915-55.874A115.462,115.462,0,0,0,585.217,397.083Z" transform="translate(-489.764 -380.032)" fill="#fcd327"/>
      <path id="Path_58" data-name="Path 58" d="M574.187,722.079c-.17,1.66-.426,3.277-.511,4.936-.3,7.022-.511,14-.766,21.022-.128,3.319-.3,6.638-.511,9.915-.128,1.915-.511,3.4-3.149,3.532-11.319.426-22.639.851-33.958,1.7-5.4.426-10.851.468-16.256.809-4.553.3-9.149,1.191-13.745.468-4.851,3.447-9.7,6.851-14.554,10.3-.255,1.149-1.787,1.745-1.489,3.149-.213,1.532,1.362,2.553,1.064,4.085,2.851,5.106,7.4,7.362,13.022,7.192,18.766-.553,37.49.213,56.257.128a35.2,35.2,0,0,0,11.49-1.575c4.809-1.7,6.809-4.383,7.022-9.447q1.085-25.469,2.17-50.938C580.57,720.887,580.57,720.887,574.187,722.079Z" transform="translate(-488.692 -576.174)" fill="#fcd327"/>
      <path id="Path_59" data-name="Path 59" d="M499.831,636.579c-2.17,1.106-1.872,2.213-.128,3.447.3.213.553.468.851.681.851-1.617.426-3.4.511-5.107A5.435,5.435,0,0,1,499.831,636.579Z" transform="translate(-493.913 -526.845)" fill="#fcd327"/>
      <path id="Path_60" data-name="Path 60" d="M493.145,841.4s-8.6,6.043.851,14.341c0,0-10.256-7.7-3.958-12.128Z" transform="translate(-487.993 -645.068)" fill="#fcd327"/>
    </g>
    <path id="Path_61" data-name="Path 61" d="M513.139,599.658c5.787-4.766,10.426-10.383,12.894-17.575,3.4-9.788,2.255-19.277-1.872-28.554-4.3-9.7-10.809-17.745-18.128-25.277-.979-.979-1.915-2-2.851-2.979a6.3,6.3,0,0,1,.511-5.107c9.064-11.4,10.937-24.213,7.234-38a12.365,12.365,0,0,0-6.085-8.17c-.809-2.979-.468-6.085-.17-9.064a130.644,130.644,0,0,0,.383-13.532,81.721,81.721,0,0,1,.638-8.553c.17-2.085,1.277-3.064,3.319-3.4a96.4,96.4,0,0,1,12.128-.979c13.362-.553,26.682-1.617,40.044-2.426,7.532-.468,15.107-.723,22.639-1.4,3.277-.3,4.468.681,4.511,4,.043,6.17-.383,12.341-.723,18.511-.3,5.234-.553,10.511-.809,15.745-.468,11.532-1.192,23.022-1.617,34.554a2.561,2.561,0,0,1-.383,1.575c-4.6,4.553-10.128,7.915-15.277,11.745-3.192,2.34-6.511,4.511-9.787,6.766a15.4,15.4,0,0,0-3.958,3.83c-1.957,2.724-1.66,4.979,1.192,6.766,1.319.809,1.192,1.234.255,2.213-1.872,1.915-3.915,4.085-2.638,7.022,1.319,3.064,4.34,3.192,7.149,3.021,2.723-.17,4.681.128,6.255,2.936,1.4,2.638,4.6,3.234,7.49,3.575,2.17.3,4.426.34,6.6.511a3.016,3.016,0,0,1,.6,2.085c-.383,11.064-.979,22.128-1.532,33.15-.213,3.872-1.4,4.766-5.447,5.021-11.958.638-23.915,1.362-35.873,2.043-7.83.468-15.66.6-23.49,1.234C515.181,600.849,513.862,600.934,513.139,599.658Z" transform="translate(-348.151 -159.205)" fill="#fefefe"/>
    <g id="Group_75" data-name="Group 75" transform="translate(161.328 321.428)">
      <g id="Group_74" data-name="Group 74" transform="translate(0 0)">
        <g id="Group_73" data-name="Group 73">
          <g id="Group_72" data-name="Group 72" clip-path="url(#clip-path)">
            <g id="Group_71" data-name="Group 71" transform="translate(1.147 2.244)">
              <g id="Group_70" data-name="Group 70">
                <g id="Group_69" data-name="Group 69">
                  <path id="Path_62" data-name="Path 62" d="M554.418,582.426c2.255-.17,4.553-.34,6.809-.553.638-.042.894.255.894.851,0,.766-.043,1.532-.085,2.3a1,1,0,0,1-1.021,1.106h-.042c-1.021.085-2.043.17-3.064.213-1.234.085-2.468.213-3.7.3-2.213.17-4.383.34-6.6.511-.936.085-1.106-.085-1.064-1.064,0-.724.042-1.4.085-2.128a.961.961,0,0,1,.979-1.064c2.255-.085,4.511-.255,6.809-.468m-22.682-.085h-.17a6.022,6.022,0,0,1-3.66-.766,3.735,3.735,0,0,1-1.489-4.383,4.882,4.882,0,0,1,3.83-3.4c.085,0,.213-.042.3-.042a4.713,4.713,0,0,1,5.277,5.064,3.114,3.114,0,0,1-1.7,2.766,4.786,4.786,0,0,1-2.383.766m44.98-3.575h-.255c-2.809-.085-3.915-1.872-2.851-4.724a6.174,6.174,0,0,1,5.064-4.128,4.9,4.9,0,0,1,1.362.085,3.64,3.64,0,0,1,2.851,3.447,4.594,4.594,0,0,1-2.341,4.213,6.563,6.563,0,0,1-3.149,1.021h-.213a1.529,1.529,0,0,1-.468.085m-44.044-11.7a3.1,3.1,0,0,1,.383-1.064c1.66-3.489,3.4-6.936,5.319-10.341a3.536,3.536,0,0,1,2.383-1.83,67.444,67.444,0,0,1,10.383-1.617c1.7-.17,3.362-.34,5.064-.468,3.4-.255,6.809-.468,10.213-.426a25.021,25.021,0,0,1,4.383.3,1.422,1.422,0,0,1,1.149.723,118.833,118.833,0,0,1,5.489,11.192,218.9,218.9,0,0,0-22.426.553,211.431,211.431,0,0,0-22.341,2.979m22-18.511a97.8,97.8,0,0,0-13.49,1.83,8.192,8.192,0,0,0-6,4.426c-.553,1.106-1.277,2.213-1.83,3.319-1.064,2.085-2.042,4.213-3.106,6.341a4.515,4.515,0,0,1-.511-.426,3.166,3.166,0,0,0-2.766-1.021.725.725,0,0,0-.3.043c-.34.042-.723.085-1.064.128l-1.66.128a2.731,2.731,0,0,0-2.723,2.213,2.094,2.094,0,0,0,1.915,2.553c1.319.255,2.681.553,4.17.851-1.149,1.362-2.17,2.6-3.192,3.872a9.072,9.072,0,0,0-2.213,5.4c-.3,7.4-.553,14.766-.808,22.171a1.59,1.59,0,0,0,1.83,1.83c1.149-.085,2.3-.17,3.4-.255,1.319-.085,2.638-.213,3.915-.34a2.157,2.157,0,0,0,2.043-2.17c.042-.936.128-1.872.085-2.809-.043-.851.255-1.021,1.064-1.064q13.022-1.021,26-2.043c4.936-.383,9.915-.766,14.851-1.192h.34c.085,0,.128-.043.17-.043.341-.043.468.17.468.638-.085.979-.085,2-.128,2.979-.043,1.447.681,2.128,2.085,2,.979-.085,1.957-.17,2.936-.213,1.319-.085,2.681-.213,4-.34a2.18,2.18,0,0,0,2.255-2.383c.255-7.149.511-14.256.766-21.4a7.917,7.917,0,0,0-1.958-5.7c-.809-.894-1.575-1.83-2.383-2.766-.128-.128-.34-.255-.255-.553,1.447-.511,2.851-1.021,4.3-1.574a2.617,2.617,0,0,0,1.872-2.894,1.987,1.987,0,0,0-2.3-1.7c-.383.043-.724.043-1.107.085s-.723.043-1.106.085c-.3.043-.6.043-.894.085-.17,0-.3.042-.468.042h0a3.511,3.511,0,0,0-2.17,1.064l-.936.936c-.213-.468-.383-.851-.553-1.234-1.106-2.681-2.383-5.277-3.745-7.83a6.2,6.2,0,0,0-5.66-3.4,79.5,79.5,0,0,0-11.022.128c-1.277,0-2.681.128-4.128.213" transform="translate(-521.096 -548.073)" fill="#fcd327"/>
                </g>
              </g>
            </g>
          </g>
        </g>
      </g>
    </g>
    <path id="Path_64" data-name="Path 64" d="M615.508,400.876c-2.34-3.4-5.787-3.958-10.213-1.532-4.766,2.638-8.936,6.17-13.362,9.319-.638.468-1.234,1.4-2.128.979,2.128-25.192-9.83-29.405-16.086-29.916h0a5.4,5.4,0,0,0-2.851,0c-.511.043-.766.085-.766.085a2.07,2.07,0,0,1,.511.043c-.043.043-.085.043-.17.085a1.89,1.89,0,0,0,1.277,1.66c4.6,1.915,6.341,5.958,7.49,10.341a66.184,66.184,0,0,1,1.958,21.4c-.6,9.234-.213,18.426-.766,27.66-.426,7.447-.936,14.894-.766,22.384.043,2.383-.553,4.766-.511,7.149a4.252,4.252,0,0,1-1.66,3.362c-1.149.936-2.3,1.872-3.489,2.766-7.234,5.915-14.766,11.362-22.554,16.554a27,27,0,0,0-6.638,5.4c-1.7,2.128-2.383,5.447-.809,6.894,2.085,1.83,1.277,2.979.085,4.766-2.979,4.383-.766,8.554,4.553,8.894a28.805,28.805,0,0,0,3.319.043,4,4,0,0,1,3.958,2,9.606,9.606,0,0,0,6.511,4.3,32.862,32.862,0,0,0,9.362.894,5.213,5.213,0,0,1,.808-.085c3.872-.6,3.872-.6,3.787,3.234-.213,8.213-.724,16.383-1.021,24.6-.34,9.49-.894,18.979-1.234,28.469a7.867,7.867,0,0,1-5.447,7.575,27.261,27.261,0,0,1-9.745,1.787c-18.894-.043-37.831-.128-56.725.043-5.234.043-9.575-1.319-12.979-4.936a13.185,13.185,0,0,1-.936-8.468l-.809.6a5.036,5.036,0,0,1,1.574-1.745h-1.957l-2.979,4.085s.638,9.447,6.3,15.277a12,12,0,0,0,5.7,3.4c3.106.936,6.255.638,9.319.255,5.234-.681,10.426-1.149,15.7-1.447,14.383-.894,28.809-.468,43.193-.681,10.128-.128,17.192-6.341,17.83-16.341.085-1.021.128-2.043.17-3.064h0l.043-.511c.255-4.3.425-8.6.6-12.851l1.447-30.6a106.809,106.809,0,0,1,2.043-15.7c2.638-3.192,4.426-6.681,1.83-10.809-.468-.766-.085-1.362.255-2.043,3.021-5.7,5.277-11.575,3.66-18.213a2.349,2.349,0,0,1,.213-1.319c2.511-5.83,1.277-11.4-1.957-16.341a19.327,19.327,0,0,1-2.3-4.724l1.064-19.958v-.043a7.873,7.873,0,0,1,.979-1.447c3.872-4.894,7.83-9.745,11.532-14.809,5.064-6.894,10.085-13.83,13.49-21.788C616.316,405.43,617.125,403.217,615.508,400.876ZM586.954,512.624c-.3,3.447-2.681,5.49-5.234,7.4-.723.553-1.745.766-2.17,1.617-.213.085-.383.17-.553.255-1.021-.426-2,.128-2.979.3a30.232,30.232,0,0,1-13.66-.468c-1.192-.34-2.468-.723-2.936-2a1.269,1.269,0,0,1,1.064-.6c8.766-.851,17.4-2.043,24.724-7.66C586.443,510.582,587.082,511.22,586.954,512.624Zm26.511-107.109A23.89,23.89,0,0,1,611,411.047c-5.064,9.022-11.362,17.192-17.533,25.448-1.149,1.532-2.979,2.553-3.745,4.426V440.2l.426-14.341c.085-2.17.17-4.383.213-6.553l.17-5.319c.426-1.191,3.617-3.83,6.341-5.872,3.7-2.553,7.064-5.617,11.362-7.234,1.447-.553,2.894-.723,4.17.34A3.9,3.9,0,0,1,613.465,405.515Z" transform="translate(-337.369 -127.577)" fill="#090f31"/>
    <path id="Path_65" data-name="Path 65" d="M450.75,615.817c-.894-3.915-1.532-7.787.468-11.617C450.2,608.073,450.75,611.945,450.75,615.817Z" transform="translate(-317.721 -256.643)" fill="#090f31"/>
    <path id="Path_66" data-name="Path 66" d="M655.522,620.994c-6.638,2.6-13.319,4.979-20.554,5.319-2.213.085-4.979.383-5.787-2.085-.809-2.426,1.575-4,3.362-5.192,8.553-5.958,17.149-11.873,25.362-18.3a102.527,102.527,0,0,0,11.49-9.958c1.149-1.191,1.66-.894,2.468.341,5.66,8.426,4.255,16.979-3.787,23.107a84.419,84.419,0,0,1-7.49,4.638C658.8,619.42,657.224,620.4,655.522,620.994Z" transform="translate(-420.618 -248.501)" fill="#fdfdfd"/>
    <path id="Path_67" data-name="Path 67" d="M673.812,640.9c-.511,14.979-6.979,21.15-20.3,24.171-6.766,1.532-13.745,1.532-20.639,1.745-1.7.042-3.787.042-4.511-1.915-.681-1.872.766-3.277,1.915-4.6,1.659-1.872,3.66-2.6,6.255-2.979,13.532-1.958,26.086-6.341,36.3-16A8.923,8.923,0,0,1,673.812,640.9Z" transform="translate(-420.141 -277.726)" fill="#fbfbfa"/>
    <path id="Path_68" data-name="Path 68" d="M679.042,697.818a37.1,37.1,0,0,1-14.511.979,10.414,10.414,0,0,1-5.83-2.255c-.6-.553-1.447-1.106-1.107-2.042.34-.894,1.277-.426,1.958-.468a55.231,55.231,0,0,0,18.341-3.7,24.468,24.468,0,0,0,6.894-4.043c.511-.468,1.021-1.362,1.83-.936.766.383.894,1.362.851,2.213-.085,3.4-1.83,5.915-4.426,7.915-1.234.894-2.681,1.532-4,2.341Z" transform="translate(-436.989 -303.196)" fill="#f9f9fa"/>
    <path id="Path_69" data-name="Path 69" d="M578.749,848.083a7.143,7.143,0,0,1-7.149-6.894c-.043-3.575,3.489-7.49,6.724-7.49,4.724,0,7.575,2.979,7.575,7.873C585.94,845.147,582.664,848.083,578.749,848.083Z" transform="translate(-387.633 -388.481)" fill="#fceea0"/>
    <path id="Path_70" data-name="Path 70" d="M586.368,842.215a5.887,5.887,0,0,1-6.128,6.255c-3.107,0-5.958-2.979-6.043-6.255-.085-2.766,3.149-5.915,6-5.915A5.838,5.838,0,0,1,586.368,842.215Z" transform="translate(-389.125 -389.975)" fill="#fbfdf9"/>
    <path id="Path_71" data-name="Path 71" d="M466.221,601.192c-4.936-8.979-11.532-16.681-18.809-23.83-2.341-2.213-2.341-2.213-.043-4.255.255-.255.553-.468.766-.723,9.149-11.66,10.894-24.724,6.809-38.639-.979-3.319-2.553-6.638-6.383-7.873-2.851-.681-4.979.809-7.064,2.341a1.91,1.91,0,0,0-.553,1.617c-.043,0-.085.043-.17.043-2.681,4.085-5.532,8.043-7.958,12.256-3.021,5.277-6.936,10.043-9.064,15.83h0c-1.957,4.511-1.319,9.192-.511,13.745,2.17,11.745,5.4,23.277,7.4,35.107a68.009,68.009,0,0,1-3.447,36.384c-2.894,7.575-7.4,14.171-12.213,20.554-3.49,2.809-6.128,6.553-9.873,9.107a.87.87,0,0,0-.255,1.4c.511.681,1.064.6,1.617.085,2.936-2.809,6.468-5.107,8.553-8.766h0c11.66-12.511,17.66-27.363,18.469-44.384.383-8-1.106-15.788-2.809-23.533q-3-13.469-6.085-26.894c-.511-3.872-.979-7.787.468-11.575h0a1.988,1.988,0,0,0,.213-.426,35.245,35.245,0,0,1,2.085-4.213c4.936-7.873,9.4-16.086,14.937-23.575h0c5.064-3.958,7.234-3.4,9.788,2.6.383.936.681,1.915.979,2.894a36.017,36.017,0,0,1,.723,16.213c-1.489,8.851-3.872,17.362-12.894,21.83.341,1.021,1.192,1.489,1.83,2.085,8.979,8.6,17.362,17.618,22.681,29.022,4.979,10.639,5.915,21.4.6,32.256-3.4,6.979-9.064,11.745-15.234,16.086-4.043,2.851-8.383,4.979-12,8.681a32.514,32.514,0,0,0-3.319,3.787c-4.809,6.553-6.851,14.171-8.383,22-.17.851-.894,2.043.426,2.3,1.234.255,1.149-1.149,1.447-1.958a4.637,4.637,0,0,0,.128-1.106c1.574-8,3.872-15.745,9.277-22.128.851-.042,1.234.085,1.7-1.021h0a27.274,27.274,0,0,1,2.468-1.915c4.681-3.745,10.213-6.341,14.639-10.426a36.189,36.189,0,0,0,15.022-28.724C472.6,615.491,470.051,608.086,466.221,601.192Z" transform="translate(-291.702 -211.549)" fill="#090f31"/>
  </g>
</svg>
