<svg xmlns="http://www.w3.org/2000/svg" xmlns:xlink="http://www.w3.org/1999/xlink" width="261.915" height="260" viewBox="0 0 261.915 260">
  <defs>
    <clipPath id="clip-path">
      <path id="Path_85" data-name="Path 85" d="M527.4,577.2l1.556-51.878,63.982-3.718-1.6,51.878Z" transform="translate(-527.4 -521.6)"/>
    </clipPath>
  </defs>
  <g id="Ride_Now_Pay_Later_1_" data-name="Ride Now Pay Later (1)" transform="translate(-336.685 -295.972)">
    <g id="Group_76" data-name="Group 76" transform="translate(336.685 295.972)" opacity="0.5">
      <path id="Path_72" data-name="Path 72" d="M598.446,373.358c-1.545-17.448-11.674-26.736-29.914-30.167-11.459-2.134-23.09-3.222-34.634-5.23-19.785-3.431-36.008-12.761-51.673-24.142-21.673-15.774-44.978-20.837-70.084-7.824A137.68,137.68,0,0,0,381.5,327.835c-13.777,12.887-24.034,28.493-34.463,43.891-7,10.335-10.386,22.05-10.3,36.318a39.429,39.429,0,0,0,2.79,16.234c5.107,12.552,15.364,20.669,26.48,27.364,14.764,8.912,25.278,20.627,30.514,36.862,4.206,13.012,13.905,19.791,27.338,20.5,14.678.753,26.781-4.644,33.776-18.117a124.337,124.337,0,0,1,12.017-19.581c6.18-7.95,13.6-14.058,24.463-15.1,7.553-.753,15.064-1.966,22.532-3.054,31.33-4.6,56.265-18.7,72.144-46.192C594.884,396.538,599.519,385.366,598.446,373.358Z" transform="translate(-336.685 -297.453)" fill="#d9cef7"/>
      <path id="Path_73" data-name="Path 73" d="M760.123,325.554c8.257.043,15.3-4.539,16.86-10.938,1.556-6.614-2.162-13.748-9.079-16.687-7.955-3.372-15.823-2.075-23.215,1.513-5.62,2.724-6.96,7.479-4.626,13.445C742.96,320.539,750.828,325.511,760.123,325.554Z" transform="translate(-566.534 -295.972)" fill="#d9cef7"/>
      <path id="Path_74" data-name="Path 74" d="M761.59,700.444c-4.626-1.9-10.894.476-14.958,5.62a15.48,15.48,0,0,0-1.254,1.989c-1.9,3.026-3.761,6.139-1.47,9.77,2.2,3.5,5.577,4.755,10.462,4.366a6.887,6.887,0,0,0,1.47,0c5.707-.908,12.278-6.441,12.494-11.024C768.55,706.194,766.3,702.39,761.59,700.444Z" transform="translate(-568.669 -532.212)" fill="#d9cef7"/>
      <path id="Path_75" data-name="Path 75" d="M823.046,691.341c-4.755-.086-8.344,1.556-8.776,6.225-.3,3.286,2.421,5.231,5.62,5.577,3.372.346,8.906-4.5,8.646-7.522C828.234,692.249,825.942,691.039,823.046,691.341Z" transform="translate(-609.375 -526.176)" fill="#d9cef7"/>
    </g>
    <g id="Group_77" data-name="Group 77" transform="translate(401.343 332.312)">
      <path id="Path_76" data-name="Path 76" d="M586.714,397.354c-.259-1.859-.692-3.675-1.081-5.534a15.648,15.648,0,0,0-10.116-11.759,181.743,181.743,0,0,0-25.2,1.427c-10.03,1.167-20.016,2.507-30.046,3.2a73.533,73.533,0,0,0-14.137,1.772c-5.361,1.427-9.468,4.366-11.543,9.9-1.989,5.317-2.118,10.851-2.334,16.3-.389,9.338-1.167,18.719-.735,28.1.086,1.729-1.038,3.5,0,5.231,2.248-.821,4.064-2.853,6.787-2.378a16.354,16.354,0,0,0,.562-3.588c.3-9.381.735-18.719,1.038-28.1.043-1.772.735-2.464,2.507-2.594,17.682-1.081,35.32-2.248,52.958-3.372,7.738-.519,15.52-.994,23.258-1.556,3.113-.216,3.718.173,3.588,3.286-.476,10.678-1.038,21.313-1.513,31.991-.476,10.851-.951,21.7-1.3,32.6-.086,2.291-1.038,4.626.087,6.917,2.594-1.772,6.009-2.81,6.182-6.787.648-18.935,1.34-37.871,1.945-56.763A117.276,117.276,0,0,0,586.714,397.354Z" transform="translate(-489.743 -380.032)" fill="#fcd327"/>
      <path id="Path_77" data-name="Path 77" d="M575.539,722.089c-.173,1.686-.432,3.329-.519,5.015-.3,7.133-.519,14.223-.778,21.356-.13,3.372-.3,6.744-.519,10.073-.13,1.945-.519,3.458-3.2,3.588-11.5.432-23,.865-34.5,1.729-5.49.432-11.024.476-16.514.821-4.626.3-9.295,1.211-13.964.476-4.928,3.5-9.857,6.96-14.785,10.462-.259,1.167-1.816,1.772-1.513,3.2-.216,1.556,1.383,2.594,1.081,4.15,2.9,5.188,7.522,7.479,13.229,7.306,19.065-.562,38.087.216,57.152.13a35.766,35.766,0,0,0,11.672-1.6c4.885-1.729,6.917-4.453,7.133-9.6l2.2-51.748C582.024,720.878,582.024,720.878,575.539,722.089Z" transform="translate(-488.684 -580.859)" fill="#fcd327"/>
      <path id="Path_78" data-name="Path 78" d="M499.855,636.594c-2.2,1.124-1.9,2.248-.13,3.5.3.216.562.475.865.692.865-1.643.432-3.458.519-5.188A5.524,5.524,0,0,1,499.855,636.594Z" transform="translate(-493.843 -528.772)" fill="#fcd327"/>
      <path id="Path_79" data-name="Path 79" d="M493.227,841.4s-8.733,6.139.865,14.569c0,0-10.419-7.825-4.021-12.321Z" transform="translate(-487.993 -648.941)" fill="#fcd327"/>
    </g>
    <path id="Path_80" data-name="Path 80" d="M513.3,602.284c5.879-4.842,10.592-10.548,13.1-17.855,3.459-9.943,2.291-19.584-1.9-29.008-4.366-9.857-10.981-18.028-18.417-25.679-.994-.994-1.945-2.032-2.9-3.026a6.4,6.4,0,0,1,.519-5.188c9.208-11.586,11.11-24.6,7.349-38.606a12.561,12.561,0,0,0-6.182-8.3c-.821-3.026-.476-6.182-.173-9.208a132.722,132.722,0,0,0,.389-13.748,83.032,83.032,0,0,1,.648-8.69c.173-2.118,1.3-3.113,3.372-3.459a97.936,97.936,0,0,1,12.321-.994c13.575-.562,27.106-1.643,40.681-2.464,7.652-.476,15.347-.735,23-1.427,3.329-.3,4.539.692,4.583,4.064.043,6.269-.389,12.537-.735,18.806-.3,5.317-.562,10.678-.821,16-.476,11.716-1.211,23.388-1.643,35.1a2.6,2.6,0,0,1-.389,1.6c-4.669,4.626-10.289,8.041-15.52,11.932-3.242,2.378-6.614,4.583-9.943,6.874a15.644,15.644,0,0,0-4.021,3.891c-1.989,2.767-1.686,5.058,1.21,6.874,1.34.821,1.21,1.254.259,2.248-1.9,1.945-3.977,4.15-2.68,7.133,1.34,3.113,4.41,3.242,7.263,3.069,2.767-.173,4.755.13,6.355,2.983,1.427,2.68,4.669,3.286,7.609,3.631,2.2.3,4.5.346,6.7.519a3.064,3.064,0,0,1,.605,2.118c-.389,11.24-.994,22.48-1.556,33.677-.216,3.934-1.427,4.842-5.534,5.1-12.148.648-24.3,1.383-36.444,2.075-7.955.476-15.909.605-23.864,1.254C515.377,603.494,514.037,603.581,513.3,602.284Z" transform="translate(-95.118 -85.684)" fill="#fefefe"/>
    <g id="Group_85" data-name="Group 85" transform="translate(418.338 390.286)">
      <g id="Group_84" data-name="Group 84" transform="translate(0 0)">
        <g id="Group_83" data-name="Group 83">
          <g id="Group_82" data-name="Group 82">
            <g id="Group_81" data-name="Group 81" clip-path="url(#clip-path)">
              <g id="Group_80" data-name="Group 80" transform="translate(0.386 0.507)">
                <g id="Group_79" data-name="Group 79">
                  <g id="Group_78" data-name="Group 78">
                    <path id="Path_81" data-name="Path 81" d="M581.244,564.763a1.584,1.584,0,0,1-1.167-.519c-.519-.476-.994-.994-1.47-1.47l-1.47-1.47a1.689,1.689,0,0,1-.519-1.427c.043-1.6.086-3.156.13-4.755.043-.951.043-1.9.086-2.853a1.873,1.873,0,0,1,.476-1.34,1.494,1.494,0,0,1,.908-.432c.821-.043,1.3.562,1.3,1.6,0,.778-.043,1.513-.086,2.291l-.043,1.167a7.656,7.656,0,0,1-.043.994c0,.778-.043,1.6-.086,2.378a1.177,1.177,0,0,0,.3.865c.821.778,1.643,1.6,2.421,2.378l.043.043a1.419,1.419,0,0,1,.13,2.075,1.347,1.347,0,0,1-.908.476h0m-23.215-22.394c8.473-.476,16.99-.994,25.42-1.513a.99.99,0,0,1,.735.173,1.043,1.043,0,0,1,.173.735c-.086,1.124-.086,2.248-.13,3.459,0,.476-.043.951-.043,1.47v.3l-.259-.086a13.676,13.676,0,0,0-4.972-.692h-.043c-7.652.432-14.093,7.176-14.4,15.045-.043.778-.259,1.038-.994,1.081l-15.693.908c-5.231.3-10.505.605-15.693.951a1.043,1.043,0,0,1-.735-.173.889.889,0,0,1-.173-.778c.216-6.1.389-12.234.562-18.33a1.18,1.18,0,0,1,.216-.778.914.914,0,0,1,.735-.259c8.344-.519,16.817-.994,25.29-1.513m14.482-16c3.761-.216,7.565-.432,11.37-.692h.043a1.044,1.044,0,0,1,.735.173c.173.173.173.432.173.778q-.13,2.14-.13,4.28a1.254,1.254,0,0,1-.216.778.955.955,0,0,1-.778.259l-13.272.778c-1.772.086-3.5.216-5.231.3l-6.917.389-4.626.259c-1.686.086-3.415.216-5.1.3-5.145.3-10.376.605-15.52.908h0a1,1,0,0,1-.778-.173,1.066,1.066,0,0,1-.173-.821q.13-2.075.13-4.28a1.131,1.131,0,0,1,.216-.735.864.864,0,0,1,.735-.259l26.847-1.556,5.447-.3,3.934-.216c.994-.043,2.032-.086,3.113-.173m12.8-2.68-53.52,3.156c-1.167.086-1.427.346-1.47,1.513l-1.124,36.358c-.043,1.3.173,1.513,1.47,1.427l.562-.043c4.323-.259,8.733-.519,13.142-.778,6.4-.389,12.883-.735,19.281-1.124.605-.043.951.086,1.124.821A12.624,12.624,0,0,0,577.958,575.1a15.025,15.025,0,0,0,2.378-.346,15.9,15.9,0,0,0,11.672-11.8c1.383-5.836-.735-11.586-5.4-14.612a1.213,1.213,0,0,1-.605-1.3l.519-17.379.13-4.453c.086-1.34-.13-1.556-1.34-1.513" transform="translate(-528.801 -523.293)" fill="#fcd327"/>
                    <path id="Path_82" data-name="Path 82" d="M580.736,563.812a1.274,1.274,0,0,1-.908-.432c-.519-.476-.994-.994-1.47-1.47-.476-.519-.994-.994-1.47-1.47a1.3,1.3,0,0,1-.389-1.124c.043-1.6.086-3.156.13-4.755.043-.951.043-1.9.086-2.853a1.5,1.5,0,0,1,.346-1.038.785.785,0,0,1,.605-.259h0c.821-.043.908.735.908,1.21,0,.778-.043,1.513-.086,2.291l-.043,1.167a7.657,7.657,0,0,1-.043.994c0,.778-.043,1.556-.086,2.378a1.255,1.255,0,0,0,.432,1.167c.821.778,1.6,1.6,2.378,2.378l.043.043a1.02,1.02,0,0,1,.13,1.513.857.857,0,0,1-.562.259m-3.026-13.791a1.3,1.3,0,0,0-.908.432,1.872,1.872,0,0,0-.476,1.34c-.043.951-.043,1.9-.086,2.853-.043,1.6-.086,3.156-.13,4.755a1.689,1.689,0,0,0,.519,1.427c.519.476.994.994,1.47,1.47.476.519.994.994,1.47,1.47a1.687,1.687,0,0,0,1.167.519h0a1.347,1.347,0,0,0,.908-.476,1.419,1.419,0,0,0-.13-2.075l-.043-.043c-.778-.778-1.6-1.6-2.421-2.378a.878.878,0,0,1-.3-.865c.043-.778.043-1.6.086-2.378a7.657,7.657,0,0,1,.043-.994l.043-1.167c.043-.778.043-1.513.086-2.291,0-1.038-.476-1.643-1.3-1.6m-20.189-7.738c8.473-.476,16.99-.994,25.42-1.513a1.217,1.217,0,0,1,.476.043.584.584,0,0,1,.043.432c-.086,1.124-.086,2.291-.13,3.458a10.539,10.539,0,0,1-.043,1.167,13.911,13.911,0,0,0-4.885-.605c-7.868.476-14.526,7.393-14.828,15.477-.043.519-.086.605-.605.605l-15.693.908c-5.231.3-10.505.605-15.736.951-.259,0-.389,0-.476-.086a.966.966,0,0,1-.086-.519c.216-6.1.389-12.234.562-18.33a1.008,1.008,0,0,1,.086-.476c.043-.086.216-.086.432-.13,8.473-.389,16.99-.908,25.463-1.383m25.42-1.9c-8.43.519-16.9.994-25.42,1.513-8.473.476-16.99.994-25.377,1.47a.914.914,0,0,0-.735.259,1.18,1.18,0,0,0-.216.778c-.173,6.1-.346,12.234-.562,18.33,0,.346,0,.605.173.778a1.043,1.043,0,0,0,.735.173c5.231-.3,10.462-.648,15.693-.951s10.505-.605,15.693-.908c.735-.043.994-.3.994-1.081.3-7.825,6.787-14.569,14.4-15.044h.043a13.675,13.675,0,0,1,4.972.692l.259.086v-.3c0-.476.043-.994.043-1.47.043-1.21.043-2.291.13-3.458a1.043,1.043,0,0,0-.173-.735c-.086-.173-.389-.173-.648-.13M572,526.287c3.761-.216,7.565-.432,11.37-.692.259,0,.389,0,.475.086a.88.88,0,0,1,.087.476c-.087,1.427-.13,2.9-.13,4.323a.8.8,0,0,1-.086.432c-.043.086-.216.086-.476.13-4.28.216-8.6.476-12.84.735-1.9.13-3.8.216-5.663.346l-4.669.259-6.874.389c-1.686.086-3.415.216-5.1.3-5.145.3-10.375.605-15.52.908h-.043c-.216,0-.389,0-.432-.086-.086-.086-.086-.216-.086-.519.086-1.383.13-2.81.13-4.323a.929.929,0,0,1,.086-.432.978.978,0,0,1,.432-.13l26.847-1.556,5.447-.3,3.934-.216c.951,0,2.032-.086,3.113-.13m11.413-1.124h0c-3.8.259-7.652.476-11.413.692-1.081.043-2.162.13-3.2.173l-3.934.216-5.447.3L532.576,528.1a.914.914,0,0,0-.735.259,1.132,1.132,0,0,0-.216.735c0,1.47-.043,2.94-.13,4.28a1.289,1.289,0,0,0,.173.821.852.852,0,0,0,.778.173h0c5.145-.3,10.376-.605,15.52-.908,1.729-.086,3.415-.216,5.1-.3l4.626-.259,6.917-.389c1.729-.086,3.5-.216,5.231-.3l13.272-.778a1.009,1.009,0,0,0,.778-.259,1.254,1.254,0,0,0,.216-.778q0-2.14.13-4.28c0-.346,0-.605-.173-.778-.086-.173-.389-.173-.648-.173M530.2,565.627c-1.3.087-1.513-.13-1.47-1.427l1.124-36.358c.043-1.167.3-1.427,1.47-1.513l53.521-3.113c1.21-.086,1.427.173,1.383,1.427l-.13,4.453-.519,17.379a1.321,1.321,0,0,0,.605,1.3,13.43,13.43,0,0,1,5.4,14.612,15.417,15.417,0,0,1-14.05,12.148,12.624,12.624,0,0,1-13.186-10.073c-.173-.735-.519-.865-1.124-.821-6.4.389-12.84.778-19.281,1.124-4.41.259-8.819.519-13.142.778l-.605.086m54.6-42.842L531.279,525.9c-1.383.086-1.816.562-1.859,1.945L528.3,564.2c-.043,1.556.346,1.9,1.859,1.816l.562-.043c4.323-.259,8.733-.519,13.142-.778,6.4-.389,12.883-.735,19.281-1.124.476-.043.605.043.735.519a12.9,12.9,0,0,0,13.575,10.332,16.093,16.093,0,0,0,2.464-.346,16.434,16.434,0,0,0,12.018-12.148c1.427-6.009-.735-11.889-5.534-15.044a.993.993,0,0,1-.476-.994q.259-8.69.519-17.379l.13-4.453c.086-1.47-.3-1.859-1.772-1.773" transform="translate(-528.293 -522.774)" fill="#fcd327"/>
                    <path id="Path_83" data-name="Path 83" d="M551.458,577.754c-1.427.086-2.853.173-4.237.259-.908.043-1.254.389-1.254,1.3-.043,1.772-.13,3.5-.173,5.274-.043.951.259,1.254,1.211,1.211s1.859-.13,2.81-.173l1.383-.086,4.28-.259c.908-.043,1.254-.389,1.254-1.3.043-1.772.13-3.5.173-5.274.043-.951-.259-1.254-1.167-1.211q-2.14.195-4.28.259" transform="translate(-538.226 -553.836)" fill="#fcd327"/>
                    <path id="Path_84" data-name="Path 84" d="M546.439,585.286c-.951.043-1.254-.216-1.211-1.211.043-1.773.086-3.5.173-5.274.043-.908.346-1.254,1.254-1.3,1.427-.086,2.853-.173,4.237-.259l4.28-.259c.908-.043,1.167.259,1.167,1.21-.043,1.729-.086,3.5-.173,5.274-.043.908-.346,1.254-1.254,1.3l-4.28.259-1.383.086c-.951.043-1.859.086-2.81.173m4.5-8.43-4.28.259a1.579,1.579,0,0,0-1.686,1.729c-.043,1.772-.13,3.5-.173,5.274-.043,1.211.432,1.643,1.643,1.6.951-.043,1.859-.13,2.81-.173l1.383-.086,4.28-.259a1.579,1.579,0,0,0,1.686-1.729c.043-1.772.13-3.5.173-5.274.043-1.167-.432-1.643-1.556-1.6q-2.2.13-4.28.259" transform="translate(-537.66 -553.327)" fill="#fcd327"/>
                  </g>
                </g>
              </g>
            </g>
          </g>
        </g>
      </g>
    </g>
    <path id="Path_86" data-name="Path 86" d="M617.6,400.541c-2.378-3.351-5.88-3.9-10.376-1.508-4.842,2.6-9.079,6.073-13.575,9.173-.648.461-1.254,1.382-2.162.963,2.162-24.8-9.986-28.943-16.341-29.446h0a5.657,5.657,0,0,0-2.9,0c-.519.042-.778.084-.778.084a2.17,2.17,0,0,1,.519.042c-.043.042-.086.042-.173.084a1.872,1.872,0,0,0,1.3,1.634c4.669,1.885,6.441,5.864,7.609,10.178a63.193,63.193,0,0,1,1.989,21.069c-.605,9.089-.216,18.137-.778,27.226-.432,7.33-.951,14.66-.778,22.032.043,2.346-.562,4.691-.519,7.037a4.141,4.141,0,0,1-1.686,3.309c-1.167.922-2.334,1.843-3.545,2.723-7.349,5.822-15,11.184-22.913,16.294a27.281,27.281,0,0,0-6.744,5.32c-1.729,2.094-2.421,5.361-.821,6.786,2.118,1.8,1.3,2.932.086,4.691-3.026,4.314-.778,8.419,4.626,8.754a30.176,30.176,0,0,0,3.372.042A4.1,4.1,0,0,1,557.031,519a9.782,9.782,0,0,0,6.614,4.23,34.418,34.418,0,0,0,9.511.88,5.462,5.462,0,0,1,.821-.084c3.934-.586,3.934-.586,3.848,3.183-.216,8.084-.735,16.126-1.038,24.21-.346,9.341-.908,18.681-1.254,28.022A7.768,7.768,0,0,1,570,586.893a28.483,28.483,0,0,1-9.9,1.759c-19.195-.042-38.433-.126-57.627.042-5.317.042-9.727-1.3-13.186-4.859a12.6,12.6,0,0,1-.951-8.335l-.821.586a5.012,5.012,0,0,1,1.6-1.717h-1.989L484.1,578.39s.648,9.3,6.4,15.037a12.274,12.274,0,0,0,5.793,3.351c3.156.922,6.355.628,9.468.251,5.317-.67,10.592-1.131,15.952-1.424,14.612-.88,29.268-.461,43.88-.67,10.289-.126,17.466-6.241,18.114-16.084.086-1.005.13-2.01.173-3.016h0l.043-.5c.259-4.23.432-8.461.605-12.65L586,532.566a102.071,102.071,0,0,1,2.075-15.456c2.68-3.141,4.5-6.576,1.859-10.639-.476-.754-.087-1.34.259-2.011,3.069-5.613,5.361-11.393,3.718-17.927a2.248,2.248,0,0,1,.216-1.3c2.551-5.738,1.3-11.225-1.989-16.084A18.782,18.782,0,0,1,589.8,464.5l1.081-19.645v-.042a7.741,7.741,0,0,1,.994-1.424c3.934-4.817,7.955-9.592,11.716-14.576,5.145-6.786,10.246-13.613,13.7-21.446C618.42,405.023,619.241,402.845,617.6,400.541ZM588.59,510.534c-.3,3.393-2.724,5.4-5.318,7.288-.735.545-1.772.754-2.2,1.592-.216.084-.389.168-.562.251-1.038-.419-2.032.126-3.026.293A31.67,31.67,0,0,1,563.6,519.5c-1.21-.335-2.507-.712-2.983-1.969a1.3,1.3,0,0,1,1.081-.586c8.906-.838,17.682-2.01,25.117-7.539C588.071,508.524,588.72,509.152,588.59,510.534Zm26.933-105.427a23.153,23.153,0,0,1-2.507,5.445c-5.145,8.88-11.543,16.922-17.811,25.048-1.167,1.508-3.026,2.513-3.8,4.356v-.712l.432-14.116c.086-2.136.173-4.314.216-6.45l.173-5.236c.432-1.173,3.675-3.77,6.441-5.78,3.761-2.513,7.176-5.529,11.543-7.121,1.47-.545,2.94-.712,4.237.335A3.761,3.761,0,0,1,615.523,405.107Z" transform="translate(-84.628 -47.432)" fill="#090f31"/>
    <path id="Path_87" data-name="Path 87" d="M450.763,616c-.908-3.977-1.556-7.911.476-11.8C450.2,608.134,450.763,612.068,450.763,616Z" transform="translate(-64.269 -178.63)" fill="#090f31"/>
    <path id="Path_88" data-name="Path 88" d="M674.538,640.9c-.519,15.217-7.09,21.486-20.621,24.555-6.874,1.556-13.964,1.556-20.967,1.772-1.729.043-3.848.043-4.583-1.945-.692-1.9.778-3.329,1.945-4.669,1.686-1.9,3.718-2.637,6.355-3.026,13.748-1.989,26.5-6.441,36.876-16.255A9.05,9.05,0,0,1,674.538,640.9Z" transform="translate(-166.592 -200.146)" fill="#fbfbfa"/>
    <path id="Path_89" data-name="Path 89" d="M679.385,698.018a37.689,37.689,0,0,1-14.742.994,10.58,10.58,0,0,1-5.923-2.291c-.605-.562-1.47-1.124-1.124-2.075.346-.908,1.3-.432,1.989-.476a56.112,56.112,0,0,0,18.633-3.761,24.856,24.856,0,0,0,7-4.107c.519-.476,1.038-1.383,1.859-.951.778.389.908,1.383.865,2.248-.086,3.459-1.859,6.009-4.5,8.041-1.254.908-2.724,1.556-4.064,2.378Z" transform="translate(-183.27 -225.637)" fill="#f9f9fa"/>
    <path id="Path_90" data-name="Path 90" d="M578.862,848.312a7.257,7.257,0,0,1-7.263-7c-.043-3.631,3.545-7.609,6.831-7.609,4.8,0,7.7,3.026,7.7,8C586.168,845.329,582.84,848.312,578.862,848.312Z" transform="translate(-134.137 -312.258)" fill="#fceea0"/>
    <path id="Path_91" data-name="Path 91" d="M586.562,842.309a5.98,5.98,0,0,1-6.225,6.355c-3.156,0-6.052-3.026-6.139-6.355-.086-2.81,3.2-6.009,6.1-6.009A5.93,5.93,0,0,1,586.562,842.309Z" transform="translate(-135.614 -313.734)" fill="#fbfdf9"/>
    <path id="Path_92" data-name="Path 92" d="M467.2,602.393c-5.015-9.122-11.716-16.947-19.108-24.21-2.378-2.248-2.378-2.248-.043-4.323.259-.259.562-.476.778-.735,9.295-11.845,11.067-25.117,6.917-39.254-.994-3.372-2.594-6.744-6.485-8-2.9-.692-5.058.821-7.176,2.378a1.94,1.94,0,0,0-.562,1.643c-.043,0-.086.043-.173.043-2.724,4.15-5.62,8.171-8.084,12.451-3.069,5.361-7.047,10.2-9.208,16.082h0c-1.989,4.582-1.34,9.338-.519,13.964,2.2,11.932,5.49,23.648,7.522,35.666a69.092,69.092,0,0,1-3.5,36.963c-2.94,7.7-7.522,14.4-12.407,20.881-3.545,2.853-6.225,6.658-10.03,9.252a.884.884,0,0,0-.259,1.427c.519.692,1.081.605,1.643.086,2.983-2.853,6.571-5.188,8.689-8.906h0c11.845-12.71,17.941-27.8,18.762-45.09.389-8.128-1.124-16.039-2.853-23.907q-3.048-13.683-6.182-27.322c-.519-3.934-.994-7.911.476-11.759h0a2.019,2.019,0,0,0,.216-.432,35.81,35.81,0,0,1,2.118-4.28c5.015-8,9.554-16.341,15.174-23.95h0c5.145-4.021,7.349-3.458,9.943,2.637.389.951.692,1.945.994,2.94a36.589,36.589,0,0,1,.735,16.471c-1.513,8.992-3.934,17.638-13.1,22.178.346,1.038,1.21,1.513,1.859,2.118,9.122,8.733,17.638,17.9,23.042,29.484,5.058,10.808,6.009,21.745.605,32.769-3.458,7.09-9.208,11.932-15.477,16.341-4.107,2.9-8.517,5.058-12.191,8.819a33.024,33.024,0,0,0-3.372,3.848c-4.885,6.658-6.96,14.4-8.517,22.351-.173.865-.908,2.075.432,2.334,1.254.259,1.167-1.167,1.47-1.989a4.711,4.711,0,0,0,.13-1.124c1.6-8.128,3.934-16,9.424-22.48.865-.043,1.254.086,1.729-1.038h0a27.694,27.694,0,0,1,2.507-1.945c4.755-3.8,10.376-6.441,14.872-10.592A36.764,36.764,0,0,0,473.254,625C473.686,616.919,471.093,609.4,467.2,602.393Z" transform="translate(-38.557 -137.411)" fill="#090f31"/>
    <path id="Path_93" data-name="Path 93" d="M655.944,621.487c-6.744,2.637-13.531,5.058-20.881,5.4-2.248.086-5.058.389-5.879-2.118-.821-2.464,1.6-4.064,3.415-5.274,8.689-6.052,17.422-12.062,25.766-18.589a104.177,104.177,0,0,0,11.672-10.116c1.167-1.211,1.686-.908,2.507.346,5.75,8.56,4.323,17.249-3.848,23.475a85.764,85.764,0,0,1-7.609,4.712C659.272,619.888,657.673,620.882,655.944,621.487Z" transform="translate(-167.07 -170.796)" fill="#fdfdfd"/>
  </g>
</svg>
