<svg xmlns="http://www.w3.org/2000/svg" width="254.94" height="258" viewBox="0 0 254.94 258">
  <g id="Book_Delivery_1_" data-name="Book Delivery (1)" transform="translate(-336.685 -295.972)">
    <g id="Group_89" data-name="Group 89" transform="translate(336.685 295.972)" opacity="0.5">
      <path id="Path_117" data-name="Path 117" d="M591.475,373.24c-1.5-17.42-11.363-26.694-29.117-30.119-11.154-2.13-22.475-3.217-33.712-5.222-19.258-3.426-35.049-12.741-50.3-24.1-21.1-15.749-43.78-20.8-68.218-7.812A134.121,134.121,0,0,0,380.3,327.789c-13.41,12.867-23.394,28.449-33.545,43.822-6.809,10.318-10.109,22.015-10.026,36.26a40.279,40.279,0,0,0,2.715,16.209c4.971,12.532,14.955,20.637,25.775,27.321,14.37,8.9,24.605,20.595,29.7,36.8,4.094,12.992,13.535,19.759,26.61,20.47,14.287.752,26.067-4.637,32.877-18.088a124.742,124.742,0,0,1,11.7-19.551c6.016-7.937,13.243-14.036,23.811-15.081,7.352-.752,14.663-1.963,21.932-3.05,30.5-4.6,54.767-18.673,70.223-46.119C588.008,396.383,592.519,385.229,591.475,373.24Z" transform="translate(-336.685 -297.491)" fill="#d9cef7"/>
      <path id="Path_118" data-name="Path 118" d="M759.41,324.557c7.979.042,14.788-4.386,16.292-10.569,1.5-6.391-2.089-13.284-8.773-16.125-7.687-3.258-15.289-2.005-22.433,1.462-5.431,2.632-6.726,7.227-4.47,12.992C742.826,319.712,750.429,324.516,759.41,324.557Z" transform="translate(-570.917 -295.972)" fill="#d9cef7"/>
      <path id="Path_119" data-name="Path 119" d="M760.958,700.422c-4.47-1.838-10.527.46-14.454,5.431a14.956,14.956,0,0,0-1.212,1.922c-1.838,2.924-3.634,5.932-1.42,9.441,2.131,3.384,5.389,4.6,10.109,4.219a6.647,6.647,0,0,0,1.42,0c5.514-.877,11.864-6.224,12.073-10.652C767.684,705.978,765.512,702.3,760.958,700.422Z" transform="translate(-573.175 -531.098)" fill="#d9cef7"/>
      <path id="Path_120" data-name="Path 120" d="M822.749,691.34c-4.6-.084-8.062,1.5-8.48,6.015-.292,3.175,2.339,5.055,5.431,5.389,3.258.334,8.605-4.344,8.355-7.269C827.762,692.217,825.548,691.047,822.749,691.34Z" transform="translate(-614.747 -526.151)" fill="#d9cef7"/>
    </g>
    <g id="Group_90" data-name="Group 90" transform="translate(399.894 331.088)">
      <path id="Path_121" data-name="Path 121" d="M583.492,396.77c-.251-1.8-.668-3.551-1.044-5.347a15.12,15.12,0,0,0-9.775-11.363,175.612,175.612,0,0,0-24.355,1.379c-9.692,1.128-19.342,2.423-29.033,3.091a71.054,71.054,0,0,0-13.66,1.713c-5.18,1.379-9.149,4.219-11.154,9.566-1.922,5.138-2.047,10.485-2.256,15.749-.376,9.023-1.128,18.088-.71,27.153.084,1.671-1,3.384,0,5.055,2.172-.794,3.927-2.757,6.559-2.3a15.8,15.8,0,0,0,.543-3.467c.292-9.065.71-18.088,1-27.154.042-1.713.71-2.381,2.423-2.507,17.086-1.044,34.13-2.172,51.174-3.258,7.478-.5,15-.961,22.475-1.5,3.008-.209,3.593.167,3.467,3.175-.459,10.318-1,20.595-1.462,30.913-.459,10.485-.919,20.971-1.253,31.5-.084,2.214-1,4.47.084,6.684,2.506-1.713,5.807-2.715,5.974-6.559.627-18.3,1.3-36.595,1.88-54.85A113.33,113.33,0,0,0,583.492,396.77Z" transform="translate(-489.788 -380.032)" fill="#fcd327"/>
      <path id="Path_122" data-name="Path 122" d="M572.63,722.068c-.167,1.629-.418,3.217-.5,4.846-.292,6.893-.5,13.744-.752,20.637-.125,3.258-.292,6.517-.5,9.733-.125,1.88-.5,3.342-3.091,3.467-11.112.418-22.224.836-33.336,1.671-5.305.418-10.653.46-15.958.794-4.47.293-8.982,1.17-13.493.46-4.762,3.384-9.525,6.726-14.287,10.109-.251,1.128-1.755,1.713-1.462,3.091-.209,1.5,1.337,2.507,1.044,4.01,2.8,5.013,7.269,7.227,12.783,7.06,18.423-.543,36.8.209,55.226.125a34.562,34.562,0,0,0,11.279-1.546c4.72-1.671,6.684-4.3,6.893-9.274q1.065-25,2.13-50C578.9,720.9,578.9,720.9,572.63,722.068Z" transform="translate(-488.702 -578.836)" fill="#fcd327"/>
      <path id="Path_123" data-name="Path 123" d="M499.8,636.561c-2.13,1.086-1.838,2.172-.125,3.384.292.209.543.46.835.668.836-1.587.418-3.342.5-5.013A5.334,5.334,0,0,1,499.8,636.561Z" transform="translate(-493.993 -528.837)" fill="#fcd327"/>
      <path id="Path_124" data-name="Path 124" d="M493.051,841.4s-8.438,5.932.835,14.078c0,0-10.068-7.561-3.885-11.906Z" transform="translate(-487.993 -648.665)" fill="#fcd327"/>
    </g>
    <path id="Path_125" data-name="Path 125" d="M512.95,596.633c5.681-4.679,10.235-10.193,12.658-17.253,3.342-9.608,2.214-18.924-1.838-28.031-4.219-9.525-10.611-17.42-17.8-24.814-.961-.961-1.88-1.963-2.8-2.924a6.185,6.185,0,0,1,.5-5.013c8.9-11.2,10.736-23.77,7.1-37.3a12.138,12.138,0,0,0-5.974-8.021c-.794-2.924-.46-5.974-.167-8.9a128.232,128.232,0,0,0,.376-13.284,80.242,80.242,0,0,1,.627-8.4c.167-2.047,1.253-3.008,3.258-3.342a94.633,94.633,0,0,1,11.906-.961c13.117-.543,26.193-1.587,39.31-2.381,7.394-.46,14.83-.71,22.224-1.379,3.217-.292,4.386.668,4.428,3.927.042,6.057-.376,12.115-.71,18.172-.292,5.138-.543,10.318-.794,15.457-.46,11.321-1.17,22.6-1.588,33.921a2.513,2.513,0,0,1-.376,1.546c-4.512,4.47-9.942,7.77-15,11.53-3.133,2.3-6.391,4.428-9.608,6.642a15.118,15.118,0,0,0-3.885,3.76c-1.922,2.674-1.629,4.888,1.17,6.642,1.3.794,1.17,1.212.251,2.172-1.838,1.88-3.843,4.01-2.59,6.893,1.295,3.008,4.261,3.133,7.018,2.966,2.674-.167,4.6.125,6.141,2.882,1.379,2.59,4.512,3.175,7.352,3.509,2.13.292,4.345.334,6.475.5a2.96,2.96,0,0,1,.585,2.047c-.376,10.861-.961,21.723-1.5,32.542-.209,3.8-1.379,4.679-5.347,4.929-11.739.627-23.477,1.337-35.216,2.005-7.687.46-15.373.585-23.06,1.212C514.956,597.8,513.661,597.886,512.95,596.633Z" transform="translate(-96.762 -80.706)" fill="#fefefe"/>
    <g id="Group_91" data-name="Group 91" transform="translate(414.601 389.877)">
      <path id="Path_126" data-name="Path 126" d="M560.853,612.126h2.256a1.9,1.9,0,0,0,1.963-1.295,1.944,1.944,0,0,0-.794-2.256l-.125-.125h2.214a1.883,1.883,0,0,0,2.047-1.838,1.945,1.945,0,0,0-2.005-1.963c-.668-.042-1.379,0-2.13,0,.209-.167.376-.292.5-.418a1.765,1.765,0,0,0,.459-1.88,1.712,1.712,0,0,0-1.546-1.17,2.363,2.363,0,0,0-.543,0H549.323c-.418,0-.585-.084-.5-.5.042-.376-.167-.877.084-1.17.251-.251.752-.084,1.128-.084h4.888a1.909,1.909,0,0,0,1.755-2.757,1.77,1.77,0,0,0-1.629-1.086c-3.8,0-7.645-.042-11.446,0a3.562,3.562,0,0,0-2.966,1.629c-.083.125-.125.209-.209.334h-.042a.721.721,0,0,1-.042-.418V575.991c0-.418.083-.543.5-.5h13.911c.418,0,.543.084.543.543V591.74c0,.5,0,.5.418.293,1.922-.961,3.843-1.88,5.765-2.841a.718.718,0,0,1,.71,0c2.005.961,4.01,1.88,6.057,2.8.459.209.459.209.459-.292V576.074c0-.459.125-.543.543-.543h13.911c.376,0,.543.084.543.5v42.443c0,.376-.083.46-.459.46H540.8c-.376,0-.5-.084-.5-.5.042-1.379,0-2.757,0-4.136.167-.042.209.125.292.167a4.876,4.876,0,0,0,3.384,1.337c5.222.042,10.444.042,15.665.042a2.034,2.034,0,0,0,1.211-3.718Z" transform="translate(-533.157 -552.623)" fill="#fcd327"/>
      <path id="Path_127" data-name="Path 127" d="M647.7,610.2V567.341a1.137,1.137,0,0,1,.376-.877c1.587-1.587,3.175-3.217,4.762-4.846.125-.125.209-.292.334-.418.042.042.084.042.125.083v42.9a1.1,1.1,0,0,1-.292.794c-1.629,1.629-3.217,3.258-4.8,4.846a4.379,4.379,0,0,0-.334.46A.217.217,0,0,1,647.7,610.2Z" transform="translate(-595.691 -544.307)" fill="#fcd327"/>
      <path id="Path_128" data-name="Path 128" d="M579.6,580.422V564.84a.847.847,0,0,1,.251-.668c1.587-1.546,3.133-3.133,4.721-4.721a.728.728,0,0,1,.5-.251H595.14a.153.153,0,0,1,.125.042c-.418.418-.794.836-1.211,1.253-1.128,1.128-2.3,2.214-3.426,3.3a.916.916,0,0,0-.292.71V579.92c0,.459,0,.459-.46.251-1.587-.71-3.133-1.462-4.721-2.172a.641.641,0,0,0-.668,0c-1.462.752-2.924,1.462-4.386,2.172Z" transform="translate(-556.039 -543.143)" fill="#fcd327"/>
      <path id="Path_129" data-name="Path 129" d="M528.965,636.157v8.856c0,.376-.083.46-.459.46h-4.888c-.334,0-.418-.084-.418-.418V627.218c0-.334.084-.418.418-.418h4.929c.334,0,.418.084.418.418C528.923,630.184,528.965,633.15,528.965,636.157Z" transform="translate(-523.2 -582.503)" fill="#fcd327"/>
      <path id="Path_130" data-name="Path 130" d="M608.8,564.522c1.086-1.044,2.172-2.047,3.258-3.091l1.922-1.922a.641.641,0,0,1,.543-.209c4.637,0,9.316.042,13.953.042h.752c.042.209-.083.251-.167.292-1.629,1.629-3.3,3.258-4.971,4.888a.691.691,0,0,1-.5.209h-14.7A.245.245,0,0,0,608.8,564.522Z" transform="translate(-573.041 -543.201)" fill="#fcd327"/>
      <path id="Path_131" data-name="Path 131" d="M540.9,564.547c.794-.794,1.5-1.587,2.214-2.339l2.632-2.757a.637.637,0,0,1,.459-.251h14.2c.042,0,.042,0,.083.042.042.125-.083.209-.167.251l-4.846,4.846a.673.673,0,0,1-.543.251H541.109A.559.559,0,0,1,540.9,564.547Z" transform="translate(-533.506 -543.143)" fill="#fcd327"/>
      <path id="Path_132" data-name="Path 132" d="M616.89,533.371c-.167-.125-.334-.209-.5-.334-.292-.209-.752-.376-.794-.627s.292-.585.5-.836c1.253-1.838,2.465-3.676,3.718-5.514.167-.251.292-.334.543-.125.334.292.961.418,1,.794.042.334-.418.71-.627,1.086-1.17,1.755-2.381,3.551-3.593,5.305C617.057,533.162,617.015,533.287,616.89,533.371Z" transform="translate(-576.995 -523.705)" fill="#fcd327"/>
      <path id="Path_133" data-name="Path 133" d="M629.889,545.018c-.084.042-.125,0-.167-.084-.042-.042-.042-.084-.084-.167-.209-.376-.585-.836-.543-1.17.084-.376.71-.46,1.086-.668,1.88-1,3.76-1.963,5.64-2.966.292-.167.418-.125.543.167a10.6,10.6,0,0,0,.5.961c.084.167.084.251-.083.334-2.256,1.17-4.512,2.339-6.768,3.551C629.973,544.977,629.931,545.018,629.889,545.018Z" transform="translate(-584.856 -531.885)" fill="#fcd327"/>
      <path id="Path_134" data-name="Path 134" d="M567.437,543.24c-.209.46-.46.919-.71,1.379-.084.125-.167,0-.251-.042-2.256-1.128-4.553-2.256-6.809-3.384-.167-.084-.209-.167-.125-.334a11.2,11.2,0,0,0,.5-1c.125-.293.251-.293.5-.167,1.963,1,3.969,1.963,5.974,2.966.251.125.5.251.71.376C567.312,543.073,567.437,543.073,567.437,543.24Z" transform="translate(-544.336 -531.736)" fill="#fcd327"/>
      <path id="Path_135" data-name="Path 135" d="M577.771,525.389c.167-.042.167.083.209.167,1.42,2.089,2.8,4.219,4.219,6.308.125.167.084.251-.084.376-.418.251-.794.752-1.17.71-.334-.042-.543-.668-.794-1.044l-3.509-5.264c-.167-.251-.167-.376.125-.543C577.1,525.848,577.436,525.6,577.771,525.389Z" transform="translate(-554.251 -523.451)" fill="#fcd327"/>
      <path id="Path_136" data-name="Path 136" d="M602.08,524.914v3.593c0,.251-.042.376-.334.376h-1.128a.221.221,0,0,1-.251-.251v-.459c-.042-2.339-.083-4.637-.167-6.976,0-.334.083-.46.418-.418h.71c.543-.042.585-.042.585.543v3.593Z" transform="translate(-568.034 -520.762)" fill="#fcd327"/>
    </g>
    <path id="Path_137" data-name="Path 137" d="M613.1,400.485c-2.3-3.342-5.681-3.885-10.026-1.5-4.679,2.59-8.773,6.057-13.117,9.149-.627.46-1.212,1.379-2.089.961,2.089-24.731-9.65-28.866-15.791-29.368h0a5.3,5.3,0,0,0-2.8,0c-.5.042-.752.084-.752.084a2.035,2.035,0,0,1,.5.042c-.042.042-.083.042-.167.084a1.856,1.856,0,0,0,1.253,1.629c4.512,1.88,6.224,5.848,7.352,10.151a64.971,64.971,0,0,1,1.922,21.013c-.585,9.065-.209,18.088-.752,27.153-.418,7.311-.919,14.621-.752,21.973.042,2.339-.543,4.679-.5,7.018a4.175,4.175,0,0,1-1.629,3.3c-1.128.919-2.256,1.838-3.425,2.715-7.1,5.807-14.5,11.154-22.141,16.25a26.51,26.51,0,0,0-6.517,5.305c-1.671,2.089-2.339,5.347-.794,6.767,2.047,1.8,1.253,2.924.084,4.679-2.924,4.3-.752,8.4,4.47,8.731a28.273,28.273,0,0,0,3.258.042,3.926,3.926,0,0,1,3.885,1.963,9.431,9.431,0,0,0,6.392,4.219,32.264,32.264,0,0,0,9.19.877,5.116,5.116,0,0,1,.794-.084c3.8-.585,3.8-.585,3.718,3.175-.209,8.063-.71,16.083-1,24.146-.334,9.316-.877,18.631-1.212,27.947a7.723,7.723,0,0,1-5.347,7.436,26.76,26.76,0,0,1-9.566,1.755c-18.548-.042-37.138-.125-55.686.042-5.138.042-9.4-1.295-12.741-4.846a12.943,12.943,0,0,1-.919-8.313l-.794.585a4.94,4.94,0,0,1,1.546-1.713h-1.922l-2.924,4.01s.627,9.274,6.183,15a11.785,11.785,0,0,0,5.6,3.342c3.05.919,6.141.627,9.149.251,5.138-.668,10.235-1.128,15.415-1.42,14.12-.877,28.281-.459,42.4-.668,9.942-.125,16.877-6.224,17.5-16.041.084-1,.125-2.005.167-3.008h0l.042-.5c.251-4.219.418-8.438.585-12.616l1.42-30.036a104.852,104.852,0,0,1,2.005-15.415c2.59-3.133,4.345-6.559,1.8-10.611-.459-.752-.084-1.337.251-2.005,2.966-5.6,5.18-11.363,3.593-17.88a2.305,2.305,0,0,1,.209-1.3c2.465-5.723,1.253-11.2-1.922-16.042a18.969,18.969,0,0,1-2.256-4.637l1.044-19.592v-.042a7.728,7.728,0,0,1,.961-1.42c3.8-4.8,7.687-9.566,11.321-14.538,4.971-6.768,9.9-13.577,13.243-21.389C613.894,404.955,614.687,402.783,613.1,400.485Zm-28.031,109.7c-.292,3.384-2.632,5.389-5.138,7.269-.71.543-1.713.752-2.131,1.587-.209.084-.376.167-.543.251-1-.418-1.963.125-2.924.292a29.678,29.678,0,0,1-13.41-.46c-1.17-.334-2.423-.71-2.882-1.963a1.245,1.245,0,0,1,1.044-.585c8.606-.836,17.086-2.005,24.271-7.519C584.568,508.18,585.195,508.807,585.069,510.185Zm26.026-105.147a23.449,23.449,0,0,1-2.423,5.431c-4.971,8.856-11.154,16.877-17.211,24.981-1.128,1.5-2.924,2.507-3.676,4.345v-.71l.418-14.078c.083-2.131.167-4.3.209-6.433l.167-5.222c.418-1.17,3.551-3.76,6.224-5.765,3.634-2.506,6.935-5.514,11.154-7.1,1.42-.543,2.841-.71,4.094.334A3.83,3.83,0,0,1,611.095,405.039Z" transform="translate(-85.833 -48.649)" fill="#090f31"/>
    <path id="Path_138" data-name="Path 138" d="M450.734,615.6c-.877-3.843-1.5-7.645.46-11.4C450.191,608,450.734,611.8,450.734,615.6Z" transform="translate(-65.918 -179.467)" fill="#090f31"/>
    <path id="Path_139" data-name="Path 139" d="M672.976,640.9c-.5,14.7-6.851,20.762-19.927,23.728-6.642,1.5-13.493,1.5-20.261,1.713-1.671.042-3.718.042-4.428-1.88-.668-1.838.752-3.217,1.88-4.512,1.629-1.838,3.593-2.548,6.141-2.924,13.284-1.922,25.608-6.224,35.634-15.707A8.707,8.707,0,0,1,672.976,640.9Z" transform="translate(-169.729 -200.836)" fill="#fbfbfa"/>
    <path id="Path_140" data-name="Path 140" d="M678.648,697.587a36.419,36.419,0,0,1-14.245.961,10.225,10.225,0,0,1-5.723-2.214c-.585-.543-1.42-1.086-1.086-2.005.334-.877,1.253-.418,1.922-.46a54.222,54.222,0,0,0,18-3.634,24.019,24.019,0,0,0,6.768-3.969c.5-.459,1-1.337,1.8-.919.752.376.877,1.337.835,2.172-.083,3.342-1.8,5.807-4.344,7.77-1.211.877-2.632,1.5-3.927,2.3Z" transform="translate(-186.805 -226.651)" fill="#f9f9fa"/>
    <path id="Path_141" data-name="Path 141" d="M578.618,847.82a7.012,7.012,0,0,1-7.018-6.767c-.042-3.509,3.426-7.352,6.6-7.352,4.637,0,7.436,2.924,7.436,7.728C585.678,844.937,582.461,847.82,578.618,847.82Z" transform="translate(-136.779 -313.094)" fill="#fceea0"/>
    <path id="Path_142" data-name="Path 142" d="M586.145,842.107a5.779,5.779,0,0,1-6.016,6.141c-3.05,0-5.848-2.924-5.932-6.141-.084-2.715,3.091-5.807,5.89-5.807A5.73,5.73,0,0,1,586.145,842.107Z" transform="translate(-138.292 -314.608)" fill="#fbfdf9"/>
    <path id="Path_143" data-name="Path 143" d="M465.092,599.809c-4.846-8.815-11.321-16.376-18.464-23.394-2.3-2.172-2.3-2.172-.042-4.177.251-.251.543-.459.752-.71,8.982-11.446,10.694-24.271,6.684-37.931-.961-3.258-2.507-6.517-6.266-7.728-2.8-.668-4.888.794-6.935,2.3a1.875,1.875,0,0,0-.543,1.587c-.042,0-.084.042-.167.042-2.632,4.01-5.431,7.9-7.812,12.031-2.966,5.18-6.809,9.859-8.9,15.54h0c-1.922,4.428-1.3,9.023-.5,13.493,2.131,11.53,5.305,22.851,7.269,34.464a66.764,66.764,0,0,1-3.384,35.717c-2.841,7.436-7.269,13.911-11.989,20.177-3.426,2.757-6.016,6.433-9.692,8.94a.854.854,0,0,0-.251,1.378c.5.668,1.044.585,1.587.084,2.882-2.757,6.35-5.013,8.4-8.606h0c11.446-12.282,17.336-26.861,18.13-43.571.376-7.854-1.086-15.5-2.757-23.1q-2.945-13.222-5.974-26.4c-.5-3.8-.961-7.645.46-11.363h0a1.951,1.951,0,0,0,.209-.418,34.6,34.6,0,0,1,2.047-4.136c4.846-7.728,9.232-15.791,14.663-23.143h0c4.971-3.885,7.1-3.342,9.608,2.548.376.919.668,1.88.961,2.841a35.356,35.356,0,0,1,.71,15.916c-1.462,8.689-3.8,17.044-12.658,21.43.334,1,1.17,1.462,1.8,2.047,8.814,8.438,17.044,17.295,22.266,28.49,4.888,10.444,5.807,21.013.585,31.665-3.342,6.851-8.9,11.53-14.955,15.791-3.969,2.8-8.23,4.888-11.78,8.522a31.912,31.912,0,0,0-3.258,3.718c-4.721,6.433-6.726,13.911-8.23,21.6-.167.835-.877,2.005.418,2.256,1.211.251,1.128-1.128,1.42-1.922a4.552,4.552,0,0,0,.125-1.086c1.546-7.854,3.8-15.457,9.107-21.723.836-.042,1.212.083,1.671-1h0a26.768,26.768,0,0,1,2.423-1.88c4.6-3.676,10.026-6.224,14.37-10.235a35.526,35.526,0,0,0,14.746-28.2C471.359,613.845,468.852,606.577,465.092,599.809Z" transform="translate(-39.546 -133.761)" fill="#090f31"/>
    <path id="Path_144" data-name="Path 144" d="M655.036,620.427c-6.517,2.548-13.075,4.888-20.177,5.222-2.172.083-4.888.376-5.681-2.047-.794-2.381,1.546-3.927,3.3-5.1,8.4-5.849,16.835-11.655,24.9-17.963a100.663,100.663,0,0,0,11.279-9.775c1.128-1.17,1.629-.877,2.423.334,5.556,8.271,4.177,16.668-3.718,22.684a82.9,82.9,0,0,1-7.352,4.553C658.253,618.881,656.707,619.842,655.036,620.427Z" transform="translate(-170.212 -171.214)" fill="#fdfdfd"/>
  </g>
</svg>
