<svg xmlns="http://www.w3.org/2000/svg" width="30.631" height="30.631" viewBox="0 0 30.631 30.631">
  <g id="qr-code-svgrepo-com" transform="translate(0)">
    <g id="Group_44" data-name="Group 44" transform="translate(0)">
      <g id="Group_43" data-name="Group 43">
        <path id="Path_47" data-name="Path 47" d="M0,0V13.984H13.984V0ZM11.986,11.986H2V2h9.988v9.988Z" fill="#616161"/>
      </g>
    </g>
    <g id="Group_46" data-name="Group 46" transform="translate(3.995 3.995)">
      <g id="Group_45" data-name="Group 45">
        <rect id="Rectangle_32" data-name="Rectangle 32" width="5.993" height="5.993" fill="#616161"/>
      </g>
    </g>
    <g id="Group_48" data-name="Group 48" transform="translate(16.647)">
      <g id="Group_47" data-name="Group 47">
        <path id="Path_48" data-name="Path 48" d="M278.261,0V13.984h13.984V0Zm11.986,11.986h-9.988V2h9.988Z" transform="translate(-278.261)" fill="#616161"/>
      </g>
    </g>
    <g id="Group_50" data-name="Group 50" transform="translate(20.643 3.995)">
      <g id="Group_49" data-name="Group 49">
        <rect id="Rectangle_33" data-name="Rectangle 33" width="5.993" height="5.993" fill="#616161"/>
      </g>
    </g>
    <g id="Group_52" data-name="Group 52" transform="translate(0 16.647)">
      <g id="Group_51" data-name="Group 51">
        <path id="Path_49" data-name="Path 49" d="M0,278.261v13.984H13.984V278.261Zm11.986,11.986H2v-9.988h9.988v9.988Z" transform="translate(0 -278.261)" fill="#616161"/>
      </g>
    </g>
    <g id="Group_54" data-name="Group 54" transform="translate(3.995 20.643)">
      <g id="Group_53" data-name="Group 53">
        <rect id="Rectangle_34" data-name="Rectangle 34" width="5.993" height="5.993" fill="#616161"/>
      </g>
    </g>
    <g id="Group_56" data-name="Group 56" transform="translate(16.647 16.647)">
      <g id="Group_55" data-name="Group 55">
        <path id="Path_50" data-name="Path 50" d="M282.256,280.259v-2h-4v13.984h4v-2h-2v-4h2v-2h-2v-4Z" transform="translate(-278.261 -278.261)" fill="#616161"/>
      </g>
    </g>
    <g id="Group_58" data-name="Group 58" transform="translate(28.634 16.647)">
      <g id="Group_57" data-name="Group 57">
        <rect id="Rectangle_35" data-name="Rectangle 35" width="1.998" height="1.998" fill="#616161"/>
      </g>
    </g>
    <g id="Group_60" data-name="Group 60" transform="translate(26.636 21.309)">
      <g id="Group_59" data-name="Group 59">
        <path id="Path_51" data-name="Path 51" d="M447.215,356.174V363.5h-2v2h4v-9.323Z" transform="translate(-445.217 -356.174)" fill="#616161"/>
      </g>
    </g>
    <g id="Group_62" data-name="Group 62" transform="translate(22.641 16.647)">
      <g id="Group_61" data-name="Group 61">
        <rect id="Rectangle_36" data-name="Rectangle 36" width="3.995" height="1.998" fill="#616161"/>
      </g>
    </g>
    <g id="Group_64" data-name="Group 64" transform="translate(22.641 20.643)">
      <g id="Group_63" data-name="Group 63">
        <path id="Path_52" data-name="Path 52" d="M382.43,347.041v-2h-4v5.993h4v-2h-2v-2Z" transform="translate(-378.435 -345.043)" fill="#616161"/>
      </g>
    </g>
    <g id="Group_66" data-name="Group 66" transform="translate(22.641 28.634)">
      <g id="Group_65" data-name="Group 65">
        <rect id="Rectangle_37" data-name="Rectangle 37" width="1.998" height="1.998" fill="#616161"/>
      </g>
    </g>
  </g>
</svg>
