<svg xmlns="http://www.w3.org/2000/svg" width="44.357" height="21.288" viewBox="0 0 44.357 21.288">
  <g id="car-svgrepo-com_4_" data-name="car-svgrepo-com (4)" transform="translate(0)">
    <g id="Group_34" data-name="Group 34" transform="translate(0 0)">
      <path id="Path_39" data-name="Path 39" d="M8.907,16.86a4.52,4.52,0,1,0,4.518,4.52A4.518,4.518,0,0,0,8.907,16.86Zm0,5.885a1.364,1.364,0,1,1,1.363-1.364A1.368,1.368,0,0,1,8.907,22.745Z" transform="translate(1.802 -4.611)" fill="#616161"/>
      <path id="Path_40" data-name="Path 40" d="M43.61,21.242l-.739-6.012a2.214,2.214,0,0,0-2.318-1.937l-1.619.09-5.028-4.53a2.631,2.631,0,0,0-1.762-.676H21.93a10.062,10.062,0,0,0-6.3,2.219l-5.7,4.579L2.264,16.891A2.212,2.212,0,0,0,.588,19.036v2.209A.585.585,0,0,0,0,21.831v2.921a.753.753,0,0,0,.753.753H5.08c-.018-.188-.056-.367-.056-.559a5.684,5.684,0,0,1,11.368,0,5.546,5.546,0,0,1-.058.559H28.315c-.017-.188-.055-.367-.055-.559a5.683,5.683,0,1,1,11.366,0,5.163,5.163,0,0,1-.056.559H43.6a.752.752,0,0,0,.752-.753V22A.745.745,0,0,0,43.61,21.242ZM28.45,13.855l-14.25.721,2.728-2.194a8.338,8.338,0,0,1,5.228-1.841H28.45Zm2.367-.12V10.543h.927a1.293,1.293,0,0,1,.869.334L35.522,13.5Z" transform="translate(0 -8.177)" fill="#616161"/>
      <path id="Path_41" data-name="Path 41" d="M25.379,16.86A4.52,4.52,0,1,0,29.9,21.38,4.518,4.518,0,0,0,25.379,16.86Zm0,5.885a1.364,1.364,0,1,1,1.364-1.364A1.366,1.366,0,0,1,25.379,22.745Z" transform="translate(8.567 -4.611)" fill="#616161"/>
    </g>
  </g>
</svg>
