<svg xmlns="http://www.w3.org/2000/svg" width="31.074" height="31.08" viewBox="0 0 31.074 31.08">
  <path id="call-svgrepo-com" d="M57,63.089c-1.354,0-3.256-.49-6.105-2.081A39.694,39.694,0,0,1,41.3,53.836a36.386,36.386,0,0,1-7.2-9.586c-2.556-4.648-2.12-7.085-1.633-8.126A6.486,6.486,0,0,1,35.013,33.4,12.231,12.231,0,0,1,37,32.342l.191-.084a1.857,1.857,0,0,1,1.523-.139,4.46,4.46,0,0,1,1.447,1.11A24.052,24.052,0,0,1,43.78,38.6a5.351,5.351,0,0,1,.71,2.2,3.477,3.477,0,0,1-.885,2.068c-.091.124-.181.243-.268.358-.528.694-.644.894-.567,1.252a13.16,13.16,0,0,0,3.2,4.753,12.615,12.615,0,0,0,4.7,3.127c.373.08.578-.041,1.294-.588.1-.078.208-.16.318-.241a3.5,3.5,0,0,1,2.1-.939h0a5.027,5.027,0,0,1,2.21.776,26.5,26.5,0,0,1,5.352,3.592A4.459,4.459,0,0,1,63.063,56.4a1.871,1.871,0,0,1-.139,1.526c-.026.058-.054.121-.084.191A12.244,12.244,0,0,1,61.779,60.1a6.487,6.487,0,0,1-2.732,2.538,4.677,4.677,0,0,1-2.05.449Z" transform="translate(-32.098 -32.009)" fill="#616161"/>
</svg>
