<svg xmlns="http://www.w3.org/2000/svg" width="28.526" height="31.998" viewBox="0 0 28.526 31.998">
  <g id="box-svgrepo-com_1_" data-name="box-svgrepo-com (1)" transform="translate(0)">
    <g id="Group_36" data-name="Group 36" transform="translate(8.279 0)">
      <g id="Group_35" data-name="Group 35">
        <path id="Path_43" data-name="Path 43" d="M162.659.034a.249.249,0,0,0-.251,0l-5.915,3.435,13.6,7.891L176.1,7.868Z" transform="translate(-156.492 0)" fill="#616161"/>
      </g>
    </g>
    <g id="Group_38" data-name="Group 38" transform="translate(0.733 4.337)">
      <g id="Group_37" data-name="Group 37" transform="translate(0)">
        <path id="Path_44" data-name="Path 44" d="M44.641,67.763l-6.05,3.514,13.594,7.895,6.057-3.518Z" transform="translate(-38.591 -67.763)" fill="#616161"/>
      </g>
    </g>
    <g id="Group_40" data-name="Group 40" transform="translate(0 9.202)">
      <g id="Group_39" data-name="Group 39" transform="translate(0)">
        <path id="Path_45" data-name="Path 45" d="M27.132,143.795v14.8a.25.25,0,0,0,.124.216l13.388,7.776V151.642Z" transform="translate(-27.132 -143.795)" fill="#616161"/>
      </g>
    </g>
    <g id="Group_42" data-name="Group 42" transform="translate(15.014 9.211)">
      <g id="Group_41" data-name="Group 41">
        <path id="Path_46" data-name="Path 46" d="M268.977,147.582c-.018.011-.061.023-.08.032l-7.165,4.146V166.7l13.372-7.758a.266.266,0,0,0,.14-.217v-14.8Z" transform="translate(-261.732 -143.931)" fill="#616161"/>
      </g>
    </g>
  </g>
</svg>
