<svg xmlns="http://www.w3.org/2000/svg" width="35.546" height="32.799" viewBox="0 0 35.546 32.799">
  <g id="cash-pay-svgrepo-com" transform="translate(0 -18.625)">
    <path id="Path_429" data-name="Path 429" d="M34.011,262.577a2.1,2.1,0,0,0-1.652-.54c-1,.115-2.318.386-3.709.673a42.506,42.506,0,0,1-5.309.881,12.139,12.139,0,0,1-4.318-.618,2.041,2.041,0,0,1-.876-.811h2.884A2.16,2.16,0,0,0,23.188,260V258.31a2.16,2.16,0,0,0-2.158-2.157h-7.9c-.336-.01-4.369-.086-7.162,2.3a11.171,11.171,0,0,0-1.2,1.182,1.806,1.806,0,0,0-1.412-.681H.774a.774.774,0,0,0-.774.774v10.937a.774.774,0,0,0,.774.774H3.351a1.811,1.811,0,0,0,1.809-1.808v-.6a56.352,56.352,0,0,1,6.213.933,50.522,50.522,0,0,0,9.234,1.1,27.887,27.887,0,0,0,4.114-.331,46.267,46.267,0,0,0,5.558-1.338c.848-.24,1.649-.466,2.358-.645,1.91-.482,2.195-1.686,2.195-2.361v-1.972A2.5,2.5,0,0,0,34.011,262.577Zm-30.4,7.05a.26.26,0,0,1-.26.26h-1.8V260.5h1.8a.26.26,0,0,1,.26.26v8.869Zm29.672-3.239c0,.164,0,.6-1.025.859-.73.184-1.541.414-2.4.657A45.278,45.278,0,0,1,24.5,269.2c-3.046.429-5.586.608-12.847-.755a55.239,55.239,0,0,0-6.5-.962v-5.748a.779.779,0,0,0,.075-.112,7.451,7.451,0,0,1,1.734-2c2.387-2.036,6.077-1.928,6.113-1.926h7.948a.61.61,0,0,1,.609.609V260a.61.61,0,0,1-.609.609H13.113a.774.774,0,1,0,0,1.548H16.5a3.363,3.363,0,0,0,1.8,2.182,13.318,13.318,0,0,0,5.133.792,43.421,43.421,0,0,0,5.525-.91c1.356-.28,2.638-.544,3.572-.651a.572.572,0,0,1,.445.158.941.941,0,0,1,.3.683v1.972Z" transform="translate(0 -220.012)" fill="#616161"/>
    <path id="Path_430" data-name="Path 430" d="M88.612,18.625H61.419a1.988,1.988,0,0,0-1.985,1.985V33.359a1.988,1.988,0,0,0,1.985,1.986H88.612A1.988,1.988,0,0,0,90.6,33.359V20.61A1.988,1.988,0,0,0,88.612,18.625ZM84.771,33.8H65.262a4.961,4.961,0,0,0-4.279-4.467v-4.9a4.962,4.962,0,0,0,4.256-4.256H84.795a4.962,4.962,0,0,0,4.254,4.256v4.9A4.961,4.961,0,0,0,84.771,33.8ZM89.049,20.61v2.251a3.414,3.414,0,0,1-2.687-2.688h2.25A.438.438,0,0,1,89.049,20.61Zm-27.63-.437h2.251a3.414,3.414,0,0,1-2.688,2.688V20.61A.438.438,0,0,1,61.419,20.173Zm-.437,13.185V30.9A3.412,3.412,0,0,1,63.7,33.8H61.419A.438.438,0,0,1,60.982,33.359Zm27.63.437H86.329a3.412,3.412,0,0,1,2.721-2.9v2.462A.438.438,0,0,1,88.612,33.8Z" transform="translate(-55.052)" fill="#616161"/>
    <path id="Path_431" data-name="Path 431" d="M201.745,56.884a5.539,5.539,0,1,0,5.539,5.539A5.545,5.545,0,0,0,201.745,56.884Zm0,9.529a3.99,3.99,0,1,1,3.99-3.99A3.995,3.995,0,0,1,201.745,66.413Z" transform="translate(-181.739 -35.438)" fill="#616161"/>
    <path id="Path_432" data-name="Path 432" d="M120.522,99.705a2.381,2.381,0,1,0,2.381,2.381A2.384,2.384,0,0,0,120.522,99.705Zm0,3.214a.833.833,0,1,1,.833-.833A.834.834,0,0,1,120.522,102.919Z" transform="translate(-109.43 -75.102)" fill="#616161"/>
    <path id="Path_433" data-name="Path 433" d="M362.293,99.705a2.381,2.381,0,1,0,2.382,2.381A2.384,2.384,0,0,0,362.293,99.705Zm0,3.214a.833.833,0,1,1,.833-.833A.834.834,0,0,1,362.293,102.919Z" transform="translate(-333.374 -75.102)" fill="#616161"/>
  </g>
</svg>
